<?xml version="1.0" encoding="UTF-8" standalone="no"?>
<svg
   version="1.0"
   width="1200pt"
   height="1200pt"
   viewBox="0 0 1200 1200"
   preserveAspectRatio="xMidYMid meet"
   id="svg2313"
   sodipodi:docname="angular_black.svg"
   inkscape:version="1.1.2 (76b9e6a115, 2022-02-25)"
   xmlns:inkscape="http://www.inkscape.org/namespaces/inkscape"
   xmlns:sodipodi="http://sodipodi.sourceforge.net/DTD/sodipodi-0.dtd"
   xmlns="http://www.w3.org/2000/svg"
   xmlns:svg="http://www.w3.org/2000/svg">
  <defs
     id="defs2317" />
  <sodipodi:namedview
     id="namedview2315"
     pagecolor="#ffffff"
     bordercolor="#666666"
     borderopacity="1.0"
     inkscape:pageshadow="2"
     inkscape:pageopacity="0.0"
     inkscape:pagecheckerboard="0"
     inkscape:document-units="pt"
     showgrid="false"
     inkscape:zoom="0.3730065"
     inkscape:cx="631.35629"
     inkscape:cy="729.20981"
     inkscape:window-width="1920"
     inkscape:window-height="1024"
     inkscape:window-x="1080"
     inkscape:window-y="450"
     inkscape:window-maximized="1"
     inkscape:current-layer="g2311" />
  <metadata
     id="metadata2301">
Created by potrace 1.16, written by Peter Selinger 2001-2019
</metadata>
  <g
     transform="matrix(0.07056581,0,0,-0.07056581,180.28363,1197.6398)"
     fill="#000000"
     stroke="none"
     id="g2311">
    <g
       id="g1235"
       transform="matrix(84.581201,0,0,-84.581201,-4629.544,19465.938)">
	<polygon
   class="st0"
   points="203.9,186.3 218.1,63.2 125,30 31.9,63.2 46.1,186.3 125,230 "
   id="polygon1229"
   style="fill:#000000;fill-opacity:1" />

	<polygon
   class="st1"
   points="218.1,63.2 125,30 125,52.2 125,52.1 125,153.4 125,230 203.9,186.3 "
   id="polygon1231"
   style="fill:#000000;fill-opacity:1" />

	<path
   class="st2"
   d="M 125,52.1 66.8,182.6 v 0 h 21.7 v 0 l 11.7,-29.2 h 49.4 l 11.7,29.2 v 0 H 183 v 0 z m 17,83.3 h -34 l 17,-40.9 z"
   id="path1233" />

</g>
  </g>
  <style
     type="text/css"
     id="style1227">
	.st0{fill:#DD0031;}
	.st1{fill:#C3002F;}
	.st2{fill:#FFFFFF;}
</style>
</svg>
