<?xml version="1.0" encoding="UTF-8" standalone="no"?>
<svg
   version="1.0"
   width="1200pt"
   height="1200pt"
   viewBox="0 0 1200 1200"
   preserveAspectRatio="xMidYMid meet"
   id="svg3917"
   sodipodi:docname="c.svg"
   inkscape:version="1.1.2 (76b9e6a115, 2022-02-25)"
   xmlns:inkscape="http://www.inkscape.org/namespaces/inkscape"
   xmlns:sodipodi="http://sodipodi.sourceforge.net/DTD/sodipodi-0.dtd"
   xmlns="http://www.w3.org/2000/svg"
   xmlns:svg="http://www.w3.org/2000/svg">
  <defs
     id="defs3921" />
  <sodipodi:namedview
     id="namedview3919"
     pagecolor="#ffffff"
     bordercolor="#666666"
     borderopacity="1.0"
     inkscape:pageshadow="2"
     inkscape:pageopacity="0.0"
     inkscape:pagecheckerboard="0"
     inkscape:document-units="pt"
     showgrid="false"
     inkscape:zoom="0.25504847"
     inkscape:cx="-150.9517"
     inkscape:cy="850.81867"
     inkscape:window-width="1920"
     inkscape:window-height="1024"
     inkscape:window-x="1080"
     inkscape:window-y="450"
     inkscape:window-maximized="1"
     inkscape:current-layer="svg3917"
     inkscape:snap-center="false"
     height="1200pt" />
  <metadata
     id="metadata3897">
Created by potrace 1.16, written by Peter Selinger 2001-2019
</metadata>
  <g
     transform="matrix(0.1,0,0,-0.1,1.1499351,1299.6087)"
     fill="#000000"
     stroke="none"
     id="g3915">
    <g
       transform="translate(17.249026,43396.304)"
       fill="#000000"
       stroke="none"
       id="g7428" />
  </g>
  <path
     d="M 578.84075,1.8747802 C 573.84498,2.5884621 561.98002,5.800033 557.07344,7.8518704 551.09636,10.260548 108.43483,265.66964 100.67354,271.11148 c -17.842065,12.57864 -33.275447,36.30858 -38.806486,59.68168 -1.694996,7.04761 -1.784206,13.11392 -1.784206,272.71589 V 868.9989 l 2.230258,8.65341 c 5.441828,21.49968 18.912584,43.17778 34.435176,55.57801 5.084988,4.01446 441.501788,256.74718 455.775438,263.88408 3.21156,1.6057 8.83181,3.9252 12.48944,5.085 6.33393,1.9625 8.02894,2.0518 30.77755,2.0518 h 24.08678 l 8.38578,-2.944 c 5.17419,-1.7841 14.54128,-6.4231 24.53283,-12.2218 8.92103,-5.085 110.62077,-63.7854 226.0589,-130.4254 155.2259,-89.65634 211.6068,-122.57494 216.2458,-126.5002 14.7197,-12.31102 26.9416,-31.84807 33.4539,-53.52619 1.5165,-5.08498 1.6058,-18.2881 1.8734,-273.07272 l 0.1783,-267.72012 -2.141,-8.6534 c -6.0663,-23.90836 -23.0162,-48.44118 -41.4828,-60.12775 C 1083.2358,266.65096 980.55475,207.23689 858.69348,136.84997 624.07039,1.5179388 631.29641,5.4431915 614.79251,2.5884621 607.92332,1.3395186 585.70995,0.89346708 578.84075,1.8747802 Z M 632.813,248.71968 c 99.55869,10.97287 188.23373,61.4659 248.36147,141.48753 9.81313,13.02471 23.10547,33.45388 22.65942,34.79203 -0.26763,0.71368 -150.05173,87.87214 -152.90646,88.94267 -0.53526,0.17841 -3.12236,-2.94395 -5.79867,-7.04761 -17.39601,-26.85231 -41.39358,-48.26278 -69.94087,-62.53643 -36.57623,-18.28811 -75.82876,-23.46231 -115.79498,-15.34417 -38.53885,7.8505 -74.93664,29.43941 -100.27237,59.68169 -58.78959,69.94088 -55.57802,171.55141 7.49367,237.83467 53.7938,56.55933 138.54359,71.36824 208.48447,36.3978 28.01202,-14.00602 54.15065,-37.46832 70.47613,-63.33931 4.01447,-6.33393 4.54973,-6.77998 6.24472,-5.88789 6.95841,3.74684 150.23015,86.80163 151.21147,87.69373 0.98131,0.98131 0.44605,2.40868 -3.30079,8.6534 -20.78599,34.43518 -53.88301,71.10061 -86.71241,96.16871 -49.3333,37.55754 -105.62501,61.46589 -166.10958,70.47613 -38.182,5.70946 -84.0361,4.46052 -121.95048,-3.21156 C 382.31047,924.66614 270.70838,811.19063 244.39133,668.27573 c -4.19288,-22.65941 -5.35261,-36.66544 -5.44182,-64.40985 0,-26.22781 0.71369,-35.32726 4.10368,-56.64854 15.70101,-98.66658 72.34954,-186.27109 155.93961,-241.22464 16.77153,-11.06208 26.40624,-16.59312 42.19647,-24.08678 30.59913,-14.7197 62.98247,-24.9789 95.81185,-30.33151 11.59735,-1.87341 18.1097,-2.6763 39.60938,-4.46051 8.11814,-0.71369 44.51594,0.35684 56.2025,1.60578 z m 279.94192,315.17999 0.17842,19.8939 h 19.62626 19.62627 v 20.07231 20.07232 H 932.5596 912.93334 v 19.62628 19.62626 H 892.86102 872.7887 V 643.56448 623.9382 l -19.80468,-0.17841 -19.8939,-0.26762 -0.26763,-19.89391 -0.17843,-19.80469 h 20.07232 20.07232 v -20.0723 -20.07232 l 19.8939,0.17841 19.80468,0.26763 z m 148.26758,-0.1784 v 20.0723 h 20.0722 20.0724 l -0.1784,19.80469 -0.2677,19.89391 -19.8047,0.26762 -19.8938,0.17841 v 19.62628 19.62626 h -19.6263 -19.6263 V 643.56448 623.9382 l -19.8047,-0.17841 -19.89387,-0.26762 -0.26764,-19.89391 -0.17842,-19.80469 h 20.07233 20.0723 v -20.0723 -20.07232 h 19.6263 19.6263 z"
     id="path1322"
     style="fill:#659ad2;fill-opacity:1;stroke:none;stroke-width:0.0892102" />
</svg>
