<?xml version="1.0" encoding="UTF-8" standalone="no"?>
<svg
   version="1.0"
   width="1200pt"
   height="1200pt"
   viewBox="0 0 1200 1200"
   preserveAspectRatio="xMidYMid meet"
   id="svg3917"
   sodipodi:docname="c_black.svg"
   inkscape:version="1.1.2 (76b9e6a115, 2022-02-25)"
   xmlns:inkscape="http://www.inkscape.org/namespaces/inkscape"
   xmlns:sodipodi="http://sodipodi.sourceforge.net/DTD/sodipodi-0.dtd"
   xmlns="http://www.w3.org/2000/svg"
   xmlns:svg="http://www.w3.org/2000/svg">
  <defs
     id="defs3921" />
  <sodipodi:namedview
     id="namedview3919"
     pagecolor="#ffffff"
     bordercolor="#666666"
     borderopacity="1.0"
     inkscape:pageshadow="2"
     inkscape:pageopacity="0.0"
     inkscape:pagecheckerboard="0"
     inkscape:document-units="pt"
     showgrid="false"
     inkscape:zoom="0.25504847"
     inkscape:cx="-150.9517"
     inkscape:cy="850.81867"
     inkscape:window-width="1920"
     inkscape:window-height="1024"
     inkscape:window-x="1080"
     inkscape:window-y="450"
     inkscape:window-maximized="1"
     inkscape:current-layer="svg3917"
     inkscape:snap-center="false"
     height="1200pt" />
  <metadata
     id="metadata3897">
Created by potrace 1.16, written by Peter Selinger 2001-2019
</metadata>
  <g
     transform="matrix(0.1,0,0,-0.1,1.1499351,1299.6087)"
     fill="#000000"
     stroke="none"
     id="g3915">
    <g
       transform="translate(17.249026,43396.304)"
       fill="#000000"
       stroke="none"
       id="g7428" />
  </g>
  <path
     d="m 589.61672,3.4604591 c -4.97867,0.7112384 -16.803,3.9118128 -21.69278,5.9566248 -5.95662,2.4004301 -447.10248,256.9350061 -454.8372,262.3582061 -17.780969,12.53558 -33.161507,36.18426 -38.673608,59.47734 -1.689192,7.02348 -1.778097,13.06901 -1.778097,271.78211 v 264.58082 l 2.222621,8.62377 c 5.423196,21.42607 18.847828,43.02994 34.317274,55.38772 5.06758,4.00071 439.99008,255.86805 454.21487,262.98055 3.20056,1.6002 8.80157,3.9117 12.44668,5.0676 6.31223,1.9558 8.00143,2.0448 30.67216,2.0448 h 24.00431 l 8.35706,-2.9339 c 5.15648,-1.7781 14.4915,-6.4013 24.44884,-12.18 8.89048,-5.0676 110.242,-63.567 225.28487,-129.9788 154.69438,-89.3494 210.88228,-122.15528 215.50538,-126.0671 14.6692,-12.26888 26.8493,-31.73903 33.3393,-53.34292 1.5114,-5.06757 1.6003,-18.22549 1.867,-272.13772 l 0.1777,-266.80345 -2.1337,-8.62377 c -6.0455,-23.8265 -22.9373,-48.27533 -41.3407,-59.92187 C 1092.2848,267.33004 989.95525,208.11941 868.51124,137.9735 634.69149,3.1048396 641.89277,7.0166523 625.44538,4.1716975 618.59971,2.9270303 596.4624,2.4825061 589.61672,3.4604591 Z M 643.40416,249.46017 c 99.2178,10.93529 187.58923,61.25543 247.51109,141.00307 9.77953,12.98012 23.02636,33.33933 22.58183,34.6729 -0.26672,0.71124 -149.53795,87.57126 -152.38291,88.63813 -0.53342,0.17781 -3.11167,-2.93387 -5.77882,-7.02347 -17.33644,-26.76038 -41.25184,-48.09753 -69.70139,-62.32232 -36.45099,-18.22548 -75.56912,-23.38196 -115.39849,-15.29163 -38.4069,7.82363 -74.68006,29.33862 -99.92904,59.47735 -58.58829,69.7014 -55.38772,170.96401 7.468,237.02032 53.60962,56.36567 138.06923,71.12389 207.77064,36.27319 27.9161,-13.95808 53.96523,-37.34003 70.23482,-63.12245 4.00071,-6.31224 4.53415,-6.75677 6.22333,-5.86773 6.93458,3.73401 149.71577,86.50442 150.69372,87.39347 0.97796,0.97796 0.44452,2.40043 -3.28949,8.62378 -20.71482,34.31726 -53.69852,70.85715 -86.41551,95.83942 -49.16437,37.42894 -105.26334,61.25544 -165.54082,70.23482 -38.05127,5.68991 -83.74836,4.44525 -121.53292,-3.20056 -142.15884,-28.71628 -253.37881,-141.80324 -279.60575,-284.2288 -4.17852,-22.58183 -5.33428,-36.53989 -5.42319,-64.18931 0,-26.13802 0.71124,-35.20631 4.08963,-56.45458 15.64725,-98.32875 72.10182,-185.6333 155.40567,-240.39869 16.71411,-11.0242 26.31583,-16.5363 42.05199,-24.00431 30.49436,-14.6693 62.76683,-24.89337 95.4838,-30.22765 11.55764,-1.86699 18.04769,-2.66713 39.47376,-4.44524 8.09033,-0.71124 44.36351,0.35562 56.01005,1.60029 z m 278.98341,314.10082 0.17781,19.82578 h 19.55905 19.55908 v 20.00358 20.0036 h -19.55908 -19.55905 v 19.55906 19.55907 h -20.0036 -20.00359 v -19.55907 -19.55906 l -19.73687,-0.17781 -19.82579,-0.26671 -0.2667,-19.82578 -0.17782,-19.73688 h 20.00359 20.00359 V 563.38319 543.3796 l 19.82579,0.1778 19.73686,0.26671 z m 147.75983,-0.1778 v 20.00358 h 20.0036 20.0036 l -0.1778,19.73688 -0.2667,19.82578 -19.737,0.26671 -19.8257,0.17781 v 19.55906 19.55907 h -19.5591 -19.5591 v -19.55907 -19.55906 l -19.7368,-0.17781 -19.82576,-0.26671 -0.26673,-19.82578 -0.1778,-19.73688 h 20.00369 20.0034 V 563.38319 543.3796 h 19.5591 19.5591 z"
     id="path1322"
     style="fill:#000000;stroke:none;stroke-width:0.0889048" />
</svg>
