<?xml version="1.0" encoding="UTF-8" standalone="no"?>
<svg
   version="1.0"
   width="1200pt"
   height="1200pt"
   viewBox="0 0 1200 1200"
   preserveAspectRatio="xMidYMid meet"
   id="svg2313"
   sodipodi:docname="css.svg"
   inkscape:version="1.1.2 (76b9e6a115, 2022-02-25)"
   xmlns:inkscape="http://www.inkscape.org/namespaces/inkscape"
   xmlns:sodipodi="http://sodipodi.sourceforge.net/DTD/sodipodi-0.dtd"
   xmlns="http://www.w3.org/2000/svg"
   xmlns:svg="http://www.w3.org/2000/svg">
  <defs
     id="defs2317" />
  <sodipodi:namedview
     id="namedview2315"
     pagecolor="#ffffff"
     bordercolor="#666666"
     borderopacity="1.0"
     inkscape:pageshadow="2"
     inkscape:pageopacity="0.0"
     inkscape:pagecheckerboard="0"
     inkscape:document-units="pt"
     showgrid="false"
     inkscape:zoom="0.3730065"
     inkscape:cx="910.17181"
     inkscape:cy="729.20982"
     inkscape:window-width="1920"
     inkscape:window-height="1024"
     inkscape:window-x="1080"
     inkscape:window-y="450"
     inkscape:window-maximized="1"
     inkscape:current-layer="g2311" />
  <metadata
     id="metadata2301">
Created by potrace 1.16, written by Peter Selinger 2001-2019
</metadata>
  <g
     transform="matrix(0.07056581,0,0,-0.07056581,180.28363,1197.6398)"
     fill="#000000"
     stroke="none"
     id="g2311">
    <path
       d="m 2820,15785 v -1145 l 913,2 912,3 3,383 2,382 h -530 -530 v 375 375 l 528,2 527,3 3,383 2,382 h -915 -915 z"
       id="path2303" />
    <path
       d="m 5000,16185 v -745 h 530 530 v -65 -65 h -530 -530 v -350 -350 h 915 915 v 765 765 h -530 -530 v 60 60 h 530 530 v 335 335 h -915 -915 z"
       id="path2305" />
    <path
       d="m 7180,16185 v -745 h 530 530 v -65 -65 h -530 -530 v -350 -350 h 915 915 v 765 765 h -530 -530 v 60 60 h 530 530 v 335 335 h -915 -915 z"
       id="path2307" />
    <path
       d="m 0,13583 c -1,-34 1079,-12180 1085,-12208 4,-18 284,-98 2432,-695 C 4852,310 5958,4 5973,2 c 18,-3 937,247 2478,674 2151,596 2450,681 2454,699 2,11 247,2754 544,6095 298,3341 543,6090 545,6108 l 5,32 H 5999 0 Z m 9750,-2505 c 0,-22 -71,-821 -489,-5502 -104,-1165 -193,-2122 -198,-2126 -11,-10 -3047,-850 -3071,-850 -19,0 -3070,844 -3077,852 -2,2 -49,514 -104,1138 -56,624 -103,1154 -107,1178 l -5,42 h 755 c 416,0 756,-1 757,-2 0,-2 24,-270 54,-596 29,-327 55,-595 57,-597 2,-2 377,-105 835,-228 l 831,-225 833,225 c 459,124 836,227 838,228 4,5 170,1857 171,1908 v 37 H 5230 2630 v 25 c 0,14 -29,351 -65,748 -36,397 -65,723 -65,725 0,1 1231,2 2735,2 h 2735 v 25 c 0,13 29,353 65,753 36,401 65,737 65,746 0,15 -221,16 -2867,18 l -2868,3 -61,680 c -34,374 -65,710 -69,748 l -6,67 h 3760 3761 z"
       id="path2309" />
    <path
       d="m 0,13583 c -1,-34 1079,-12180 1085,-12208 4,-18 284,-98 2432,-695 C 4852,310 5958,4 5973,2 c 18,-3 937,247 2478,674 2151,596 2450,681 2454,699 2,11 247,2754 544,6095 298,3341 543,6090 545,6108 l 5,32 H 5999 0 Z m 9750,-2505 c 0,-22 -71,-821 -489,-5502 -104,-1165 -193,-2122 -198,-2126 -11,-10 -3047,-850 -3071,-850 -19,0 -3070,844 -3077,852 -2,2 -49,514 -104,1138 -56,624 -103,1154 -107,1178 l -5,42 h 755 c 416,0 756,-1 757,-2 0,-2 24,-270 54,-596 29,-327 55,-595 57,-597 2,-2 377,-105 835,-228 l 831,-225 833,225 c 459,124 836,227 838,228 4,5 170,1857 171,1908 v 37 H 5230 2630 v 25 c 0,14 -29,351 -65,748 -36,397 -65,723 -65,725 0,1 1231,2 2735,2 h 2735 v 25 c 0,13 29,353 65,753 36,401 65,737 65,746 0,15 -221,16 -2867,18 l -2868,3 -61,680 c -34,374 -65,710 -69,748 l -6,67 h 3760 3761 z"
       id="path2381"
       style="fill:#0068b1;fill-opacity:1" />
  </g>
</svg>
