<?xml version="1.0" encoding="UTF-8" standalone="no"?>
<svg
   version="1.0"
   width="1200pt"
   height="1200pt"
   viewBox="0 0 1200 1200"
   preserveAspectRatio="xMidYMid meet"
   id="svg3308"
   sodipodi:docname="html_black.svg"
   inkscape:version="1.1.2 (76b9e6a115, 2022-02-25)"
   xmlns:inkscape="http://www.inkscape.org/namespaces/inkscape"
   xmlns:sodipodi="http://sodipodi.sourceforge.net/DTD/sodipodi-0.dtd"
   xmlns="http://www.w3.org/2000/svg"
   xmlns:svg="http://www.w3.org/2000/svg">
  <defs
     id="defs3312" />
  <sodipodi:namedview
     id="namedview3310"
     pagecolor="#ffffff"
     bordercolor="#666666"
     borderopacity="1.0"
     inkscape:pageshadow="2"
     inkscape:pageopacity="0.0"
     inkscape:pagecheckerboard="0"
     inkscape:document-units="pt"
     showgrid="false"
     inkscape:zoom="0.4360722"
     inkscape:cx="640.94891"
     inkscape:cy="873.70853"
     inkscape:window-width="1920"
     inkscape:window-height="1024"
     inkscape:window-x="1080"
     inkscape:window-y="450"
     inkscape:window-maximized="1"
     inkscape:current-layer="svg3308" />
  <metadata
     id="metadata3294">
Created by potrace 1.16, written by Peter Selinger 2001-2019
</metadata>
  <g
     transform="matrix(0.11713402,0,0,-0.11713402,6.6878911,1199.9252)"
     fill="#000000"
     stroke="none"
     id="g3306">
    <path
       d="m 2160,9550 v -690 h 240 240 v 230 230 h 205 205 v -230 -230 h 235 235 v 690 690 h -235 -235 v -225 -225 h -210 -210 v 225 225 h -235 -235 z"
       id="path3296" />
    <path
       d="m 3710,10010 v -230 h 205 205 v -460 -460 h 230 230 v 460 460 h 205 205 v 230 230 h -640 -640 z"
       id="path3298" />
    <path
       d="m 5190,9550 v -690 h 230 230 l 2,326 3,327 154,-237 c 84,-131 157,-234 161,-229 4,4 76,113 159,242 l 151,234 v -332 -331 h 235 235 v 690 690 h -247 -248 l -139,-231 c -77,-127 -142,-232 -146,-234 -3,-2 -69,101 -146,228 l -141,232 -247,3 -246,2 z"
       id="path3300" />
    <path
       d="m 6970,9550 v -690 h 560 560 v 230 230 h -325 -325 v 460 460 h -235 -235 z"
       id="path3302" />
    <path
       d="m 1490,8209 c 0,-11 25,-296 55,-632 30,-337 82,-918 115,-1292 62,-694 116,-1299 195,-2190 25,-275 94,-1058 155,-1740 C 2146,819 2146,820 2151,816 2160,809 5096,0 5114,0 c 20,0 86,18 636,170 195,54 542,150 770,214 228,63 613,169 855,236 242,67 501,139 575,160 119,32 136,40 142,61 4,13 28,263 53,554 26,292 69,780 96,1085 27,305 67,758 89,1005 22,248 52,576 65,730 36,396 107,1198 160,1788 141,1578 195,2192 195,2208 0,19 -94,19 -3630,19 H 1490 Z M 7396,6688 c -3,-18 -22,-211 -41,-428 -19,-217 -38,-410 -41,-427 l -5,-33 H 5575 c -954,0 -1735,-2 -1735,-4 0,-2 18,-201 40,-441 22,-240 40,-445 40,-456 0,-19 33,-19 1655,-19 910,0 1655,-4 1655,-8 0,-25 -250,-2785 -252,-2787 -6,-6 -1849,-515 -1863,-515 -20,0 -1849,511 -1857,519 -6,6 -128,1335 -128,1399 v 32 h 455 455 l 4,-22 c 3,-13 18,-173 33,-356 15,-183 30,-338 34,-344 3,-5 231,-70 505,-143 l 499,-134 505,136 506,135 52,581 c 28,319 50,582 49,584 -2,1 -710,6 -1573,9 l -1570,7 -122,1361 c -68,749 -123,1367 -122,1374 0,9 463,12 2280,12 h 2281 z"
       id="path3304" />
  </g>
</svg>
