<?xml version="1.0" encoding="UTF-8" standalone="no"?>
<svg
   version="1.0"
   width="1200pt"
   height="1200pt"
   viewBox="0 0 1200 1200"
   preserveAspectRatio="xMidYMid meet"
   id="svg5251"
   sodipodi:docname="java.svg"
   inkscape:version="1.1.2 (76b9e6a115, 2022-02-25)"
   xmlns:inkscape="http://www.inkscape.org/namespaces/inkscape"
   xmlns:sodipodi="http://sodipodi.sourceforge.net/DTD/sodipodi-0.dtd"
   xmlns="http://www.w3.org/2000/svg"
   xmlns:svg="http://www.w3.org/2000/svg">
  <defs
     id="defs5255" />
  <sodipodi:namedview
     id="namedview5253"
     pagecolor="#ffffff"
     bordercolor="#666666"
     borderopacity="1.0"
     inkscape:pageshadow="2"
     inkscape:pageopacity="0"
     inkscape:pagecheckerboard="0"
     inkscape:document-units="pt"
     showgrid="false"
     borderlayer="true"
     inkscape:zoom="0.30834961"
     inkscape:cx="261.0673"
     inkscape:cy="541.59303"
     inkscape:window-width="1920"
     inkscape:window-height="1024"
     inkscape:window-x="1080"
     inkscape:window-y="450"
     inkscape:window-maximized="1"
     inkscape:current-layer="svg5251"
     width="1200pt" />
  <metadata
     id="metadata5245">
Created by potrace 1.16, written by Peter Selinger 2001-2019
</metadata>
  <g
     transform="matrix(0.34778487,0,0,-0.34778487,-295.85248,1500.7523)"
     fill="#000000"
     stroke="none"
     id="g6610">
    <path
       d="m 2891,4225 c -2,-160 -57,-304 -149,-393 -31,-29 -125,-103 -211,-165 -308,-222 -450,-405 -451,-578 0,-103 52,-235 141,-355 46,-63 208,-234 220,-234 5,0 1,17 -10,38 -33,66 -100,255 -121,342 -30,126 -36,245 -15,294 23,54 106,139 270,276 293,245 383,367 401,544 7,73 -13,177 -49,256 l -25,55 z"
       id="path6594"
       style="fill:#da6901;fill-opacity:1" />
    <path
       d="m 2993,3500 c -216,-113 -368,-234 -424,-340 -44,-83 -23,-260 44,-370 12,-19 45,-66 74,-103 66,-86 76,-121 58,-207 -7,-36 -17,-76 -21,-88 -6,-22 -5,-23 15,-10 12,7 44,41 71,74 106,130 121,226 58,354 -21,41 -55,104 -77,139 -65,103 -65,180 1,283 30,49 155,172 263,261 80,65 81,67 67,67 -7,0 -65,-27 -129,-60 z"
       id="path6596"
       style="fill:#da6901;fill-opacity:1" />
    <path
       d="m 3430,2438 -65,-21 87,-21 c 149,-37 213,-100 205,-203 -3,-40 -13,-66 -42,-110 -42,-64 -159,-183 -231,-235 -75,-54 -24,-48 121,15 139,60 246,143 291,228 42,78 15,229 -54,303 -64,68 -184,85 -312,44 z"
       id="path6598"
       style="fill:#3f6e8d;fill-opacity:1" />
    <path
       d="m 1865,2403 c -216,-26 -315,-69 -315,-135 0,-120 301,-187 785,-175 362,9 617,60 810,160 55,29 52,32 -21,18 -347,-66 -1256,-72 -1331,-9 -40,33 18,81 150,124 l 72,23 -60,-1 c -33,-1 -73,-3 -90,-5 z"
       id="path6600"
       style="fill:#3f6e8d;fill-opacity:1" />
    <path
       d="m 1858,1965 c -26,-14 -51,-33 -57,-42 -10,-19 2,-50 28,-70 30,-23 145,-62 236,-80 122,-24 431,-24 600,1 152,21 445,78 445,85 0,3 -28,25 -63,48 l -62,43 -61,-15 c -118,-28 -341,-55 -494,-62 -159,-6 -390,8 -452,28 -46,15 -71,45 -58,70 14,26 -3,24 -62,-6 z"
       id="path6602"
       style="fill:#3f6e8d;fill-opacity:1" />
    <path
       d="m 1950,1608 c -38,-19 -45,-28 -48,-56 -7,-67 48,-108 186,-142 284,-70 701,-46 943,53 l 32,13 -85,50 -84,51 -145,-24 c -221,-37 -496,-32 -656,13 -46,13 -53,18 -53,39 0,32 -30,33 -90,3 z"
       id="path6604"
       style="fill:#3f6e8d;fill-opacity:1" />
    <path
       d="m 1600,1374 c -14,-2 -58,-9 -99,-15 -146,-22 -231,-65 -231,-119 0,-83 136,-142 405,-175 300,-38 907,-38 1241,0 379,42 696,138 724,220 4,11 3,31 -3,45 l -10,25 -6,-25 c -4,-13 -20,-32 -36,-42 -77,-44 -351,-100 -665,-135 -222,-25 -813,-24 -1025,1 -369,43 -496,91 -407,155 25,17 111,50 167,64 16,4 15,5 -5,4 -14,0 -36,-1 -50,-3 z"
       id="path6606"
       style="fill:#3f6e8d;fill-opacity:1" />
    <path
       d="m 3740,1134 c -113,-82 -330,-153 -555,-183 -145,-20 -584,-32 -945,-27 -327,5 -349,4 -281,-9 176,-34 393,-49 696,-49 495,-1 804,47 992,152 41,23 133,115 133,133 0,12 1,12 -40,-17 z"
       id="path6608"
       style="fill:#3f6e8d;fill-opacity:1" />
  </g>
</svg>
