<?xml version="1.0" standalone="no"?>
<!DOCTYPE svg PUBLIC "-//W3C//DTD SVG 20010904//EN"
 "http://www.w3.org/TR/2001/REC-SVG-20010904/DTD/svg10.dtd">
<svg version="1.0" xmlns="http://www.w3.org/2000/svg"
 width="600.000000pt" height="750.000000pt" viewBox="0 0 600.000000 750.000000"
 preserveAspectRatio="xMidYMid meet">

<g transform="translate(0.000000,750.000000) scale(0.100000,-0.100000)"
fill="#000000" stroke="none">
<path d="M0 3750 l0 -3750 3000 0 3000 0 0 3750 0 3750 -3000 0 -3000 0 0
-3750z m3363 3463 c-7 -2 -19 -2 -25 0 -7 3 -2 5 12 5 14 0 19 -2 13 -5z
m-123 -7 c0 -2 -8 -10 -17 -17 -16 -13 -17 -12 -4 4 13 16 21 21 21 13z m43
-22 c-3 -9 6 -28 23 -47 l29 -32 -34 32 c-22 20 -32 37 -28 47 4 9 9 16 11 16
3 0 3 -7 -1 -16z m157 -50 c0 -7 6 -15 13 -17 7 -3 5 -6 -5 -6 -11 -1 -18 6
-18 16 0 9 -12 31 -27 47 l-28 31 33 -29 c17 -17 32 -35 32 -42z m68 11 c-3
-3 -9 2 -12 12 -6 14 -5 15 5 6 7 -7 10 -15 7 -18z m-191 -102 c-3 -10 -5 -4
-5 12 0 17 2 24 5 18 2 -7 2 -21 0 -30z m-23 -37 c-3 -8 -18 -22 -32 -32 -26
-16 -26 -16 3 14 34 36 36 37 29 18z m91 -56 c10 -11 16 -20 13 -20 -3 0 -13
9 -23 20 -10 11 -16 20 -13 20 3 0 13 -9 23 -20z m-168 4 c-3 -3 -12 -4 -19
-1 -8 3 -5 6 6 6 11 1 17 -2 13 -5z m152 -30 c25 -25 26 -26 6 -37 -11 -7 -32
-25 -47 -41 -27 -27 -30 -28 -47 -12 -31 28 -77 21 -107 -19 -14 -19 -32 -35
-39 -35 -17 0 -67 77 -63 97 3 14 102 52 138 53 8 0 26 7 40 15 35 20 89 11
119 -21z m-366 9 c-7 -2 -21 -2 -30 0 -10 3 -4 5 12 5 17 0 24 -2 18 -5z m432
-31 c-3 -3 -11 0 -18 7 -9 10 -8 11 6 5 10 -3 15 -9 12 -12z m-404 -2 c10 -6
19 -20 19 -31 0 -11 14 -40 30 -65 39 -56 68 -58 106 -9 16 21 35 35 48 35 28
-1 72 -38 85 -72 9 -24 7 -31 -14 -52 -19 -19 -25 -36 -25 -70 l0 -45 -105 36
c-62 20 -132 52 -172 79 -37 24 -82 49 -99 56 l-31 11 46 69 c48 71 68 81 112
58z m444 -30 c10 -11 16 -20 13 -20 -3 0 -13 9 -23 20 -10 11 -16 20 -13 20 3
0 13 -9 23 -20z m-18 -22 c36 -35 43 -75 21 -123 -13 -29 -14 -29 -48 -10 -14
8 -37 14 -52 15 -21 0 -29 7 -38 35 -15 45 -6 69 33 94 43 26 46 26 84 -11z
m-587 -42 c0 -2 -8 -10 -17 -17 -16 -13 -17 -12 -4 4 13 16 21 21 21 13z m647
-53 c-3 -10 -5 -2 -5 17 0 19 2 27 5 18 2 -10 2 -26 0 -35z m-917 3 c0 -2 -7
-7 -16 -10 -8 -3 -12 -2 -9 4 6 10 25 14 25 6z m98 -3 c-10 -2 -28 -2 -40 0
-13 2 -5 4 17 4 22 1 32 -1 23 -4z m220 -22 c20 -10 61 -35 90 -55 31 -21 103
-52 177 -76 68 -22 141 -51 161 -65 20 -14 40 -25 44 -25 4 0 11 -18 14 -40 3
-22 9 -58 12 -80 l6 -40 -49 0 c-41 0 -72 12 -189 71 -76 39 -173 89 -214 110
-106 54 -249 91 -321 83 -49 -5 -59 -4 -78 15 -11 11 -21 32 -21 45 0 37 35
56 105 57 33 0 69 4 80 9 38 16 143 11 183 -9z m-358 6 c0 -2 -10 -12 -22 -23
l-23 -19 19 23 c18 21 26 27 26 19z m860 -42 c22 -11 31 -25 35 -53 4 -20 7
-44 9 -52 3 -20 -22 -70 -35 -70 -16 0 -82 37 -106 60 -40 37 -26 112 22 123
36 8 45 7 75 -8z m-846 -104 c-2 -3 -12 3 -22 13 -16 17 -16 18 5 5 12 -7 20
-15 17 -18z m913 7 c-3 -8 -6 -5 -6 6 -1 11 2 17 5 13 3 -3 4 -12 1 -19z
m-780 -4 c-3 -3 -12 -4 -19 -1 -8 3 -5 6 6 6 11 1 17 -2 13 -5z m-70 -10 c-3
-3 -12 -4 -19 -1 -8 3 -5 6 6 6 11 1 17 -2 13 -5z m261 -44 c40 -16 98 -43
128 -61 l54 -33 -1 -79 c-1 -44 3 -83 8 -88 6 -6 22 -5 42 2 22 8 36 8 43 1
12 -12 -7 -32 -87 -87 -32 -22 -74 -58 -94 -80 -108 -120 -141 -136 -230 -116
-51 11 -61 23 -61 73 0 29 7 45 33 71 34 33 53 78 40 91 -4 4 -12 -3 -18 -14
-11 -20 -12 -19 -34 10 -22 30 -22 31 -4 68 10 20 24 37 32 37 25 0 24 25 -1
27 -12 0 -29 2 -36 2 -20 2 -42 36 -42 66 0 16 12 40 28 57 15 16 35 44 44 62
16 29 21 32 50 26 18 -4 66 -20 106 -35z m572 -20 c-6 -11 -15 -20 -20 -20 -6
0 -2 9 7 20 10 11 19 20 21 20 1 0 -2 -9 -8 -20z m-780 6 c0 -2 -8 -10 -17
-17 -16 -13 -17 -12 -4 4 13 16 21 21 21 13z m-43 -32 c-3 -3 -12 -4 -19 -1
-8 3 -5 6 6 6 11 1 17 -2 13 -5z m-60 -111 c-2 -16 -4 -5 -4 22 0 28 2 40 4
28 2 -13 2 -35 0 -50z m860 15 c-3 -8 -6 -5 -6 6 -1 11 2 17 5 13 3 -3 4 -12
1 -19z m-147 -62 c0 -3 -4 -8 -10 -11 -5 -3 -10 -1 -10 4 0 6 5 11 10 11 6 0
10 -2 10 -4z m98 -13 c-15 -2 -42 -2 -60 0 -18 2 -6 4 27 4 33 0 48 -2 33 -4z
m-767 -20 c13 -16 12 -17 -3 -4 -10 7 -18 15 -18 17 0 8 8 3 21 -13z m568
-105 c15 -41 21 -89 11 -83 -6 3 -14 -5 -19 -18 -6 -16 -27 -31 -64 -46 -30
-12 -65 -33 -78 -47 -12 -13 -28 -24 -34 -24 -6 0 -20 -7 -31 -16 -18 -15 -17
-15 16 -10 19 4 46 17 60 31 14 13 48 34 75 46 28 12 58 28 68 37 21 18 21 12
3 -33 -13 -29 -20 -35 -46 -35 -18 0 -70 -20 -123 -49 -161 -86 -216 -89 -287
-16 l-35 36 94 -3 93 -3 107 111 c95 98 148 142 174 144 4 0 11 -10 16 -22z
m-484 -37 c3 -5 2 -12 -3 -15 -5 -3 -9 1 -9 9 0 17 3 19 12 6z m522 -13 c-3
-8 -6 -5 -6 6 -1 11 2 17 5 13 3 -3 4 -12 1 -19z m-560 -85 c-3 -10 -5 -4 -5
12 0 17 2 24 5 18 2 -7 2 -21 0 -30z m28 -73 c3 -5 2 -10 -4 -10 -5 0 -13 5
-16 10 -3 6 -2 10 4 10 5 0 13 -4 16 -10z m24 -65 c96 -86 138 -86 306 0 113
58 129 62 218 44 l56 -12 -29 -42 c-54 -79 -73 -141 -73 -240 -1 -66 4 -103
19 -140 11 -27 23 -49 27 -48 5 2 9 40 10 86 2 70 7 92 34 147 34 69 119 174
133 165 5 -3 18 -36 31 -73 12 -37 34 -84 50 -105 21 -30 26 -46 22 -72 -5
-31 1 -40 74 -117 81 -87 122 -146 142 -210 10 -31 9 -42 -5 -70 -22 -42 -27
-45 -93 -52 -119 -13 -155 28 -107 122 14 28 30 53 36 57 20 13 10 35 -16 35
-21 0 -25 4 -21 20 6 23 -10 27 -27 6 -6 -8 -32 -17 -57 -20 l-46 -7 -7 48
c-10 76 -46 114 -75 79 -9 -11 -6 -25 14 -62 l26 -49 -95 -6 c-112 -6 -154
-28 -188 -98 -26 -53 -17 -87 30 -116 27 -17 32 -25 27 -48 -4 -27 12 -67 27
-67 5 0 8 13 8 29 0 29 31 54 38 31 2 -5 13 -15 24 -21 24 -13 48 4 48 35 -1
20 -2 20 -14 4 -15 -21 -33 -23 -39 -5 -5 16 22 36 50 37 16 0 25 -10 37 -45
15 -45 15 -46 -21 -133 -31 -72 -48 -99 -105 -155 l-68 -69 -49 41 c-113 95
-242 154 -403 186 -100 20 -122 30 -95 46 23 13 22 38 -3 64 -11 11 -31 43
-45 70 l-25 49 27 31 c15 16 35 37 43 45 45 43 78 241 61 367 -12 82 -46 199
-62 208 -19 12 -8 35 28 60 21 14 43 25 49 25 6 0 39 -25 73 -55z m-149 41 c0
-2 -8 -10 -17 -17 -16 -13 -17 -12 -4 4 13 16 21 21 21 13z m814 -41 c18 -14
17 -17 -26 -62 -60 -65 -100 -135 -119 -213 l-17 -65 -6 50 c-12 90 29 224 88
288 25 27 45 27 80 2z m41 5 c10 -11 16 -20 13 -20 -3 0 -13 9 -23 20 -10 11
-16 20 -13 20 3 0 13 -9 23 -20z m-843 -118 c20 -59 23 -85 22 -217 0 -82 -5
-161 -11 -175 -10 -23 -14 -18 -61 83 -59 125 -131 238 -167 261 -14 9 -25 21
-25 26 0 12 92 81 145 109 l40 21 17 -20 c9 -11 27 -51 40 -88z m2112 40 c2
-4 -4 -8 -14 -8 -10 0 -16 4 -14 8 3 4 9 8 14 8 5 0 11 -4 14 -8z m-224 -25
c0 -2 -10 -12 -22 -23 l-23 -19 19 23 c18 21 26 27 26 19z m-2363 -13 c-3 -3
-12 -4 -19 -1 -8 3 -5 6 6 6 11 1 17 -2 13 -5z m2397 -9 c-4 -9 -7 -68 -8
-132 l-1 -116 -50 -13 c-27 -7 -52 -13 -54 -14 -2 0 -1 26 2 58 6 70 40 162
74 202 26 32 46 40 37 15z m146 11 c0 -2 -8 -10 -17 -17 -16 -13 -17 -12 -4 4
13 16 21 21 21 13z m40 -73 c0 -78 -6 -87 -41 -60 -34 24 -33 47 3 105 26 42
38 28 38 -45z m-163 10 c-3 -10 -5 -2 -5 17 0 19 2 27 5 18 2 -10 2 -26 0 -35z
m-2470 5 c-3 -7 -5 -2 -5 12 0 14 2 19 5 13 2 -7 2 -19 0 -25z m2660 -15 c-3
-10 -5 -2 -5 17 0 19 2 27 5 18 2 -10 2 -26 0 -35z m-2416 0 c-12 -20 -14 -14
-5 12 4 9 9 14 11 11 3 -2 0 -13 -6 -23z m103 -57 c50 -66 169 -312 160 -328
-25 -44 -71 -91 -100 -103 -39 -16 -41 -27 -16 -75 11 -19 17 -42 14 -50 -9
-27 -55 -81 -62 -73 -4 4 -37 95 -74 201 l-68 193 19 117 c11 64 27 134 36
155 14 33 19 36 34 26 11 -6 36 -34 57 -63z m1939 47 c-7 -2 -21 -2 -30 0 -10
3 -4 5 12 5 17 0 24 -2 18 -5z m-812 -20 c13 -16 12 -17 -3 -4 -10 7 -18 15
-18 17 0 8 8 3 21 -13z m1069 7 c0 -5 -5 -10 -11 -10 -5 0 -7 5 -4 10 3 6 8
10 11 10 2 0 4 -4 4 -10z m-250 -12 c0 -2 -42 -46 -93 -98 -144 -150 -201
-264 -201 -410 -1 -41 5 -159 13 -261 13 -183 12 -188 -8 -234 -21 -47 -126
-185 -141 -185 -4 0 1 44 11 98 30 155 35 332 14 427 -19 89 -23 98 -35 90 -4
-3 1 -44 12 -92 27 -123 21 -154 -56 -307 -38 -75 -66 -144 -66 -161 0 -45
-15 -63 -37 -47 -10 7 -26 15 -35 18 -21 7 -22 20 -8 117 19 136 19 137 6 137
-16 0 -36 -64 -36 -116 -1 -60 -23 -130 -50 -159 -31 -34 -40 -32 -40 9 0 42
-14 53 -47 35 -22 -12 -27 -11 -39 6 -19 26 -18 58 5 97 11 18 34 74 51 123
79 225 217 522 285 615 51 69 185 191 247 225 69 38 175 75 216 75 17 0 32 -1
32 -2z m242 -20 c45 -13 88 -59 88 -93 0 -21 -5 -23 -72 -27 -40 -3 -76 -3
-80 -1 -5 2 -8 33 -8 69 0 72 2 73 72 52z m-207 -15 c-4 -10 -10 -49 -12 -86
l-6 -68 -91 -46 c-50 -25 -105 -56 -123 -69 -43 -32 -46 -30 -21 14 39 66 104
146 172 210 67 62 94 77 81 45z m-2118 -35 c-3 -8 -6 -5 -6 6 -1 11 2 17 5 13
3 -3 4 -12 1 -19z m2440 -30 c-2 -13 -4 -5 -4 17 -1 22 1 32 4 23 2 -10 2 -28
0 -40z m-677 8 c0 -2 -8 -10 -17 -17 -16 -13 -17 -12 -4 4 13 16 21 21 21 13z
m-1773 -38 c-3 -7 -5 -2 -5 12 0 14 2 19 5 13 2 -7 2 -19 0 -25z m1723 -1 c0
-1 -28 -29 -62 -62 l-63 -60 60 63 c55 58 65 67 65 59z m-359 -44 c13 -16 12
-17 -3 -4 -10 7 -18 15 -18 17 0 8 8 3 21 -13z m-1373 -28 c-3 -3 -9 2 -12 12
-6 14 -5 15 5 6 7 -7 10 -15 7 -18z m2432 -1 c13 -33 13 -34 -5 -34 -24 0 -17
-18 7 -22 28 -4 36 -35 13 -51 -33 -25 -27 -76 20 -177 25 -53 45 -103 45
-112 0 -9 -18 -22 -44 -32 -23 -9 -74 -37 -111 -62 -37 -25 -71 -42 -75 -37
-52 56 -309 406 -304 414 3 6 50 31 103 56 91 42 173 67 251 76 83 9 90 8 100
-19z m-1311 -32 c5 -18 8 -32 6 -32 -6 0 -35 62 -35 74 0 19 20 -9 29 -42z
m332 -29 c13 -16 12 -17 -3 -4 -10 7 -18 15 -18 17 0 8 8 3 21 -13z m-1521
-70 c-11 -17 -11 -17 -6 0 3 10 6 24 7 30 0 9 2 9 5 0 3 -7 0 -20 -6 -30z
m1560 7 c6 -11 8 -20 6 -20 -3 0 -10 9 -16 20 -6 11 -8 20 -6 20 3 0 10 -9 16
-20z m-358 4 l67 -7 -19 -50 c-20 -51 -20 -64 -2 -53 14 8 43 96 36 107 -3 5
11 9 30 9 19 0 37 -4 41 -10 3 -5 -6 -33 -21 -61 -19 -38 -25 -62 -21 -86 3
-18 3 -33 1 -33 -3 0 -25 14 -49 31 -32 23 -54 31 -91 32 -46 2 -49 1 -52 -25
-3 -23 -8 -28 -31 -28 -15 0 -33 -6 -39 -12 -10 -10 -17 -10 -33 0 -11 7 -29
10 -39 7 -45 -14 -87 36 -69 82 34 91 105 114 291 97z m949 -226 c85 -110 158
-207 162 -215 5 -8 -3 -29 -22 -56 -16 -24 -35 -58 -43 -76 l-13 -32 -120 109
c-66 61 -124 108 -128 105 -4 -3 58 -72 138 -154 l145 -150 -16 -29 c-26 -43
-115 -145 -128 -145 -21 0 -65 -36 -60 -49 6 -16 -52 -69 -106 -96 -95 -48
-216 -45 -314 8 -59 32 -160 127 -153 144 6 19 48 11 73 -13 18 -17 26 -19 42
-10 22 12 27 23 37 86 3 22 30 85 60 140 61 113 60 118 23 -103 -27 -162 -19
-172 62 -82 32 35 73 89 92 119 l33 56 -2 140 c-1 77 -7 186 -14 243 -6 57 -8
118 -5 136 6 31 78 126 95 126 5 0 77 -91 162 -202z m-1984 -211 c78 -221 143
-408 145 -416 3 -12 -125 -121 -143 -121 -7 0 -107 228 -153 351 -35 93 -58
235 -60 359 -1 96 1 110 28 168 16 34 31 62 35 62 3 0 70 -181 148 -403z
m1010 297 c-3 -3 -12 -4 -19 -1 -8 3 -5 6 6 6 11 1 17 -2 13 -5z m-862 -34
c10 -11 16 -20 13 -20 -3 0 -13 9 -23 20 -10 11 -16 20 -13 20 3 0 13 -9 23
-20z m970 -90 c27 -27 47 -50 44 -50 -3 0 -27 23 -54 50 -27 28 -47 50 -44 50
3 0 27 -22 54 -50z m228 43 c-7 -2 -19 -2 -25 0 -7 3 -2 5 12 5 14 0 19 -2 13
-5z m-325 -38 c-3 -3 -9 2 -12 12 -6 14 -5 15 5 6 7 -7 10 -15 7 -18z m-799
-38 c-2 -3 -15 10 -28 27 l-24 31 28 -27 c16 -15 27 -29 24 -31z m2210 -19
c-2 -2 -39 -20 -82 -42 -97 -48 -183 -130 -222 -212 -16 -32 -30 -53 -33 -46
-9 28 50 122 111 177 57 52 213 142 225 130 3 -3 3 -6 1 -7z m-2662 -45 c-3
-10 -5 -4 -5 12 0 17 2 24 5 18 2 -7 2 -21 0 -30z m413 34 c0 -2 -15 -16 -32
-33 l-33 -29 29 33 c28 30 36 37 36 29z m820 -1 c0 -3 -4 -8 -10 -11 -5 -3
-10 -1 -10 4 0 6 5 11 10 11 6 0 10 -2 10 -4z m195 -56 c33 -33 57 -60 54 -60
-2 0 -31 27 -64 60 -33 33 -57 60 -54 60 2 0 31 -27 64 -60z m-1122 25 c-3 -9
-8 -14 -10 -11 -3 3 -2 9 2 15 9 16 15 13 8 -4z m2412 -62 c25 -51 38 -94 39
-123 1 -39 -3 -48 -34 -77 -19 -18 -38 -33 -41 -33 -4 0 -3 15 1 34 13 59 -23
88 -54 44 -19 -27 -21 -69 -4 -86 9 -9 3 -12 -29 -12 -35 0 -46 6 -82 45 -34
37 -40 48 -31 64 15 29 12 62 -6 83 -16 17 -15 19 11 40 38 32 157 98 176 98
11 0 30 -27 54 -77z m-2159 28 c177 -40 272 -86 394 -189 34 -29 34 -31 18
-49 -17 -19 -19 -18 -67 28 -26 25 -79 64 -117 85 -82 46 -265 110 -340 120
-30 3 -54 9 -54 13 0 12 23 31 31 26 4 -3 65 -18 135 -34z m849 -11 c27 -27
47 -50 44 -50 -3 0 -27 23 -54 50 -27 28 -47 50 -44 50 3 0 27 -22 54 -50z
m-797 -61 c173 -61 290 -138 313 -206 18 -56 5 -235 -22 -290 -24 -50 -50 -66
-143 -87 -36 -9 -85 -25 -108 -37 -45 -23 -118 -50 -118 -44 0 2 9 24 20 50
27 63 25 74 -11 89 -30 13 -36 25 -111 237 -43 123 -85 241 -93 261 -14 36
-14 38 11 61 26 24 27 24 100 10 41 -8 114 -28 162 -44z m-601 19 c-3 -7 -5
-2 -5 12 0 14 2 19 5 13 2 -7 2 -19 0 -25z m1353 -41 c11 -5 9 -6 -4 -4 -11 1
-21 9 -23 17 -3 10 -2 11 4 4 4 -6 15 -14 23 -17z m-1343 -9 c-3 -8 -6 -5 -6
6 -1 11 2 17 5 13 3 -3 4 -12 1 -19z m2451 -31 c3 -22 -1 -27 -17 -27 -15 0
-21 6 -21 23 0 46 33 49 38 4z m-1378 -22 c-24 -25 -46 -45 -49 -45 -3 0 15
20 39 45 24 25 46 45 49 45 3 0 -15 -20 -39 -45z m190 41 c0 -2 -8 -10 -17
-17 -16 -13 -17 -12 -4 4 13 16 21 21 21 13z m163 -19 c4 3 7 4 7 0 0 -17 -20
-14 -36 6 -19 22 -19 22 2 4 11 -9 24 -14 27 -10z m-55 -3 c26 -18 28 -30 7
-38 -10 -3 -20 5 -30 24 -17 33 -10 38 23 14z m-1361 -16 c-3 -8 -6 -5 -6 6
-1 11 2 17 5 13 3 -3 4 -12 1 -19z m1301 -15 c10 -21 17 -51 16 -66 -2 -20 1
-27 10 -24 7 3 18 -4 25 -15 10 -16 9 -24 -4 -44 -39 -60 -125 0 -125 88 0 34
32 98 50 98 5 0 18 -17 28 -37z m1082 22 c0 -16 -53 -118 -57 -108 -5 15 36
113 48 113 5 0 9 -2 9 -5z m387 -27 c-3 -8 -6 -5 -6 6 -1 11 2 17 5 13 3 -3 4
-12 1 -19z m-1570 -75 c-3 -10 -5 -2 -5 17 0 19 2 27 5 18 2 -10 2 -26 0 -35z
m1223 17 c0 -14 7 -20 23 -20 13 0 34 -11 46 -24 13 -14 33 -26 45 -28 17 -3
13 -8 -25 -31 -25 -15 -50 -27 -56 -27 -5 0 -29 13 -51 30 l-42 30 22 45 c23
48 38 58 38 25z m-1226 -151 c-3 -5 -20 -9 -39 -9 -27 0 -47 13 -113 73 -43
39 -77 77 -75 84 3 7 48 -17 119 -64 62 -42 111 -80 108 -84z m1536 158 c0 -2
-12 -14 -27 -28 l-28 -24 24 28 c23 25 31 32 31 24z m-1702 -111 c23 -22 42
-43 42 -47 0 -3 -14 -9 -32 -13 -28 -6 -37 -1 -75 36 -44 43 -52 65 -31 86 13
13 21 8 96 -62z m142 20 c-7 -7 -13 -7 -20 0 -6 6 -3 10 10 10 13 0 16 -4 10
-10z m-1044 -167 c56 -132 75 -165 101 -183 20 -13 41 -42 57 -78 16 -39 32
-61 48 -67 14 -5 33 -22 43 -38 36 -55 114 -140 199 -213 47 -41 86 -77 86
-81 0 -11 -159 -34 -235 -33 -88 0 -150 16 -164 42 -5 9 -12 49 -16 87 -15
158 -47 222 -178 363 -138 148 -249 293 -235 307 5 5 190 53 209 54 10 1 36
-48 85 -160z m-749 135 c-3 -3 -12 -4 -19 -1 -8 3 -5 6 6 6 11 1 17 -2 13 -5z
m116 -1 c-7 -2 -19 -2 -25 0 -7 3 -2 5 12 5 14 0 19 -2 13 -5z m357 3 c0 -2
-9 -6 -20 -9 -11 -3 -18 -1 -14 4 5 9 34 13 34 5z m-262 -13 c-10 -2 -26 -2
-35 0 -10 3 -2 5 17 5 19 0 27 -2 18 -5z m11 -24 c64 -6 136 -8 161 -5 44 6
46 5 66 -32 12 -20 42 -64 67 -97 l44 -60 12 -235 c11 -229 31 -424 52 -505
19 -78 31 -96 81 -124 l48 -28 -82 -54 c-86 -57 -88 -59 -208 -246 -84 -132
-134 -171 -308 -238 -355 -136 -593 -251 -636 -309 -29 -38 -43 -237 -26 -365
7 -53 14 -154 17 -226 l4 -130 -31 -48 -30 -48 -63 49 c-69 54 -127 131 -127
168 0 13 12 48 27 78 l27 55 -17 54 c-22 68 -21 89 2 135 23 46 41 128 41 188
0 31 -9 61 -31 100 -24 42 -30 62 -25 86 9 48 91 153 208 270 59 59 110 119
114 133 12 48 -2 111 -39 171 -50 83 -62 151 -46 265 12 82 11 112 -10 300
-30 266 -29 268 109 415 52 55 113 123 136 150 29 34 66 62 123 93 104 55 126
61 180 56 24 -3 96 -10 160 -16z m134 14 c-13 -2 -33 -2 -45 0 -13 2 -3 4 22
4 25 0 35 -2 23 -4z m1566 -4 c-17 -11 -56 -12 -62 -1 -3 4 13 8 36 9 27 1 36
-2 26 -8z m1116 -288 c64 -228 75 -276 63 -286 -7 -8 -44 -29 -83 -48 -237
-116 -550 -153 -790 -92 -33 8 -103 36 -155 62 l-95 48 -9 253 c-4 142 -4 257
0 262 5 4 26 10 46 13 35 5 37 4 40 -26 2 -24 8 -33 25 -35 12 -2 55 -37 96
-78 104 -103 161 -129 287 -129 112 0 152 15 244 90 46 37 60 44 67 34 7 -11
15 -8 34 14 13 15 22 34 19 42 -8 19 117 180 127 163 3 -7 41 -136 84 -287z
m35 274 c0 -7 -63 -45 -75 -45 -5 0 8 11 30 25 44 27 45 27 45 20z m-1125
-298 c0 -160 -3 -301 -8 -313 -6 -18 -64 -54 -87 -54 -11 0 -20 20 -101 225
-76 191 -88 216 -154 303 -65 84 -68 102 -22 102 55 0 229 12 292 20 33 4 65
8 70 9 6 1 10 -102 10 -292z m894 223 c-31 -38 -39 -46 -39 -35 0 6 61 75 67
75 2 0 -11 -18 -28 -40z m184 13 c-7 -2 -13 -12 -13 -20 0 -9 -3 -14 -6 -10
-10 10 4 37 18 36 10 0 10 -2 1 -6z m-3243 -6 c0 -2 -12 -14 -27 -28 l-28 -24
24 28 c23 25 31 32 31 24z m1226 -69 c24 -47 65 -88 88 -88 46 0 50 -14 21
-78 -18 -40 -34 -62 -48 -66 -12 -3 -44 -12 -70 -21 l-48 -14 -28 62 c-20 42
-38 68 -60 80 -17 10 -31 22 -31 26 0 14 133 124 157 130 1 1 10 -14 19 -31z
m587 -33 c38 -50 70 -116 144 -301 l95 -237 5 -126 c4 -92 1 -157 -12 -241
-22 -150 -32 -489 -16 -570 14 -71 0 -130 -31 -130 -10 0 -28 -10 -39 -21 -18
-18 -30 -21 -75 -17 -30 3 -56 7 -59 10 -6 6 -15 77 -50 415 -26 247 -43 322
-87 385 -10 15 -28 53 -38 85 -31 90 -38 99 -145 191 -131 114 -223 206 -263
264 l-32 47 108 35 c60 18 128 44 151 55 23 12 72 29 110 37 37 9 82 24 98 34
32 19 73 91 73 128 0 12 3 22 8 22 4 0 29 -29 55 -65z m1199 3 c-17 -17 -47
14 -38 38 6 16 8 16 29 -4 17 -17 19 -24 9 -34z m-517 -74 c133 -78 306 -63
418 36 21 18 40 30 43 27 9 -8 -96 -88 -146 -111 -34 -16 -65 -21 -130 -21
-76 0 -93 4 -150 32 -40 20 -86 54 -120 89 l-55 58 50 -43 c28 -24 68 -54 90
-67z m-2585 63 c0 -1 -39 -41 -87 -87 l-88 -85 85 88 c79 81 90 92 90 84z
m933 -84 l34 -36 7 -156 c13 -299 38 -449 80 -487 38 -34 242 -64 446 -67 102
-2 135 2 177 17 52 20 53 20 68 0 9 -10 25 -39 36 -63 16 -35 17 -46 7 -53 -7
-4 -130 -7 -273 -5 -226 3 -272 7 -350 26 -100 24 -158 53 -187 92 -35 47 -64
277 -83 657 -3 61 -3 112 0 112 2 0 20 -17 38 -37z m132 -254 c8 -139 28 -277
44 -307 28 -53 172 -86 344 -80 95 4 121 9 171 31 33 15 63 24 66 20 9 -10 30
-72 30 -89 0 -18 -91 -46 -158 -49 -139 -6 -445 32 -489 61 -12 7 -27 31 -33
51 -15 55 -38 267 -45 423 l-6 135 34 -36 c34 -36 34 -36 42 -160z m-1242 146
c-3 -9 -8 -14 -10 -11 -3 3 -2 9 2 15 9 16 15 13 8 -4z m-33 -68 c0 -2 -10
-12 -22 -23 l-23 -19 19 23 c18 21 26 27 26 19z m1326 -53 c15 -35 28 -92 36
-157 9 -81 16 -106 33 -123 47 -47 195 -55 359 -20 71 15 90 12 116 -18 11
-14 5 -20 -46 -42 -72 -32 -191 -42 -313 -25 -113 15 -166 39 -179 82 -19 59
-50 359 -37 359 3 0 17 -25 31 -56z m-1306 -504 c-16 -119 -3 -190 46 -273 37
-60 50 -110 40 -150 -3 -14 -62 -82 -130 -151 l-124 -126 -12 36 c-21 62 -7
166 39 298 22 66 41 126 41 134 0 8 -13 29 -30 48 -52 60 -51 85 10 258 32 89
32 91 14 192 -6 34 26 166 53 217 17 32 17 30 41 -178 22 -190 23 -219 12
-305z m3627 478 c-3 -8 -6 -5 -6 6 -1 11 2 17 5 13 3 -3 4 -12 1 -19z m-2 -68
c-12 -19 -131 -79 -218 -109 -228 -80 -478 -97 -678 -47 -65 16 -249 101 -249
114 0 4 39 -11 87 -35 129 -63 238 -86 408 -86 211 -1 419 47 570 132 73 41
90 48 80 31z m32 -22 c-3 -7 -5 -2 -5 12 0 14 2 19 5 13 2 -7 2 -19 0 -25z
m-22 -20 c11 -37 14 -207 5 -295 -15 -149 -27 -178 -124 -307 -100 -134 -212
-248 -296 -304 -61 -41 -146 -79 -156 -70 -3 3 4 41 15 84 27 111 35 164 23
164 -6 0 -13 -15 -17 -32 -18 -96 -50 -217 -65 -248 -10 -19 -25 -59 -35 -89
-10 -30 -45 -95 -78 -144 l-60 -89 26 -82 c15 -45 27 -99 27 -119 0 -37 0 -37
-42 -37 -24 0 -94 -3 -155 -7 -83 -4 -113 -3 -113 5 0 7 4 12 9 12 21 0 251
103 251 113 0 6 -14 26 -32 44 -26 27 -40 33 -74 33 -36 0 -49 -7 -93 -46 -50
-45 -51 -45 -51 -19 0 14 5 46 11 71 10 37 9 56 -6 111 l-18 66 29 24 c16 12
32 23 37 23 4 0 7 20 7 44 0 48 -24 76 -64 76 -17 0 -18 5 -12 57 4 31 19 87
35 125 16 37 25 71 20 74 -19 11 -79 -159 -79 -227 0 -31 -5 -38 -35 -52 -20
-9 -40 -17 -45 -17 -25 0 -70 287 -70 451 l0 127 37 7 c78 14 77 13 69 149 -3
66 -12 158 -19 204 -7 45 -12 82 -11 82 1 0 40 -18 86 -40 100 -48 171 -67
301 -81 216 -24 530 40 697 142 52 32 59 34 65 17z m-1155 -160 c11 -82 20
-177 20 -212 l0 -65 -37 -10 c-21 -6 -54 -11 -73 -11 l-35 0 0 198 0 199 42
17 c23 10 45 25 48 34 10 23 12 16 35 -150z m1187 85 c-3 -10 -5 -2 -5 17 0
19 2 27 5 18 2 -10 2 -26 0 -35z m-3800 -40 c-3 -10 -5 -2 -5 17 0 19 2 27 5
18 2 -10 2 -26 0 -35z m20 -80 c-3 -10 -5 -4 -5 12 0 17 2 24 5 18 2 -7 2 -21
0 -30z m3780 -115 c-2 -13 -4 -5 -4 17 -1 22 1 32 4 23 2 -10 2 -28 0 -40z
m221 -5 c-10 -2 -26 -2 -35 0 -10 3 -2 5 17 5 19 0 27 -2 18 -5z m79 1 c-3 -3
-12 -4 -19 -1 -8 3 -5 6 6 6 11 1 17 -2 13 -5z m-189 -11 c-10 -2 -28 -2 -40
0 -13 2 -5 4 17 4 22 1 32 -1 23 -4z m198 -21 c26 -17 47 -84 74 -240 16 -92
39 -198 51 -237 24 -80 85 -205 130 -272 17 -24 35 -60 41 -80 11 -41 -1 -59
-67 -98 -55 -32 -95 -80 -95 -113 0 -32 -63 -162 -90 -187 -19 -17 -21 -17
-41 1 -49 45 -64 122 -32 171 17 25 16 26 -12 49 l-30 24 47 40 c65 56 91 115
92 204 0 81 -11 108 -62 150 -19 17 -48 50 -63 75 -25 39 -29 55 -29 118 0 88
-17 113 -79 113 -33 0 -46 -7 -87 -48 -52 -52 -232 -159 -287 -172 -18 -4 -47
-5 -65 -2 l-31 4 69 79 c75 85 167 205 202 266 13 20 27 62 33 93 l11 55 75 6
c116 9 233 9 245 1z m71 -84 c-3 -8 -6 -5 -6 6 -1 11 2 17 5 13 3 -3 4 -12 1
-19z m-2595 -68 l38 0 -6 -118 c-8 -141 3 -191 77 -331 27 -52 47 -96 45 -98
-6 -7 -87 41 -178 104 -43 29 -84 53 -91 53 -15 0 -109 -95 -146 -148 -29 -41
-170 -110 -301 -147 -176 -48 -235 -88 -228 -152 2 -22 29 -49 125 -128 67
-55 122 -104 122 -108 1 -5 -38 -8 -86 -7 -49 1 -94 1 -101 1 -9 -1 -12 -11
-10 -28 2 -23 9 -29 33 -31 17 -2 36 -9 43 -15 16 -13 203 -280 222 -317 l13
-24 -26 17 c-15 9 -44 17 -66 17 -22 0 -48 7 -60 18 -20 15 -21 22 -12 61 5
26 6 53 1 67 -5 12 -74 74 -153 137 -144 115 -199 169 -219 213 -6 13 -40 38
-82 60 -82 43 -116 70 -116 95 0 25 78 172 97 182 8 5 98 42 199 83 101 40
198 81 216 90 53 28 124 101 179 187 29 45 67 105 84 133 24 36 57 67 121 110
l89 61 70 -18 c38 -10 87 -19 107 -19z m2605 18 c-3 -8 -6 -5 -6 6 -1 11 2 17
5 13 3 -3 4 -12 1 -19z m-1664 -165 c4 -143 22 -297 43 -365 3 -12 0 -18 -9
-18 -40 0 -86 393 -61 519 14 67 22 24 27 -136z m-353 -167 c16 -158 30 -289
30 -292 0 -2 -18 -4 -40 -4 -38 0 -42 3 -79 59 -84 131 -132 362 -99 486 l13
50 65 5 c42 3 68 1 72 -6 4 -6 21 -140 38 -298z m-504 277 c-13 -72 -17 -175
-7 -229 6 -36 33 -104 68 -173 64 -127 72 -145 48 -116 -27 34 -112 208 -129
264 -25 86 -17 281 11 281 11 0 13 -8 9 -27z m255 2 c-10 -61 -11 -204 -1
-262 14 -81 59 -202 100 -266 27 -43 28 -47 10 -47 -47 0 -177 23 -196 36 -12
7 -49 68 -83 136 -81 161 -88 200 -65 386 l5 44 117 -4 c110 -3 117 -5 113
-23z m38 -36 c-14 -64 -7 -201 15 -284 9 -33 38 -104 65 -158 32 -64 42 -92
29 -80 -25 22 -91 160 -115 238 -22 75 -25 287 -5 323 20 35 24 21 11 -39z
m2238 29 c-3 -8 -6 -5 -6 6 -1 11 2 17 5 13 3 -3 4 -12 1 -19z m-1698 -397
c12 -58 24 -108 27 -113 3 -4 -8 -8 -24 -8 -19 0 -33 6 -37 18 -12 28 -18 293
-9 399 l8 98 7 -145 c4 -85 16 -188 28 -249z m1708 337 c-3 -8 -6 -5 -6 6 -1
11 2 17 5 13 3 -3 4 -12 1 -19z m10 -60 c-3 -8 -6 -5 -6 6 -1 11 2 17 5 13 3
-3 4 -12 1 -19z m-220 -130 c-2 -13 -4 -5 -4 17 -1 22 1 32 4 23 2 -10 2 -28
0 -40z m-227 17 c0 -2 -10 -9 -22 -15 -22 -11 -22 -10 -4 4 21 17 26 19 26 11z
m-310 -92 c-8 -3 -22 -11 -30 -17 -13 -10 -13 -9 -1 7 7 9 21 17 30 16 13 0
14 -1 1 -6z m47 -9 c-3 -3 -12 -4 -19 -1 -8 3 -5 6 6 6 11 1 17 -2 13 -5z
m-3590 -106 c-2 -18 -4 -6 -4 27 0 33 2 48 4 33 2 -15 2 -42 0 -60z m1568 62
c3 -6 -1 -7 -9 -4 -18 7 -21 14 -7 14 6 0 13 -4 16 -10z m2600 -20 c10 -11 16
-20 13 -20 -3 0 -13 9 -23 20 -10 11 -16 20 -13 20 3 0 13 -9 23 -20z m-2564
-7 c13 -16 12 -17 -3 -4 -10 7 -18 15 -18 17 0 8 8 3 21 -13z m-111 -26 c0 -2
-10 -12 -22 -23 l-23 -19 19 23 c18 21 26 27 26 19z m1341 -77 c12 -7 19 -21
19 -39 0 -22 -12 -38 -61 -76 -33 -26 -61 -46 -63 -44 -3 6 -36 115 -36 121 0
3 8 8 18 11 9 3 35 13 57 21 49 19 43 18 66 6z m-150 -91 l27 -84 -31 -17
c-18 -9 -35 -17 -39 -18 -5 0 -8 48 -8 106 0 130 13 134 51 13z m-71 -34 l0
-95 -32 -14 c-19 -7 -37 -10 -42 -5 -14 13 -11 122 4 169 11 34 17 40 42 40
l28 0 0 -95z m-633 59 c-3 -3 -12 -4 -19 -1 -8 3 -5 6 6 6 11 1 17 -2 13 -5z
m66 -11 c-7 -2 -19 -2 -25 0 -7 3 -2 5 12 5 14 0 19 -2 13 -5z m2455 -18 c-3
-3 -9 2 -12 12 -6 14 -5 15 5 6 7 -7 10 -15 7 -18z m-2260 8 c-27 -2 -69 -2
-95 0 -27 2 -5 3 47 3 52 0 74 -1 48 -3z m1989 -15 c-3 -8 -6 -5 -6 6 -1 11 2
17 5 13 3 -3 4 -12 1 -19z m-1026 -11 c-10 -9 -11 -8 -5 6 3 10 9 15 12 12 3
-3 0 -11 -7 -18z m-914 -29 c-3 -7 -5 -2 -5 12 0 14 2 19 5 13 2 -7 2 -19 0
-25z m221 -12 c-2 -13 -10 -21 -23 -21 -23 0 -33 34 -14 45 20 13 40 -1 37
-24z m-62 -27 c9 -10 25 -19 35 -19 10 0 21 -12 28 -30 9 -29 8 -32 -27 -54
-101 -63 -137 -69 -159 -26 -12 23 -19 141 -9 151 2 2 29 2 59 1 39 -3 61 -10
73 -23z m-213 14 c-7 -2 -19 -2 -25 0 -7 3 -2 5 12 5 14 0 19 -2 13 -5z m1967
-6 c0 -2 -15 -16 -32 -33 l-33 -29 29 33 c28 30 36 37 36 29z m291 -30 l-24
-22 19 27 c10 14 21 24 23 22 3 -3 -6 -15 -18 -27z m-2330 -19 c-3 -21 -6 -26
-9 -15 -3 17 3 47 11 47 2 0 1 -15 -2 -32z m87 23 c18 -11 11 -51 -10 -65 -35
-22 -74 27 -48 59 14 17 38 19 58 6z m-1938 -66 c-5 -27 -9 -81 -9 -120 -1
-85 -18 -194 -33 -212 -9 -11 -16 -9 -35 9 -24 23 -25 25 -18 143 8 149 17
179 63 210 20 13 37 23 38 22 1 -1 -2 -24 -6 -52z m620 41 c0 -2 -8 -10 -17
-17 -16 -13 -17 -12 -4 4 13 16 21 21 21 13z m-593 -38 c-3 -8 -6 -5 -6 6 -1
11 2 17 5 13 3 -3 4 -12 1 -19z m140 -10 c-3 -7 -5 -2 -5 12 0 14 2 19 5 13 2
-7 2 -19 0 -25z m2330 -5 c-3 -10 -5 -4 -5 12 0 17 2 24 5 18 2 -7 2 -21 0
-30z m1307 -33 c10 -13 9 -13 -6 -1 -10 7 -18 21 -17 30 0 13 1 14 6 1 3 -8
11 -22 17 -30z m-3604 -5 c13 -14 21 -25 18 -25 -2 0 -15 11 -28 25 -13 14
-21 25 -18 25 2 0 15 -11 28 -25z m1723 18 c-7 -2 -19 -2 -25 0 -7 3 -2 5 12
5 14 0 19 -2 13 -5z m-1906 -55 c-3 -7 -5 -2 -5 12 0 14 2 19 5 13 2 -7 2 -19
0 -25z m614 15 c13 -16 12 -17 -3 -4 -17 13 -22 21 -14 21 2 0 10 -8 17 -17z
m3406 -30 c-3 -10 -5 -2 -5 17 0 19 2 27 5 18 2 -10 2 -26 0 -35z m-357 34 c0
-2 -15 -16 -32 -33 l-33 -29 29 33 c28 30 36 37 36 29z m105 -33 c12 -9 20
-29 22 -55 3 -46 15 -73 51 -112 l26 -27 -59 -60 c-71 -72 -89 -79 -119 -51
-29 27 -44 78 -56 183 -9 81 -9 83 17 110 30 32 84 38 118 12z m-4068 -26 c-3
-7 -5 -2 -5 12 0 14 2 19 5 13 2 -7 2 -19 0 -25z m968 12 c10 -11 16 -20 13
-20 -3 0 -13 9 -23 20 -10 11 -16 20 -13 20 3 0 13 -9 23 -20z m1792 -17 c-3
-10 -5 -4 -5 12 0 17 2 24 5 18 2 -7 2 -21 0 -30z m-1736 -30 c13 -16 12 -17
-3 -4 -10 7 -18 15 -18 17 0 8 8 3 21 -13z m1727 -58 l3 -45 -78 2 -78 2 74 3
73 4 -5 34 c-4 26 -1 45 7 45 1 0 2 -20 4 -45z m-1673 15 c10 -11 16 -20 13
-20 -3 0 -13 9 -23 20 -10 11 -16 20 -13 20 3 0 13 -9 23 -20z m2032 -27 c-3
-10 -5 -2 -5 17 0 19 2 27 5 18 2 -10 2 -26 0 -35z m800 -10 c-3 -10 -5 -2 -5
17 0 19 2 27 5 18 2 -10 2 -26 0 -35z m-3172 -31 c-3 -3 -6 -3 -7 -1 -2 2 -14
18 -28 34 l-25 30 32 -29 c18 -16 31 -32 28 -34z m-448 26 c-3 -8 -6 -5 -6 6
-1 11 2 17 5 13 3 -3 4 -12 1 -19z m862 -17 c-6 -2 -18 4 -27 13 -15 15 -15
15 10 4 15 -7 23 -15 17 -17z m1054 22 c-23 -2 -64 -2 -90 0 -26 2 -7 3 42 3
50 0 71 -1 48 -3z m-170 -10 c-7 -2 -19 -2 -25 0 -7 3 -2 5 12 5 14 0 19 -2
13 -5z m264 1 c-3 -3 -12 -4 -19 -1 -8 3 -5 6 6 6 11 1 17 -2 13 -5z m-1722
-11 c-121 -7 -243 -7 -238 0 2 4 68 6 146 5 78 -1 120 -3 92 -5z m1138 0 c3
-5 -64 -7 -149 -5 l-154 3 -1 -23 c0 -13 -3 -17 -6 -10 -3 7 -2 19 1 27 4 12
33 15 155 15 82 0 152 -3 154 -7z m264 1 c-3 -3 -12 -4 -19 -1 -8 3 -5 6 6 6
11 1 17 -2 13 -5z m496 -9 c-3 -9 -8 -14 -10 -11 -3 3 -2 9 2 15 9 16 15 13 8
-4z m729 -14 c-2 -19 1 -31 10 -34 9 -3 9 -4 -2 -3 -16 1 -25 29 -16 52 9 23
13 16 8 -15z m376 22 c-49 -2 -127 -2 -175 0 -49 1 -9 3 87 3 96 0 136 -2 88
-3z m280 -18 c-3 -3 -9 2 -12 12 -6 14 -5 15 5 6 7 -7 10 -15 7 -18z m-731
-17 c-3 -8 -6 -5 -6 6 -1 11 2 17 5 13 3 -3 4 -12 1 -19z m-2390 -13 c-4 -8
-14 -14 -24 -14 -17 1 -17 2 0 6 9 2 17 12 17 20 0 9 3 14 6 10 4 -3 4 -13 1
-22z m495 -8 c-7 -8 -10 -17 -7 -21 3 -3 0 -2 -6 3 -8 7 -8 13 2 24 17 18 26
13 11 -6z m2625 -9 c-3 -7 -5 -2 -5 12 0 14 2 19 5 13 2 -7 2 -19 0 -25z
m-3920 -10 c-3 -7 -5 -2 -5 12 0 14 2 19 5 13 2 -7 2 -19 0 -25z m864 15 c13
-16 12 -17 -3 -4 -10 7 -18 15 -18 17 0 8 8 3 21 -13z m1332 10 c-13 -2 -33
-2 -45 0 -13 2 -3 4 22 4 25 0 35 -2 23 -4z m-1757 -21 c-21 -2 -42 0 -47 5
-4 4 13 6 39 3 l47 -5 -39 -3z m2011 -14 c-3 -7 -5 -2 -5 12 0 14 2 19 5 13 2
-7 2 -19 0 -25z m1753 -13 c-24 -25 -46 -45 -49 -45 -3 0 15 20 39 45 24 25
46 45 49 45 3 0 -15 -20 -39 -45z m-2861 -69 c7 -13 11 -33 9 -46 -2 -19 -10
-13 -49 42 -75 104 -79 117 -22 69 28 -23 55 -52 62 -65z m184 97 c-7 -2 -19
-2 -25 0 -7 3 -2 5 12 5 14 0 19 -2 13 -5z m1522 -13 c45 -37 84 -170 50 -170
-8 0 -22 -12 -32 -27 -27 -44 -43 -53 -100 -53 l-52 0 -11 42 c-7 25 -9 68 -5
110 l7 68 -31 17 c-17 10 -31 21 -31 24 0 3 42 5 93 5 68 -1 99 -5 112 -16z
m132 -17 c-3 -10 -5 -4 -5 12 0 17 2 24 5 18 2 -7 2 -21 0 -30z m170 17 c3
-10 2 -11 -4 -4 -4 6 -15 14 -23 17 -11 5 -9 6 4 4 11 -1 21 -9 23 -17z m360
13 c-20 -2 -52 -2 -70 0 -17 2 0 4 38 4 39 0 53 -2 32 -4z m-3377 -7 c0 -2 -8
-10 -17 -17 -16 -13 -17 -12 -4 4 13 16 21 21 21 13z m363 -11 c-3 -9 -8 -14
-10 -11 -3 3 -2 9 2 15 9 16 15 13 8 -4z m1622 -5 c10 -11 16 -20 13 -20 -3 0
-13 9 -23 20 -10 11 -16 20 -13 20 3 0 13 -9 23 -20z m492 -177 c-2 -38 -3 -7
-3 67 0 74 1 105 3 68 2 -38 2 -98 0 -135z m-1896 170 c13 -16 12 -17 -3 -4
-10 7 -18 15 -18 17 0 8 8 3 21 -13z m639 9 c0 -5 -7 -17 -15 -28 -14 -18 -14
-17 -4 9 12 27 19 34 19 19z m270 5 c0 -2 -17 -19 -37 -38 l-38 -34 34 38 c33
34 41 42 41 34z m797 -59 c-2 -13 -4 -3 -4 22 0 25 2 35 4 23 2 -13 2 -33 0
-45z m920 -95 c-2 -32 -3 -8 -3 52 0 61 1 87 3 58 2 -29 2 -78 0 -110z m-1517
144 c0 -2 -15 -16 -32 -33 l-33 -29 29 33 c28 30 36 37 36 29z m1887 -79 c-2
-18 -4 -6 -4 27 0 33 2 48 4 33 2 -15 2 -42 0 -60z m-1029 26 c-3 -14 -5 -12
-10 9 -3 19 -2 25 4 19 6 -6 8 -18 6 -28z m-2381 -366 c-1 -73 -3 -14 -3 132
0 146 2 205 3 133 2 -73 2 -193 0 -265z m1153 389 c0 -2 -12 -14 -27 -28 l-28
-24 24 28 c23 25 31 32 31 24z m-973 -305 c-1 -53 -3 -7 -3 103 0 110 2 154 3
97 2 -57 2 -147 0 -200z m2680 -19 c-1 -60 -3 -11 -3 107 0 118 2 167 3 108 2
-60 2 -156 0 -215z m473 282 c0 -5 -5 -3 -10 5 -5 8 -10 20 -10 25 0 6 5 3 10
-5 5 -8 10 -19 10 -25z m-2462 0 c-3 -3 -9 2 -12 12 -6 14 -5 15 5 6 7 -7 10
-15 7 -18z m-367 -2 c13 -16 12 -17 -3 -4 -10 7 -18 15 -18 17 0 8 8 3 21 -13z
m739 -13 c-6 -11 -13 -20 -16 -20 -2 0 0 9 6 20 6 11 13 20 16 20 2 0 0 -9 -6
-20z m-1713 -12 c-3 -8 -6 -5 -6 6 -1 11 2 17 5 13 3 -3 4 -12 1 -19z m4078
12 c-3 -5 -16 -10 -28 -9 -20 1 -20 2 3 9 14 4 26 8 28 9 2 1 0 -3 -3 -9z
m-2728 -67 c-2 -16 -4 -5 -4 22 0 28 2 40 4 28 2 -13 2 -35 0 -50z m2478 49
c-3 -3 -11 0 -18 7 -9 10 -8 11 6 5 10 -3 15 -9 12 -12z m-2795 -17 c13 -14
21 -25 18 -25 -2 0 -15 11 -28 25 -13 14 -21 25 -18 25 2 0 15 -11 28 -25z
m530 21 c0 -2 -8 -10 -17 -17 -16 -13 -17 -12 -4 4 13 16 21 21 21 13z m-110
-10 c0 -2 -8 -10 -17 -17 -16 -13 -17 -12 -4 4 13 16 21 21 21 13z m943 -13
c-7 -2 -21 -2 -30 0 -10 3 -4 5 12 5 17 0 24 -2 18 -5z m-2146 -50 c-3 -10 -5
-4 -5 12 0 17 2 24 5 18 2 -7 2 -21 0 -30z m3600 -3 c1 -21 0 -21 -3 -3 -3 12
-15 24 -27 26 -18 3 -17 4 3 3 19 -1 25 -7 27 -26z m-2460 -17 c-14 -14 -19
-15 -29 -4 -11 10 -10 11 3 6 10 -4 20 -2 24 4 3 6 9 11 13 11 3 0 -1 -8 -11
-17z m280 -5 c-3 -8 -6 -5 -6 6 -1 11 2 17 5 13 3 -3 4 -12 1 -19z m210 -10
c-3 -7 -5 -2 -5 12 0 14 2 19 5 13 2 -7 2 -19 0 -25z m-1930 -35 c-3 -10 -5
-2 -5 17 0 19 2 27 5 18 2 -10 2 -26 0 -35z m3160 -15 c-2 -13 -4 -3 -4 22 0
25 2 35 4 23 2 -13 2 -33 0 -45z m-1637 38 c0 -2 -8 -10 -17 -17 -16 -13 -17
-12 -4 4 13 16 21 21 21 13z m187 -83 c-2 -16 -4 -3 -4 27 0 30 2 43 4 28 2
-16 2 -40 0 -55z m2056 70 c-7 -2 -21 -2 -30 0 -10 3 -4 5 12 5 17 0 24 -2 18
-5z m-1846 -60 c-3 -10 -5 -2 -5 17 0 19 2 27 5 18 2 -10 2 -26 0 -35z m1970
-20 c-2 -16 -4 -5 -4 22 0 28 2 40 4 28 2 -13 2 -35 0 -50z m-3590 -10 c-2
-16 -4 -5 -4 22 0 28 2 40 4 28 2 -13 2 -35 0 -50z m-357 53 c0 -2 -8 -10 -17
-17 -16 -13 -17 -12 -4 4 13 16 21 21 21 13z m1171 -13 c13 -16 12 -17 -3 -4
-10 7 -18 15 -18 17 0 8 8 3 21 -13z m-1077 -33 c14 -21 53 -61 86 -87 33 -26
60 -53 60 -59 0 -18 -74 -125 -110 -159 l-31 -29 -34 18 c-47 26 -195 164
-195 182 0 36 143 174 180 174 10 0 29 -18 44 -40z m1481 20 c10 -11 16 -20
13 -20 -3 0 -13 9 -23 20 -10 11 -16 20 -13 20 3 0 13 -9 23 -20z m17 -68 c24
-40 17 -50 -37 -54 -39 -3 -40 -2 -43 31 -2 19 -1 50 3 69 l6 34 25 -23 c14
-13 35 -39 46 -57z m-314 51 c-10 -2 -28 -2 -40 0 -13 2 -5 4 17 4 22 1 32 -1
23 -4z m1706 -1 c2 -4 -12 -6 -32 -4 -62 6 -69 10 -20 11 26 0 49 -3 52 -7z
m111 -2 c17 -7 32 -24 42 -50 13 -33 21 -40 44 -40 24 0 30 -6 40 -40 14 -47
-2 -80 -54 -106 -30 -16 -156 -36 -167 -27 -2 2 9 14 25 27 l30 24 -19 89
c-10 48 -21 98 -23 111 -5 19 -1 22 25 22 17 0 43 -5 57 -10z m630 3 c-55 -3
-92 -8 -97 -16 -5 -7 -8 -8 -8 -1 0 21 14 24 104 22 l91 -2 -90 -3z m-833
-170 c2 -44 0 -79 -4 -76 -5 2 -7 57 -6 121 2 119 5 102 10 -45z m335 120 c-3
-10 -5 -4 -5 12 0 17 2 24 5 18 2 -7 2 -21 0 -30z m-1240 5 c-3 -8 -6 -5 -6 6
-1 11 2 17 5 13 3 -3 4 -12 1 -19z m1010 -10 c-3 -8 -6 -5 -6 6 -1 11 2 17 5
13 3 -3 4 -12 1 -19z m-1660 -65 c-2 -16 -4 -3 -4 27 0 30 2 43 4 28 2 -16 2
-40 0 -55z m-1437 64 c0 -2 -10 -12 -22 -23 l-23 -19 19 23 c18 21 26 27 26
19z m1737 -49 c-3 -7 -5 -2 -5 12 0 14 2 19 5 13 2 -7 2 -19 0 -25z m373 -3
c0 -5 -5 -3 -10 5 -5 8 -10 20 -10 25 0 6 5 3 10 -5 5 -8 10 -19 10 -25z
m1906 7 c-10 -2 -22 0 -28 6 -6 6 0 7 19 4 21 -5 23 -7 9 -10z m-299 -89 c-2
-21 -4 -6 -4 32 0 39 2 55 4 38 2 -18 2 -50 0 -70z m-1808 57 c11 -24 11 -24
-3 -6 -9 11 -16 24 -16 30 0 12 5 7 19 -24z m-682 14 c-3 -3 -12 -4 -19 -1 -8
3 -5 6 6 6 11 1 17 -2 13 -5z m1570 -86 c-2 -18 -4 -4 -4 32 0 36 2 50 4 33 2
-18 2 -48 0 -65z m619 52 l2 -35 -5 34 c-4 31 -6 33 -38 29 -18 -2 -31 0 -28
5 3 4 19 7 36 5 29 -3 32 -6 33 -38z m727 33 c3 -5 -10 -8 -28 -8 -18 0 -31 3
-28 8 2 4 15 7 28 7 13 0 26 -3 28 -7z m-2876 -34 c1 -19 1 -20 -4 -4 -3 11
-10 24 -17 28 -7 6 -6 7 4 4 8 -2 16 -14 17 -28z m462 -6 c6 -21 11 -57 11
-81 l0 -42 -42 6 c-72 11 -78 17 -78 84 0 63 2 65 72 69 23 1 29 -4 37 -36z
m871 33 c0 -2 -8 -10 -17 -17 -16 -13 -17 -12 -4 4 13 16 21 21 21 13z m35
-14 c-3 -3 -11 0 -18 7 -9 10 -8 11 6 5 10 -3 15 -9 12 -12z m482 -4 c-3 -8
-6 -5 -6 6 -1 11 2 17 5 13 3 -3 4 -12 1 -19z m-2717 8 c0 -2 -8 -10 -17 -17
-16 -13 -17 -12 -4 4 13 16 21 21 21 13z m1357 -28 c-3 -8 -6 -5 -6 6 -1 11 2
17 5 13 3 -3 4 -12 1 -19z m890 -20 c-3 -7 -5 -2 -5 12 0 14 2 19 5 13 2 -7 2
-19 0 -25z m-2642 -28 c27 -27 47 -50 44 -50 -3 0 -27 23 -54 50 -27 28 -47
50 -44 50 3 0 27 -22 54 -50z m4142 18 c-3 -7 -5 -2 -5 12 0 14 2 19 5 13 2
-7 2 -19 0 -25z m-1971 -10 l29 -33 -32 29 c-31 28 -38 36 -30 36 2 0 16 -15
33 -32z m946 -10 c-6 -6 -7 0 -4 19 5 21 7 23 10 9 2 -10 0 -22 -6 -28z m906
-3 c-21 -19 -43 -35 -50 -35 -7 0 1 8 17 18 17 11 36 26 44 35 7 10 16 17 20
17 3 0 -11 -16 -31 -35z m-2052 -7 l29 -33 -32 29 c-31 28 -38 36 -30 36 2 0
16 -15 33 -32z m574 28 c0 -2 -8 -10 -17 -17 -16 -13 -17 -12 -4 4 13 16 21
21 21 13z m-1124 -52 c-3 -8 -13 -14 -21 -14 -14 0 -14 4 2 31 13 22 19 26 21
14 2 -9 1 -23 -2 -31z m1981 24 c-3 -8 -6 -5 -6 6 -1 11 2 17 5 13 3 -3 4 -12
1 -19z m-2160 -10 c-3 -8 -6 -5 -6 6 -1 11 2 17 5 13 3 -3 4 -12 1 -19z m520
-40 c-2 -13 -4 -3 -4 22 0 25 2 35 4 23 2 -13 2 -33 0 -45z m1759 16 c-3 -8
-11 -14 -18 -13 -10 0 -10 2 0 6 6 2 13 17 13 31 1 18 3 21 6 9 3 -10 2 -25
-1 -33z m-2652 10 c3 -8 2 -12 -4 -9 -6 3 -10 10 -10 16 0 14 7 11 14 -7z
m213 -10 c-3 -3 -12 -4 -19 -1 -8 3 -5 6 6 6 11 1 17 -2 13 -5z m944 -11 c13
-16 12 -17 -3 -4 -10 7 -18 15 -18 17 0 8 8 3 21 -13z m1006 11 c-3 -3 -12 -4
-19 -1 -8 3 -5 6 6 6 11 1 17 -2 13 -5z m730 0 c-3 -3 -12 -4 -19 -1 -8 3 -5
6 6 6 11 1 17 -2 13 -5z m190 0 c-3 -3 -12 -4 -19 -1 -8 3 -5 6 6 6 11 1 17
-2 13 -5z m-2960 -11 c-20 -2 -52 -2 -70 0 -17 2 0 4 38 4 39 0 53 -2 32 -4z
m341 -10 c-10 -2 -18 -12 -18 -20 0 -9 -3 -14 -6 -10 -12 11 5 37 23 36 17 -1
17 -2 1 -6z m995 0 c-7 -2 -19 -2 -25 0 -7 3 -2 5 12 5 14 0 19 -2 13 -5z m84
1 c-3 -3 -12 -4 -19 -1 -8 3 -5 6 6 6 11 1 17 -2 13 -5z m333 2 c0 -2 -9 -6
-20 -9 -11 -3 -18 -1 -14 4 5 9 34 13 34 5z m670 -36 c23 -46 26 -102 5 -120
-16 -13 -207 -4 -237 11 -16 9 -58 69 -58 84 0 4 48 6 108 5 136 -3 128 -5
141 30 5 17 12 30 15 30 3 0 15 -18 26 -40z m21 23 c13 -16 12 -17 -3 -4 -17
13 -22 21 -14 21 2 0 10 -8 17 -17z m-3340 -10 c13 -16 12 -17 -3 -4 -10 7
-18 15 -18 17 0 8 8 3 21 -13z m1119 -28 c-7 -8 -20 -15 -29 -14 -11 0 -9 3 7
9 12 5 22 17 23 27 0 11 3 13 6 5 3 -7 -1 -19 -7 -27z m-636 -1 c3 -8 2 -12
-4 -9 -6 3 -10 10 -10 16 0 14 7 11 14 -7z m384 -11 c-53 -2 -143 -2 -200 0
-57 1 -13 3 97 3 110 0 156 -2 103 -3z m455 0 c-7 -2 -21 -2 -30 0 -10 3 -4 5
12 5 17 0 24 -2 18 -5z m774 1 c-3 -3 -12 -4 -19 -1 -8 3 -5 6 6 6 11 1 17 -2
13 -5z m366 -1 c-7 -2 -21 -2 -30 0 -10 3 -4 5 12 5 17 0 24 -2 18 -5z m480 0
c-34 -2 -93 -2 -130 0 -37 2 -9 3 62 3 72 0 102 -1 68 -3z m895 0 c-65 -2
-171 -2 -235 0 -65 1 -12 3 117 3 129 0 182 -2 118 -3z m-1685 -10 c-7 -2 -19
-2 -25 0 -7 3 -2 5 12 5 14 0 19 -2 13 -5z m230 0 c-7 -2 -19 -2 -25 0 -7 3
-2 5 12 5 14 0 19 -2 13 -5z m984 -40 c-3 -10 -5 -2 -5 17 0 19 2 27 5 18 2
-10 2 -26 0 -35z m-1079 30 c-15 -2 -42 -2 -60 0 -18 2 -6 4 27 4 33 0 48 -2
33 -4z m796 -92 c-2 -3 -12 3 -22 13 -16 17 -16 18 5 5 12 -7 20 -15 17 -18z
m104 -8 c-10 -2 -28 -2 -40 0 -13 2 -5 4 17 4 22 1 32 -1 23 -4z m-2135 -80
c-13 -2 -35 -2 -50 0 -16 2 -5 4 22 4 28 0 40 -2 28 -4z m1470 0 c-29 -2 -78
-2 -110 0 -32 2 -8 3 52 3 61 0 87 -1 58 -3z m-2978 -10 c-72 -3 -112 -8 -117
-16 -5 -7 -8 -8 -8 -1 0 21 15 24 124 22 l111 -2 -110 -3z m242 -40 c-3 -10
-5 -2 -5 17 0 19 2 27 5 18 2 -10 2 -26 0 -35z m256 32 c-3 -9 -8 -14 -10 -11
-3 3 -2 9 2 15 9 16 15 13 8 -4z m205 8 c-10 -2 -28 -2 -40 0 -13 2 -5 4 17 4
22 1 32 -1 23 -4z m555 0 c-29 -2 -78 -2 -110 0 -32 2 -8 3 52 3 61 0 87 -1
58 -3z m585 0 c-21 -2 -55 -2 -75 0 -21 2 -4 4 37 4 41 0 58 -2 38 -4z m527 0
c-55 -3 -92 -8 -97 -16 -5 -8 -8 -6 -8 6 0 15 10 17 98 15 l97 -2 -90 -3z
m258 0 c-7 -2 -21 -2 -30 0 -10 3 -4 5 12 5 17 0 24 -2 18 -5z m454 1 c-3 -3
-12 -4 -19 -1 -8 3 -5 6 6 6 11 1 17 -2 13 -5z m588 -1 c-146 -7 -293 -7 -288
0 2 4 82 6 176 5 95 -1 145 -3 112 -5z m760 0 c-145 -3 -172 -6 -182 -20 -7
-9 -13 -12 -13 -7 0 30 27 34 195 32 l170 -2 -170 -3z m223 -18 c-3 -3 -9 2
-12 12 -6 14 -5 15 5 6 7 -7 10 -15 7 -18z m270 18 c-10 -2 -28 -2 -40 0 -13
2 -5 4 17 4 22 1 32 -1 23 -4z m575 0 c-7 -2 -19 -2 -25 0 -7 3 -2 5 12 5 14
0 19 -2 13 -5z m-3935 -28 c-3 -3 -9 2 -12 12 -6 14 -5 15 5 6 7 -7 10 -15 7
-18z m-691 -10 c-4 -8 -12 -15 -19 -14 -10 0 -10 2 0 6 6 2 12 12 12 21 0 8 3
13 6 9 4 -3 4 -13 1 -22z m760 -7 c-3 -7 -5 -2 -5 12 0 14 2 19 5 13 2 -7 2
-19 0 -25z m283 -3 c14 -19 14 -19 -2 -6 -10 7 -18 18 -18 24 0 6 1 8 3 6 1
-2 9 -13 17 -24z m1463 5 c3 -11 1 -18 -4 -14 -5 3 -9 12 -9 20 0 20 7 17 13
-6z m-3467 -18 c-10 -2 -22 0 -28 6 -6 6 0 7 19 4 21 -5 23 -7 9 -10z m605 0
c-7 -2 -18 1 -23 6 -8 8 -4 9 13 5 13 -4 18 -8 10 -11z m3284 8 c-3 -5 -18 -9
-33 -9 l-27 1 30 8 c17 4 31 8 33 9 2 0 0 -3 -3 -9z m-3578 -6 c-3 -3 -12 -4
-19 -1 -8 3 -5 6 6 6 11 1 17 -2 13 -5z m710 0 c-3 -3 -12 -4 -19 -1 -8 3 -5
6 6 6 11 1 17 -2 13 -5z m2026 -1 c-13 -2 -33 -2 -45 0 -13 2 -3 4 22 4 25 0
35 -2 23 -4z m1700 0 c-7 -2 -21 -2 -30 0 -10 3 -4 5 12 5 17 0 24 -2 18 -5z
m725 0 c-10 -2 -28 -2 -40 0 -13 2 -5 4 17 4 22 1 32 -1 23 -4z m-5421 -29 c2
-13 1 -15 -4 -4 -3 8 -11 19 -17 23 -7 6 -6 7 4 4 8 -2 16 -12 17 -23z m618
16 c3 -6 -1 -7 -9 -4 -18 7 -21 14 -7 14 6 0 13 -4 16 -10z m208 -5 c-3 -9 -8
-14 -10 -11 -3 3 -2 9 2 15 9 16 15 13 8 -4z m194 9 c-3 -3 -12 -4 -19 -1 -8
3 -5 6 6 6 11 1 17 -2 13 -5z m361 -1 c-27 -2 -69 -2 -95 0 -27 2 -5 3 47 3
52 0 74 -1 48 -3z m209 -25 c-3 -7 -5 -2 -5 12 0 14 2 19 5 13 2 -7 2 -19 0
-25z m806 25 c-7 -2 -21 -2 -30 0 -10 3 -4 5 12 5 17 0 24 -2 18 -5z m520 -8
c-3 -9 -8 -14 -10 -11 -3 3 -2 9 2 15 9 16 15 13 8 -4z m592 5 c3 -6 -1 -7 -9
-4 -18 7 -21 14 -7 14 6 0 13 -4 16 -10z m252 4 c-3 -3 -12 -4 -19 -1 -8 3 -5
6 6 6 11 1 17 -2 13 -5z m618 -5 c11 -16 1 -19 -13 -3 -7 8 -8 14 -3 14 5 0
13 -5 16 -11z m1215 7 c0 -2 -7 -7 -16 -10 -8 -3 -12 -2 -9 4 6 10 25 14 25 6z
m-5393 -28 c-3 -8 -6 -5 -6 6 -1 11 2 17 5 13 3 -3 4 -12 1 -19z m1268 2 c10
-11 16 -20 13 -20 -3 0 -13 9 -23 20 -10 11 -16 20 -13 20 3 0 13 -9 23 -20z
m296 3 c13 -16 12 -17 -3 -4 -10 7 -18 15 -18 17 0 8 8 3 21 -13z m944 7 c3
-6 -1 -7 -9 -4 -18 7 -21 14 -7 14 6 0 13 -4 16 -10z m360 -10 c10 -11 16 -20
13 -20 -3 0 -13 9 -23 20 -10 11 -16 20 -13 20 3 0 13 -9 23 -20z m1517 -7
c-3 -16 -7 -22 -10 -15 -4 13 4 42 11 42 2 0 2 -12 -1 -27z m-2165 -5 c-3 -8
-6 -5 -6 6 -1 11 2 17 5 13 3 -3 4 -12 1 -19z m864 5 c13 -16 12 -17 -3 -4
-10 7 -18 15 -18 17 0 8 8 3 21 -13z m-2654 -165 c-2 -35 -3 -9 -3 57 0 66 1
94 3 63 2 -32 2 -86 0 -120z m400 90 c-2 -18 -4 -6 -4 27 0 33 2 48 4 33 2
-15 2 -42 0 -60z m2490 -296 c-1 -70 -3 -12 -3 128 0 140 2 198 3 127 2 -70 2
-184 0 -255z m190 316 c-2 -13 -4 -3 -4 22 0 25 2 35 4 23 2 -13 2 -33 0 -45z
m-990 -331 c-1 -67 -3 -9 -3 128 0 138 2 192 3 122 2 -71 2 -183 0 -250z
m2333 338 c0 -5 -5 -3 -10 5 -5 8 -10 20 -10 25 0 6 5 3 10 -5 5 -8 10 -19 10
-25z m-3273 -27 c-2 -13 -4 -5 -4 17 -1 22 1 32 4 23 2 -10 2 -28 0 -40z
m1321 27 c-3 -3 -9 2 -12 12 -6 14 -5 15 5 6 7 -7 10 -15 7 -18z m1289 -292
c-1 -60 -3 -11 -3 107 0 118 2 167 3 108 2 -60 2 -156 0 -215z m-2312 267 c21
-22 37 -40 34 -40 -3 0 -23 18 -44 40 -21 22 -37 40 -34 40 3 0 23 -18 44 -40z
m452 3 c-3 -10 -5 -4 -5 12 0 17 2 24 5 18 2 -7 2 -21 0 -30z m2993 7 c-6 -11
-13 -20 -16 -20 -2 0 0 9 6 20 6 11 13 20 16 20 2 0 0 -9 -6 -20z m-3093 -243
c-1 -45 -3 -5 -3 88 0 94 2 130 3 82 2 -48 2 -125 0 -170z m-847 223 c0 -16
-6 -20 -32 -19 -31 2 -31 2 -5 6 15 2 27 11 27 19 0 8 2 14 5 14 3 0 5 -9 5
-20z m1527 -42 c-2 -13 -4 -3 -4 22 0 25 2 35 4 23 2 -13 2 -33 0 -45z m-205
-71 c2 -37 0 -67 -4 -67 -5 0 -7 44 -6 98 1 100 5 88 10 -31z m-2715 36 c-3
-10 -5 -2 -5 17 0 19 2 27 5 18 2 -10 2 -26 0 -35z m5194 20 c-12 -20 -14 -14
-5 12 4 9 9 14 11 11 3 -2 0 -13 -6 -23z m-4164 -20 c-3 -10 -5 -4 -5 12 0 17
2 24 5 18 2 -7 2 -21 0 -30z m3350 -150 c-2 -37 -3 -9 -3 62 0 72 1 102 3 68
2 -34 2 -93 0 -130z m533 152 c0 -5 -5 -3 -10 5 -5 8 -10 20 -10 25 0 6 5 3
10 -5 5 -8 10 -19 10 -25z m-4293 -162 c-2 -37 -3 -9 -3 62 0 72 1 102 3 68 2
-34 2 -93 0 -130z m1119 155 l29 -33 -32 29 c-31 28 -38 36 -30 36 2 0 16 -15
33 -32z m250 0 l29 -33 -32 29 c-31 28 -38 36 -30 36 2 0 16 -15 33 -32z m341
-150 c-2 -35 -3 -7 -3 62 0 69 1 97 3 63 2 -35 2 -91 0 -125z m-979 165 c-10
-2 -26 -2 -35 0 -10 3 -2 5 17 5 19 0 27 -2 18 -5z m3382 -44 c12 -23 20 -43
18 -45 -3 -2 -14 17 -26 41 -27 56 -20 60 8 4z m535 11 c-9 -16 -18 -30 -21
-30 -2 0 2 14 11 30 9 17 18 30 21 30 2 0 -2 -13 -11 -30z m-5448 -162 c-2
-35 -3 -7 -3 62 0 69 1 97 3 63 2 -35 2 -91 0 -125z m1540 115 c-3 -10 -5 -2
-5 17 0 19 2 27 5 18 2 -10 2 -26 0 -35z m320 -165 c-1 -40 -3 -8 -3 72 0 80
2 112 3 73 2 -40 2 -106 0 -145z m143 157 c19 -19 32 -35 29 -35 -3 0 -20 16
-39 35 -19 19 -32 35 -29 35 3 0 20 -16 39 -35z m240 10 c13 -14 21 -25 18
-25 -2 0 -15 11 -28 25 -13 14 -21 25 -18 25 2 0 15 -11 28 -25z m1947 9 c-3
-3 -12 -4 -19 -1 -8 3 -5 6 6 6 11 1 17 -2 13 -5z m-3689 -11 c-60 -2 -156 -2
-215 0 -60 1 -11 3 107 3 118 0 167 -2 108 -3z m890 0 c-16 -2 -40 -2 -55 0
-16 2 -3 4 27 4 30 0 43 -2 28 -4z m2830 -24 c-3 -8 -7 -3 -11 10 -4 17 -3 21
5 13 5 -5 8 -16 6 -23z m1088 -26 c-14 -26 -25 -45 -26 -41 0 12 43 98 48 94
2 -2 -8 -26 -22 -53z m-2323 20 c-7 -2 -19 -2 -25 0 -7 3 -2 5 12 5 14 0 19
-2 13 -5z m2176 -48 c0 -5 -6 1 -14 15 -8 14 -14 30 -14 35 0 6 6 -1 14 -15 8
-14 14 -29 14 -35z m-2849 20 c13 -14 21 -25 18 -25 -2 0 -15 11 -28 25 -13
14 -21 25 -18 25 2 0 15 -11 28 -25z m1667 9 c-3 -3 -12 -4 -19 -1 -8 3 -5 6
6 6 11 1 17 -2 13 -5z m-1877 -49 c19 -19 32 -35 29 -35 -3 0 -20 16 -39 35
-19 19 -32 35 -29 35 3 0 20 -16 39 -35z m-1612 18 c-54 -2 -142 -2 -195 0
-54 1 -10 3 97 3 107 0 151 -2 98 -3z m825 0 l-103 -4 -2 -57 -2 -57 -3 49
c-6 77 -7 76 109 74 l103 -2 -102 -3z m-696 -155 c-2 -29 -3 -6 -3 52 0 58 1
81 3 53 2 -29 2 -77 0 -105z m843 99 c0 -12 0 -11 -24 28 l-17 30 20 -24 c12
-13 21 -28 21 -34z m910 28 c13 -14 21 -25 18 -25 -2 0 -15 11 -28 25 -13 14
-21 25 -18 25 2 0 15 -11 28 -25z m829 -5 c11 -24 11 -24 -3 -6 -9 11 -16 24
-16 30 0 12 5 7 19 -24z m694 15 c-3 -9 -8 -14 -10 -11 -3 3 -2 9 2 15 9 16
15 13 8 -4z m-2356 -42 c-3 -10 -5 -2 -5 17 0 19 2 27 5 18 2 -10 2 -26 0 -35z
m2653 43 c0 -2 -8 -10 -17 -17 -16 -13 -17 -12 -4 4 13 16 21 21 21 13z m988
-21 c-3 -3 -9 2 -12 12 -6 14 -5 15 5 6 7 -7 10 -15 7 -18z m-2291 -82 c-2
-21 -4 -6 -4 32 0 39 2 55 4 38 2 -18 2 -50 0 -70z m1260 71 c-3 -3 -12 -4
-19 -1 -8 3 -5 6 6 6 11 1 17 -2 13 -5z m1103 -34 c-11 -22 -26 -40 -33 -40
-8 0 -9 2 -1 8 6 4 19 22 28 40 9 17 19 32 21 32 3 0 -4 -18 -15 -40z m-3483
-47 c-2 -16 -4 -3 -4 27 0 30 2 43 4 28 2 -16 2 -40 0 -55z m2316 70 c-7 -2
-19 -2 -25 0 -7 3 -2 5 12 5 14 0 19 -2 13 -5z m1127 -37 c0 -12 -5 -7 -19 24
-11 24 -11 24 3 6 9 -11 16 -24 16 -30z m-4193 -88 c-2 -24 -4 -5 -4 42 0 47
2 66 4 43 2 -24 2 -62 0 -85z m3006 115 c-7 -2 -19 -2 -25 0 -7 3 -2 5 12 5
14 0 19 -2 13 -5z m-1758 -103 c55 -55 97 -100 95 -100 -3 0 -50 45 -105 100
-55 55 -97 100 -95 100 3 0 50 -45 105 -100z m1688 93 c-7 -2 -19 -2 -25 0 -7
3 -2 5 12 5 14 0 19 -2 13 -5z m1076 -58 c0 -5 -6 1 -14 15 -8 14 -14 30 -14
35 0 6 6 -1 14 -15 8 -14 14 -29 14 -35z m-3451 11 c-7 -8 -15 -12 -17 -11 -5
6 10 25 20 25 5 0 4 -6 -3 -14z m58 -19 c1 -24 1 -24 -3 -3 -2 14 -12 27 -21
30 -12 3 -11 4 3 3 14 -2 20 -10 21 -30z m2061 -44 c-2 -16 -4 -3 -4 27 0 30
2 43 4 28 2 -16 2 -40 0 -55z m-401 15 l29 -33 -32 29 c-31 28 -38 36 -30 36
2 0 16 -15 33 -32z m-789 -110 c-2 -24 -4 -5 -4 42 0 47 2 66 4 43 2 -24 2
-62 0 -85z m2060 65 c-3 -10 -5 -2 -5 17 0 19 2 27 5 18 2 -10 2 -26 0 -35z
m709 10 c-8 -15 -15 -25 -16 -21 0 12 23 58 27 54 3 -2 -2 -17 -11 -33z
m-4464 -12 c2 -17 1 -28 -4 -25 -8 5 -12 54 -4 54 2 0 6 -13 8 -29z m400 0 c2
-17 1 -28 -4 -25 -8 5 -12 54 -4 54 2 0 6 -13 8 -29z m415 -3 c-3 -7 -5 -2 -5
12 0 14 2 19 5 13 2 -7 2 -19 0 -25z m2740 0 c-3 -7 -5 -2 -5 12 0 14 2 19 5
13 2 -7 2 -19 0 -25z m-2610 -10 c-3 -7 -5 -2 -5 12 0 14 2 19 5 13 2 -7 2
-19 0 -25z m1378 -8 c21 -22 37 -40 34 -40 -3 0 -23 18 -44 40 -21 22 -37 40
-34 40 3 0 23 -18 44 -40z m-2948 8 c-3 -8 -6 -5 -6 6 -1 11 2 17 5 13 3 -3 4
-12 1 -19z m1686 2 c3 -11 1 -18 -4 -14 -5 3 -9 12 -9 20 0 20 7 17 13 -6z
m1482 0 c10 -11 16 -20 13 -20 -3 0 -13 9 -23 20 -10 11 -16 20 -13 20 3 0 13
-9 23 -20z m-2754 -23 c-10 -9 -11 -8 -5 6 3 10 9 15 12 12 3 -3 0 -11 -7 -18z
m2090 0 c-10 -9 -11 -8 -5 6 3 10 9 15 12 12 3 -3 0 -11 -7 -18z m-1834 -3
c-3 -3 -12 -4 -19 -1 -8 3 -5 6 6 6 11 1 17 -2 13 -5z m148 -4 c-3 -5 -12 -10
-18 -10 -7 0 -6 4 3 10 19 12 23 12 15 0z m258 3 c-7 -2 -19 -2 -25 0 -7 3 -2
5 12 5 14 0 19 -2 13 -5z m170 0 c-7 -2 -19 -2 -25 0 -7 3 -2 5 12 5 14 0 19
-2 13 -5z m1504 1 c-3 -3 -12 -4 -19 -1 -8 3 -5 6 6 6 11 1 17 -2 13 -5z
m-2680 -10 c-3 -3 -12 -4 -19 -1 -8 3 -5 6 6 6 11 1 17 -2 13 -5z m316 -1 c-7
-2 -19 -2 -25 0 -7 3 -2 5 12 5 14 0 19 -2 13 -5z m1364 1 c-3 -3 -12 -4 -19
-1 -8 3 -5 6 6 6 11 1 17 -2 13 -5z m730 0 c-3 -3 -12 -4 -19 -1 -8 3 -5 6 6
6 11 1 17 -2 13 -5z m320 0 c-3 -3 -12 -4 -19 -1 -8 3 -5 6 6 6 11 1 17 -2 13
-5z m480 0 c-3 -3 -12 -4 -19 -1 -8 3 -5 6 6 6 11 1 17 -2 13 -5z m296 -1 c-7
-2 -19 -2 -25 0 -7 3 -2 5 12 5 14 0 19 -2 13 -5z m564 1 c-3 -3 -12 -4 -19
-1 -8 3 -5 6 6 6 11 1 17 -2 13 -5z m306 -1 c-7 -2 -19 -2 -25 0 -7 3 -2 5 12
5 14 0 19 -2 13 -5z m607 -13 c-6 -11 -13 -20 -16 -20 -2 0 0 9 6 20 6 11 13
20 16 20 2 0 0 -9 -6 -20z m-5327 -10 c-3 -12 -8 -19 -11 -16 -5 6 5 36 12 36
2 0 2 -9 -1 -20z m1047 16 c0 -2 -7 -7 -16 -10 -8 -3 -12 -2 -9 4 6 10 25 14
25 6z m720 0 c0 -3 -4 -8 -10 -11 -5 -3 -10 -1 -10 4 0 6 5 11 10 11 6 0 10
-2 10 -4z m943 -11 c-3 -9 -8 -14 -10 -11 -3 3 -2 9 2 15 9 16 15 13 8 -4z
m2044 -22 c-3 -10 -5 -4 -5 12 0 17 2 24 5 18 2 -7 2 -21 0 -30z m-3071 -8
l-16 -25 -288 2 -287 3 288 2 288 3 11 25 c6 14 13 23 16 20 3 -2 -3 -16 -12
-30z m3513 5 c11 -24 11 -24 -3 -6 -9 11 -16 24 -16 30 0 12 5 7 19 -24z
m-2714 0 c10 -11 16 -20 13 -20 -3 0 -13 9 -23 20 -10 11 -16 20 -13 20 3 0
13 -9 23 -20z m1862 -2 c-3 -8 -6 -5 -6 6 -1 11 2 17 5 13 3 -3 4 -12 1 -19z
m-460 -13 c-6 -13 -31 -15 -174 -13 l-168 2 168 3 c147 3 167 5 167 20 0 9 3
14 6 10 4 -3 4 -13 1 -22z m-1117 -8 l45 -4 -49 1 c-35 1 -51 5 -53 16 -3 10
-2 11 4 3 5 -6 29 -14 53 -16z m-705 3 c-4 -6 -64 -9 -153 -8 l-147 2 150 6
c83 3 151 7 153 8 2 1 0 -2 -3 -8z m-1782 -7 c-45 -2 -122 -2 -170 0 -48 1
-11 3 82 3 94 0 133 -2 88 -3z m2775 0 c-10 -2 -26 -2 -35 0 -10 3 -2 5 17 5
19 0 27 -2 18 -5z m1600 0 c-53 -2 -143 -2 -200 0 -57 1 -13 3 97 3 110 0 156
-2 103 -3z m-2093 -13 c-3 -5 -12 -10 -18 -10 -7 0 -6 4 3 10 19 12 23 12 15
0z m862 4 c-3 -3 -12 -4 -19 -1 -8 3 -5 6 6 6 11 1 17 -2 13 -5z m96 -11 c-13
-2 -33 -2 -45 0 -13 2 -3 4 22 4 25 0 35 -2 23 -4z m-3383 -199 c-34 -7 -110
-9 -110 -2 0 5 28 7 63 7 34 -1 55 -3 47 -5z m113 -1 c-7 -2 -21 -2 -30 0 -10
3 -4 5 12 5 17 0 24 -2 18 -5z m294 1 c-3 -3 -12 -4 -19 -1 -8 3 -5 6 6 6 11
1 17 -2 13 -5z m120 0 c-3 -3 -12 -4 -19 -1 -8 3 -5 6 6 6 11 1 17 -2 13 -5z
m246 -1 c3 -5 -24 -8 -59 -8 -35 0 -64 3 -64 8 0 4 27 7 59 7 33 0 62 -3 64
-7z m297 -1 c0 -4 -19 -6 -42 -4 -71 5 -77 10 -15 11 31 0 57 -2 57 -7z m188
2 c-9 -8 -158 -10 -158 -1 0 4 37 7 82 7 45 0 79 -3 76 -6z m202 -1 c0 -5 -29
-8 -65 -8 -36 0 -65 3 -65 8 0 4 29 7 65 7 36 0 65 -3 65 -7z m159 -9 c2 -2
-9 -4 -25 -4 -17 0 -36 -6 -44 -12 -12 -11 -12 -10 -1 4 10 14 9 17 -6 21 -10
3 2 3 27 0 25 -3 47 -7 49 -9z m54 9 c-7 -2 -21 -2 -30 0 -10 3 -4 5 12 5 17
0 24 -2 18 -5z m304 1 c-3 -3 -12 -4 -19 -1 -8 3 -5 6 6 6 11 1 17 -2 13 -5z
m120 0 c-3 -3 -12 -4 -19 -1 -8 3 -5 6 6 6 11 1 17 -2 13 -5z m266 -31 c10
-18 16 -33 13 -33 -3 0 -13 14 -21 31 -16 30 -18 31 -76 27 -32 -1 -59 1 -59
5 0 4 28 7 62 5 58 -3 63 -5 81 -35z m287 30 c0 -5 -25 -6 -55 -5 -36 3 -62
-1 -73 -10 -15 -12 -16 -11 -3 5 10 13 28 17 72 17 33 0 59 -3 59 -7z m120 1
c-36 -8 -100 -9 -100 -2 0 5 26 7 58 7 31 -1 50 -3 42 -5z m287 0 c-9 -10
-146 -11 -140 -1 2 4 36 7 75 7 39 0 68 -3 65 -6z m183 -1 c0 -5 -38 -8 -85
-8 -47 0 -85 3 -85 8 0 4 38 7 85 7 47 0 85 -3 85 -7z m130 1 c-34 -7 -110 -9
-110 -2 0 5 28 7 63 7 34 -1 55 -3 47 -5z m93 -1 c-7 -2 -21 -2 -30 0 -10 3
-4 5 12 5 17 0 24 -2 18 -5z m247 0 c0 -5 -34 -8 -75 -8 -41 0 -75 3 -75 8 0
4 34 7 75 7 41 0 75 -3 75 -7z m210 0 c0 -5 -29 -8 -65 -8 -36 0 -65 3 -65 8
0 4 29 7 65 7 36 0 65 -3 65 -7z m159 -9 c2 -2 -9 -4 -25 -4 -17 0 -36 -6 -44
-12 -12 -11 -12 -10 -1 4 10 14 9 17 -6 21 -10 3 2 3 27 0 25 -3 47 -7 49 -9z
m54 9 c-7 -2 -21 -2 -30 0 -10 3 -4 5 12 5 17 0 24 -2 18 -5z m197 -3 c0 -5
-4 -10 -10 -10 -5 0 -10 5 -10 10 0 6 5 10 10 10 6 0 10 -4 10 -10z m140 2 c0
-4 -21 -6 -47 -4 -83 5 -90 9 -20 11 37 0 67 -2 67 -7z m210 1 c0 -5 -31 -8
-70 -8 -38 0 -70 3 -70 8 0 4 32 7 70 7 39 0 70 -3 70 -7z m123 0 c3 -5 -21
-8 -54 -8 -32 0 -59 3 -59 8 0 4 24 7 54 7 30 0 57 -3 59 -7z m267 0 c0 -5
-31 -8 -70 -8 -38 0 -70 3 -70 8 0 4 32 7 70 7 39 0 70 -3 70 -7z m180 4 c0
-2 -15 -16 -32 -33 l-33 -29 29 33 c28 30 36 37 36 29z m-4782 -14 c-10 -2
-26 -2 -35 0 -10 3 -2 5 17 5 19 0 27 -2 18 -5z m482 4 c0 -2 -17 -19 -37 -38
l-38 -34 34 38 c33 34 41 42 41 34z m1088 -4 c-10 -2 -26 -2 -35 0 -10 3 -2 5
17 5 19 0 27 -2 18 -5z m97 -3 c3 -6 -1 -7 -9 -4 -18 7 -21 14 -7 14 6 0 13
-4 16 -10z m676 -7 c13 -16 12 -17 -3 -4 -17 13 -22 21 -14 21 2 0 10 -8 17
-17z m703 -6 c8 -12 7 -20 -2 -29 -11 -11 -12 -9 -6 6 5 13 1 24 -12 34 -10 8
-13 12 -5 10 8 -2 19 -12 25 -21z m-3174 9 c0 -2 -7 -7 -16 -10 -8 -3 -12 -2
-9 4 6 10 25 14 25 6z m179 -30 c-3 -3 -11 5 -18 17 -13 21 -12 21 5 5 10 -10
16 -20 13 -22z m62 17 c13 -16 12 -17 -3 -4 -10 7 -18 15 -18 17 0 8 8 3 21
-13z m796 -15 c-3 -7 -5 -2 -5 12 0 14 2 19 5 13 2 -7 2 -19 0 -25z m602 29
c-2 -1 -15 -11 -29 -22 l-25 -20 19 23 c11 12 24 22 29 22 6 0 8 -1 6 -3z
m1138 -19 c-3 -8 -6 -5 -6 6 -1 11 2 17 5 13 3 -3 4 -12 1 -19z m720 -10 c-3
-7 -5 -2 -5 12 0 14 2 19 5 13 2 -7 2 -19 0 -25z m586 17 c-3 -9 -8 -14 -10
-11 -3 3 -2 9 2 15 9 16 15 13 8 -4z m325 -16 c-3 -8 -7 -3 -11 10 -4 17 -3
21 5 13 5 -5 8 -16 6 -23z m93 14 c13 -16 12 -17 -3 -4 -10 7 -18 15 -18 17 0
8 8 3 21 -13z m146 -15 c-3 -7 -5 -2 -5 12 0 14 2 19 5 13 2 -7 2 -19 0 -25z
m-4768 -12 c-3 -3 -11 5 -18 17 -13 21 -12 21 5 5 10 -10 16 -20 13 -22z m472
-3 c-12 -20 -14 -14 -5 12 4 9 9 14 11 11 3 -2 0 -13 -6 -23z m258 5 c0 -13
-3 -17 -6 -9 -4 9 -25 -6 -67 -45 l-61 -59 65 68 c35 37 66 67 67 67 2 0 3
-10 2 -22z m556 -8 l20 -25 -22 19 c-13 11 -23 24 -23 29 0 6 1 8 3 6 1 -2 11
-15 22 -29z m1935 5 c-7 -8 -20 -15 -29 -14 -11 0 -9 3 7 9 12 5 22 15 22 21
0 7 3 9 6 6 4 -4 1 -13 -6 -22z m700 15 c0 -5 -8 -10 -17 -10 -15 0 -16 2 -3
10 19 12 20 12 20 0z m1110 -13 c0 -9 -3 -8 -8 1 -7 9 -13 7 -28 -9 l-19 -22
33 5 c17 2 32 1 32 -4 0 -4 -19 -8 -42 -8 l-42 0 29 30 c27 28 45 31 45 7z
m-5100 -22 c0 -13 -3 -26 -7 -28 -5 -3 -8 10 -8 28 0 18 3 31 8 28 4 -2 7 -15
7 -28z m857 3 c-3 -7 -5 -2 -5 12 0 14 2 19 5 13 2 -7 2 -19 0 -25z m578 14
c-3 -3 -11 0 -18 7 -9 10 -8 11 6 5 10 -3 15 -9 12 -12z m863 -19 c-31 -30
-40 -35 -50 -25 -11 11 -10 12 2 7 10 -3 27 6 45 25 16 16 31 30 34 30 3 0
-11 -17 -31 -37z m2 -28 c-62 -63 -83 -75 -94 -56 -4 5 2 7 11 5 12 -3 38 15
78 56 33 33 62 60 64 60 3 0 -24 -29 -59 -65z m325 55 c3 -6 -1 -7 -9 -4 -18
7 -21 14 -7 14 6 0 13 -4 16 -10z m1812 -12 c-3 -8 -6 -5 -6 6 -1 11 2 17 5
13 3 -3 4 -12 1 -19z m186 7 c-3 -9 -8 -14 -10 -11 -3 3 -2 9 2 15 9 16 15 13
8 -4z m-4176 -27 c-3 -7 -5 -2 -5 12 0 14 2 19 5 13 2 -7 2 -19 0 -25z m1256
17 c-3 -9 -8 -14 -10 -11 -3 3 -2 9 2 15 9 16 15 13 8 -4z m2484 -7 c-3 -8 -6
-5 -6 6 -1 11 2 17 5 13 3 -3 4 -12 1 -19z m474 5 c13 -16 12 -17 -3 -4 -17
13 -22 21 -14 21 2 0 10 -8 17 -17z m-2560 -20 c-12 -20 -14 -14 -5 12 4 9 9
14 11 11 3 -2 0 -13 -6 -23z m266 5 c-3 -8 -6 -5 -6 6 -1 11 2 17 5 13 3 -3 4
-12 1 -19z m60 -25 c-3 -10 -5 -2 -5 17 0 19 2 27 5 18 2 -10 2 -26 0 -35z
m2373 1 c0 -3 -13 4 -30 16 -16 12 -30 24 -30 26 0 3 14 -4 30 -16 17 -12 30
-24 30 -26z m-4587 -34 c10 -13 10 -13 -5 -1 -11 8 -17 25 -17 45 l2 31 4 -30
c3 -16 10 -37 16 -45z m1299 48 c13 -13 17 -18 8 -12 -8 6 -24 16 -35 22 -11
6 -15 12 -8 12 7 0 22 -10 35 -22z m1915 -25 c-3 -10 -5 -2 -5 17 0 19 2 27 5
18 2 -10 2 -26 0 -35z m283 39 c0 -5 -7 -17 -15 -28 -14 -18 -14 -17 -4 9 12
27 19 34 19 19z m261 -13 l24 -20 -30 17 c-39 24 -40 24 -28 24 6 0 21 -9 34
-21z m-3849 -14 c3 -13 1 -22 -3 -19 -9 5 -13 44 -5 44 2 0 6 -11 8 -25z m573
13 c5 4 5 1 1 -6 -6 -10 -11 -10 -22 -1 -8 6 -14 14 -14 16 0 3 6 0 13 -6 8
-6 18 -7 22 -3z m272 -25 c-3 -10 -5 -4 -5 12 0 17 2 24 5 18 2 -7 2 -21 0
-30z m1223 2 c0 -5 -5 -3 -10 5 -5 8 -10 20 -10 25 0 6 5 3 10 -5 5 -8 10 -19
10 -25z m1055 28 c-16 -3 -33 -10 -37 -16 -5 -8 -8 -8 -8 -1 0 18 12 24 44 23
l31 -2 -30 -4z m116 -10 c13 -17 13 -17 -6 -3 -11 8 -22 16 -24 17 -2 2 0 3 6
3 6 0 17 -8 24 -17z m509 7 c8 -5 11 -10 5 -10 -5 0 -17 5 -25 10 -8 5 -10 10
-5 10 6 0 17 -5 25 -10z m382 -19 c2 -17 1 -28 -4 -25 -8 5 -12 54 -4 54 2 0
6 -13 8 -29z m208 20 c0 -6 -11 -23 -25 -38 l-26 -28 23 37 c25 40 28 43 28
29z m-4404 -29 c-17 -16 -18 -16 -5 5 7 12 15 20 18 17 3 -2 -3 -12 -13 -22z
m731 6 c-3 -8 -6 -5 -6 6 -1 11 2 17 5 13 3 -3 4 -12 1 -19z m404 -11 l-24
-22 19 27 c10 14 21 24 23 22 3 -3 -6 -15 -18 -27z m576 11 c-3 -8 -6 -5 -6 6
-1 11 2 17 5 13 3 -3 4 -12 1 -19z m164 -1 c-10 -9 -11 -8 -5 6 3 10 9 15 12
12 3 -3 0 -11 -7 -18z m2251 -2 c3 -13 1 -22 -3 -19 -9 5 -13 44 -5 44 2 0 6
-11 8 -25z m808 22 c0 -2 -15 -16 -32 -33 l-33 -29 29 33 c28 30 36 37 36 29z
m-5153 -29 c-3 -8 -6 -5 -6 6 -1 11 2 17 5 13 3 -3 4 -12 1 -19z m3170 0 c-3
-8 -6 -5 -6 6 -1 11 2 17 5 13 3 -3 4 -12 1 -19z m2109 4 c1 -7 0 -8 -3 -2 -2
5 -26 10 -52 10 -35 0 -53 -5 -66 -20 -18 -19 -17 -20 3 -20 12 0 22 -4 22
-10 0 -8 -20 -5 -43 8 -5 2 2 15 14 29 20 20 31 23 73 21 30 -2 50 -8 52 -16z
m-4771 -12 c-10 -11 -22 -20 -28 -20 -5 0 1 9 14 20 31 25 37 25 14 0z m285
-15 c0 -5 -5 -3 -10 5 -5 8 -10 20 -10 25 0 6 5 3 10 -5 5 -8 10 -19 10 -25z
m838 10 c-3 -3 -9 2 -12 12 -6 14 -5 15 5 6 7 -7 10 -15 7 -18z m542 21 c0 -2
-8 -10 -17 -17 -16 -13 -17 -12 -4 4 13 16 21 21 21 13z m721 -13 c13 -16 12
-17 -3 -4 -17 13 -22 21 -14 21 2 0 10 -8 17 -17z m96 -15 c-3 -7 -5 -2 -5 12
0 14 2 19 5 13 2 -7 2 -19 0 -25z m459 4 c-17 -16 -18 -16 -5 5 7 12 15 20 18
17 3 -2 -3 -12 -13 -22z m374 24 c0 -2 -8 -10 -17 -17 -16 -13 -17 -12 -4 4
13 16 21 21 21 13z m107 -28 c-3 -7 -5 -2 -5 12 0 14 2 19 5 13 2 -7 2 -19 0
-25z m157 2 c-6 -6 -10 -3 -10 10 0 13 4 16 10 10 7 -7 7 -13 0 -20z m-3077
-2 c-3 -8 -6 -5 -6 6 -1 11 2 17 5 13 3 -3 4 -12 1 -19z m481 -22 c12 -3 11
-4 -3 -3 -12 1 -20 10 -21 22 -1 14 0 15 3 3 2 -9 12 -19 21 -22z m383 27 c13
-16 12 -17 -3 -4 -10 7 -18 15 -18 17 0 8 8 3 21 -13z m830 -6 c-10 -9 -11 -8
-5 6 3 10 9 15 12 12 3 -3 0 -11 -7 -18z m656 1 c-3 -8 -6 -5 -6 6 -1 11 2 17
5 13 3 -3 4 -12 1 -19z m1400 0 c-3 -8 -6 -5 -6 6 -1 11 2 17 5 13 3 -3 4 -12
1 -19z m-3077 -3 c-7 -8 -17 -15 -23 -15 -6 0 -2 7 9 15 25 19 30 19 14 0z
m2305 -3 c-3 -3 -11 0 -18 7 -9 10 -8 11 6 5 10 -3 15 -9 12 -12z m-3660 -10
c-3 -3 -11 0 -18 7 -9 10 -8 11 6 5 10 -3 15 -9 12 -12z m1030 8 c-3 -5 -12
-10 -18 -10 -7 0 -6 4 3 10 19 12 23 12 15 0z m1576 -7 c13 -16 12 -17 -3 -4
-17 13 -22 21 -14 21 2 0 10 -8 17 -17z m884 7 c-3 -5 -12 -10 -18 -10 -7 0
-6 4 3 10 19 12 23 12 15 0z m642 4 c-3 -3 -12 -4 -19 -1 -8 3 -5 6 6 6 11 1
17 -2 13 -5z m534 -17 c-10 -9 -11 -8 -5 6 3 10 9 15 12 12 3 -3 0 -11 -7 -18z
m-5060 -5 c-35 -2 -68 1 -72 5 -4 4 24 6 64 3 l72 -5 -64 -3z m168 2 c9 -8
-55 -2 -74 6 -13 6 -5 7 25 3 25 -3 47 -7 49 -9z m349 9 c-10 -2 -28 -2 -40 0
-13 2 -5 4 17 4 22 1 32 -1 23 -4z m242 -7 c8 -2 -9 -4 -37 -5 -29 0 -53 3
-53 7 0 7 52 6 90 -2z m310 -3 c3 -2 -21 -3 -52 -1 -31 1 -54 6 -52 9 4 7 95
0 104 -8z m54 5 c-3 -4 -11 -5 -19 -1 -21 7 -19 12 4 10 11 0 18 -5 15 -9z
m571 2 c13 -6 2 -7 -30 -3 -27 3 -52 7 -54 9 -9 8 65 2 84 -6z m403 3 c-10 -2
-28 -2 -40 0 -13 2 -5 4 17 4 22 1 32 -1 23 -4z m232 -7 c8 -2 -9 -4 -37 -5
-29 0 -53 3 -53 7 0 7 52 6 90 -2z m50 4 c0 -5 -7 -7 -15 -4 -8 4 -15 8 -15
10 0 2 7 4 15 4 8 0 15 -4 15 -10z m260 -7 c2 -2 -19 -3 -48 -2 -28 2 -52 6
-52 11 0 7 90 0 100 -9z m60 5 c0 -11 -12 -10 -30 2 -12 7 -10 9 8 7 12 0 22
-5 22 -9z m40 8 c0 -2 -7 -6 -15 -10 -8 -3 -15 -1 -15 4 0 6 7 10 15 10 8 0
15 -2 15 -4z m110 -6 c0 -5 -2 -10 -4 -10 -3 0 -8 5 -11 10 -3 6 -1 10 4 10 6
0 11 -4 11 -10z m380 -7 c3 -3 -25 -3 -63 -1 -37 1 -67 6 -67 10 0 8 121 -1
130 -9z m50 13 c0 -11 -19 -15 -25 -6 -3 5 1 10 9 10 9 0 16 -2 16 -4z m193
-3 c-7 -2 -19 -2 -25 0 -7 3 -2 5 12 5 14 0 19 -2 13 -5z m645 0 c-10 -2 -26
-2 -35 0 -10 3 -2 5 17 5 19 0 27 -2 18 -5z m711 -9 c9 -8 -65 -2 -84 6 -13 6
-2 7 30 3 28 -3 52 -7 54 -9z m41 6 c0 -5 -7 -7 -15 -4 -8 4 -15 8 -15 10 0 2
7 4 15 4 8 0 15 -4 15 -10z m460 0 c0 -5 -2 -10 -4 -10 -3 0 -8 5 -11 10 -3 6
-1 10 4 10 6 0 11 -4 11 -10z m140 0 c0 -6 -28 -9 -67 -8 l-68 1 65 7 c36 4
66 7 68 8 1 1 2 -2 2 -8z m-4893 -6 c-3 -3 -12 -4 -19 -1 -8 3 -5 6 6 6 11 1
17 -2 13 -5z m310 0 c-3 -3 -12 -4 -19 -1 -8 3 -5 6 6 6 11 1 17 -2 13 -5z
m1120 0 c-3 -3 -12 -4 -19 -1 -8 3 -5 6 6 6 11 1 17 -2 13 -5z m140 0 c-3 -3
-12 -4 -19 -1 -8 3 -5 6 6 6 11 1 17 -2 13 -5z m651 -1 c-10 -2 -26 -2 -35 0
-10 3 -2 5 17 5 19 0 27 -2 18 -5z m600 0 c-10 -2 -26 -2 -35 0 -10 3 -2 5 17
5 19 0 27 -2 18 -5z m125 0 c-7 -2 -19 -2 -25 0 -7 3 -2 5 12 5 14 0 19 -2 13
-5z m324 1 c-3 -3 -12 -4 -19 -1 -8 3 -5 6 6 6 11 1 17 -2 13 -5z m180 0 c-3
-3 -12 -4 -19 -1 -8 3 -5 6 6 6 11 1 17 -2 13 -5z m140 0 c-3 -3 -12 -4 -19
-1 -8 3 -5 6 6 6 11 1 17 -2 13 -5z m1026 -1 c-7 -2 -21 -2 -30 0 -10 3 -4 5
12 5 17 0 24 -2 18 -5z"/>
<path d="M2685 6450 c-5 -8 54 -40 76 -40 16 0 9 19 -13 34 -25 18 -54 21 -63
6z"/>
<path d="M2870 6427 c0 -10 17 -13 65 -13 84 0 82 20 -3 24 -47 2 -62 0 -62
-11z"/>
<path d="M2786 6354 c-9 -24 -7 -89 3 -78 12 13 23 94 12 94 -5 0 -12 -7 -15
-16z"/>
<path d="M2913 6353 c-7 -2 -13 -12 -13 -20 0 -10 6 -13 16 -9 9 3 22 6 30 6
8 0 14 7 14 15 0 15 -22 19 -47 8z"/>
<path d="M2827 6273 c-4 -3 3 -17 14 -29 17 -18 19 -27 11 -37 -30 -36 58 -52
99 -18 33 27 15 46 -30 30 -17 -6 -33 -10 -34 -8 -36 66 -46 77 -60 62z"/>
<path d="M2773 6141 c-38 -19 -42 -31 -12 -31 18 0 19 -3 9 -15 -10 -12 -9
-16 4 -21 25 -10 98 5 118 23 25 23 22 36 -7 29 -17 -4 -31 0 -45 14 -23 23
-24 23 -67 1z m52 -21 c3 -6 -1 -7 -9 -4 -18 7 -21 14 -7 14 6 0 13 -4 16 -10z"/>
<path d="M3100 6100 c-68 -53 -94 -81 -73 -80 13 1 156 114 161 128 7 21 -11
12 -88 -48z"/>
<path d="M2460 5793 c0 -4 9 -16 19 -27 32 -35 69 -117 82 -186 16 -84 33
-104 26 -30 -7 69 -39 156 -77 209 -27 37 -50 53 -50 34z"/>
<path d="M4478 5429 c-20 -11 -24 -34 -8 -44 14 -9 70 23 70 40 0 17 -36 20
-62 4z"/>
<path d="M4482 5364 c-24 -7 -60 -23 -80 -36 l-37 -23 55 -3 c30 -2 59 -7 65
-13 14 -14 42 -11 60 8 16 16 19 15 46 -18 28 -34 34 -31 30 16 -2 23 -64 86
-83 84 -7 -1 -32 -7 -56 -15z"/>
</g>
</svg>
