<?xml version="1.0" encoding="UTF-8" standalone="no"?>
<svg
   version="1.0"
   width="1200pt"
   height="1200pt"
   viewBox="0 0 1200 1200"
   preserveAspectRatio="xMidYMid meet"
   id="svg3917"
   sodipodi:docname="postgres.svg"
   inkscape:version="1.1.2 (76b9e6a115, 2022-02-25)"
   xmlns:inkscape="http://www.inkscape.org/namespaces/inkscape"
   xmlns:sodipodi="http://sodipodi.sourceforge.net/DTD/sodipodi-0.dtd"
   xmlns="http://www.w3.org/2000/svg"
   xmlns:svg="http://www.w3.org/2000/svg">
  <defs
     id="defs3921" />
  <sodipodi:namedview
     id="namedview3919"
     pagecolor="#ffffff"
     bordercolor="#666666"
     borderopacity="1.0"
     inkscape:pageshadow="2"
     inkscape:pageopacity="0.0"
     inkscape:pagecheckerboard="0"
     inkscape:document-units="pt"
     showgrid="false"
     inkscape:zoom="0.360693"
     inkscape:cx="639.04761"
     inkscape:cy="884.40862"
     inkscape:window-width="1920"
     inkscape:window-height="1024"
     inkscape:window-x="1080"
     inkscape:window-y="450"
     inkscape:window-maximized="1"
     inkscape:current-layer="g3915"
     height="1200pt" />
  <metadata
     id="metadata3897">
Created by potrace 1.16, written by Peter Selinger 2001-2019
</metadata>
  <g
     transform="matrix(0.1,0,0,-0.1,1.1499351,1299.6087)"
     fill="#000000"
     stroke="none"
     id="g3915">
    <path
       d="m 8226.9303,12945.678 c -376.7637,-30.914 -708.1227,-85.014 -977.6536,-161.332 l -118.8256,-32.847 -118.8254,18.356 c -313.9698,48.301 -810.525,70.522 -1073.2935,48.301 -384.4924,-32.845 -714.8852,-123.655 -1036.5834,-285.953 l -138.1468,-69.556 -164.2304,51.201 c -733.2402,228.957 -1483.8696,323.63 -2091.5219,263.735 -519.7407,-50.236 -975.7215,-215.433 -1336.0622,-483.032 -119.7916,-89.842 -345.84982,-314.935 -433.76137,-433.76 -382.56012,-514.91 -560.31534,-1192.12 -540.99412,-2057.7106 6.76242,-280.1577 19.3212,-403.8134 79.21699,-758.358 186.44978,-1100.3434 521.67291,-2334.0031 874.2851,-3212.1525 372.8994,-931.2827 787.3396,-1497.3945 1241.3883,-1699.3011 158.4339,-69.5564 227.0243,-83.0812 425.0667,-82.1151 160.3662,0 180.6536,1.932 260.8366,26.0836 112.063,33.8121 261.8024,107.2327 356.4765,175.823 l 75.3526,53.1333 72.4546,-67.6241 c 227.0243,-211.5674 600.8899,-334.2571 1080.0562,-353.5784 263.7345,-10.6267 508.1479,24.1516 743.867,106.2668 141.0446,49.269 130.4181,57.9637 130.4181,-105.3007 0,-261.8026 33.8121,-853.0318 63.7601,-1106.1398 18.3552,-161.3321 55.0655,-362.2729 86.9454,-480.1323 34.7782,-130.4182 124.6218,-387.3905 174.857,-503.3178 278.2257,-634.702 841.4391,-906.1651 1585.306,-764.1542 809.559,154.5697 1250.0829,460.8112 1543.7654,1076.1919 212.5333,445.3541 318.8001,1004.7035 366.137,1917.631 7.7285,151.6716 16.4232,288.8522 20.2874,305.2752 l 5.7963,30.9141 142.0109,-4.8305 c 382.5605,-13.5247 893.6068,67.6245 1206.6108,191.2802 103.368,40.5745 282.089,132.3503 390.288,198.0425 329.427,203.8388 531.332,407.6776 622.143,626.9734 26.084,63.7601 28.014,77.2851 30.915,223.1603 2.897,145.8751 1.931,158.4338 -21.254,219.2958 -78.251,207.703 -254.074,340.0534 -493.658,373.8655 -113.029,16.423 -218.329,7.7284 -451.15,-33.8121 -257.938,-47.3371 -510.08,-75.3528 -510.08,-57.9637 0,2.8983 44.439,82.1151 98.537,175.8231 346.817,607.6524 696.531,1393.0598 917.759,2065.4382 477.233,1446.1931 549.689,2605.467 199.974,3180.274 -88.877,146.841 -338.122,421.203 -535.198,591.229 -565.146,486.895 -1268.437,768.984 -2071.2335,831.779 -117.8596,8.694 -585.433,11.592 -682.0392,2.898 z m 772.8488,-336.189 c 767.0524,-88.878 1395.9589,-381.596 1899.2759,-883.946 171.958,-170.993 267.599,-284.022 326.528,-385.459 252.142,-431.83 202.873,-1370.8412 -130.419,-2514.6573 -242.48,-832.7446 -615.38,-1699.3012 -1058.802,-2461.5232 -93.7073,-160.3661 -225.0917,-374.8317 -269.5305,-441.49 -15.457,-22.2193 -28.0158,-44.4388 -28.0158,-50.235 0,-4.8304 23.1855,-20.2872 51.2013,-32.8462 202.8728,-96.606 585.433,-95.64 1093.58,2.8982 130.419,26.0836 171.96,29.948 265.667,27.0498 96.606,-2.8982 116.893,-6.7625 159.4,-28.9819 56.032,-28.9818 82.116,-55.0654 111.098,-112.063 32.845,-62.794 25.117,-160.3661 -18.355,-247.3117 -109.166,-214.4654 -535.198,-512.9783 -902.302,-632.7698 -134.282,-43.4728 -339.087,-87.9116 -523.6046,-113.0292 -95.6397,-13.5249 -185.4834,-17.389 -376.7635,-17.389 -228.9563,0.9661 -260.8366,2.8981 -359.3747,24.1515 -59.8957,13.5249 -109.1648,22.2194 -109.1648,21.2533 0,-1.9321 -15.457,-134.2826 -33.8121,-295.6146 -74.3869,-640.4985 -171.9589,-1373.7388 -223.1602,-1682.8782 -111.097,-672.3785 -329.4268,-1016.2961 -789.2718,-1241.3883 -345.8498,-169.0606 -806.6609,-260.8364 -1110.97,-223.16 -331.3589,41.5406 -603.788,202.8728 -793.136,468.5396 -94.6739,133.3163 -208.6691,368.069 -247.3117,512.0122 -76.3187,280.1577 -120.7576,887.81 -132.3502,1815.2284 -2.8983,280.1578 -7.7285,509.1143 -9.6607,509.1143 -1.9321,0 -28.9818,-21.2535 -58.9298,-46.3711 -129.4521,-107.2326 -327.4945,-214.4656 -490.7588,-265.6668 -171.9588,-54.0993 -281.1238,-69.5562 -506.2159,-69.5562 -155.5359,0 -234.7528,4.8301 -313.9699,17.3891 -305.2752,50.2351 -508.1481,133.3162 -635.668,260.8363 -129.4523,127.52 -128.4862,308.1736 0.966,423.1347 92.7419,81.1491 218.3298,130.4184 494.6233,191.2802 307.2073,68.5903 440.5236,117.8593 523.6049,192.246 38.6425,34.7782 249.2437,289.8183 249.2437,302.3771 0,2.8982 -37.6763,8.6946 -84.0474,12.5588 -93.7078,6.7624 -278.2253,45.4049 -360.3405,75.3526 -28.9819,10.6267 -91.7759,36.7104 -139.1128,58.9298 l -85.0135,39.6085 -26.0836,-29.9477 c -13.5248,-16.4231 -106.2665,-118.8256 -204.8049,-227.0244 -217.3636,-237.6511 -366.1372,-405.7457 -566.1116,-644.3627 -83.0813,-98.5382 -184.5177,-212.5334 -225.0923,-252.1419 -311.0717,-309.1395 -665.616,-347.7819 -1004.7035,-108.1988 -87.9114,61.828 -241.5151,220.2618 -334.257,343.9177 -393.1866,525.5371 -786.3734,1511.8853 -1119.66444,2812.2034 -157.46798,611.5165 -284.98802,1236.5579 -354.54441,1738.9096 -18.35515,133.3165 -21.25334,198.0425 -21.25334,473.3698 0,241.5161 3.86425,353.5791 16.42304,463.7101 62.79396,542.927 206.73704,948.672 452.11654,1280.031 71.48851,96.606 218.32971,251.176 313.00371,328.461 329.4267,269.531 773.8147,430.863 1305.1483,474.336 173.8909,13.524 549.6886,6.762 738.0705,-14.491 430.8632,-48.303 900.3688,-153.605 1318.6732,-295.615 l 141.0447,-48.303 113.9953,67.624 c 326.5285,193.212 672.3785,293.682 1100.3435,320.733 288.8522,18.355 637.6002,-8.694 950.6039,-75.353 l 113.9953,-24.152 107.2326,33.813 c 263.7347,84.047 626.0075,153.603 926.4524,179.686 66.6583,5.798 138.1468,11.593 159.4,13.526 94.674,9.66 588.3312,-3.865 714.8852,-18.355 z"
       id="path3899"
       style="stroke-width:0.966061" />
    <path
       d="m 8226.9303,12285.859 c -174.8569,-15.457 -481.0983,-56.999 -539.0619,-73.422 -10.6266,-3.864 33.812,-30.913 130.4182,-80.183 574.8063,-291.75 1054.9385,-725.511 1442.329,-1305.147 233.7867,-349.714 413.4741,-723.582 488.8269,-1019.1964 16.423,-63.7599 20.2872,-104.3346 19.3211,-231.8546 -1.9321,-199.0085 -11.5927,-306.2411 -61.8278,-637.6001 -39.6086,-267.599 -39.6086,-273.3953 -39.6086,-540.9942 -0.966,-235.7188 2.8982,-297.5466 25.1177,-483.0304 47.3369,-382.5601 50.235,-422.1687 50.235,-647.2609 0,-372.8995 -51.2011,-606.6862 -197.0763,-896.5045 -59.8958,-119.7916 -61.828,-128.4862 -22.2195,-163.2643 16.423,-15.457 23.1855,-6.7624 140.0789,188.3819 370.001,616.3468 670.446,1250.0828 920.657,1943.7145 231.854,644.3627 389.32,1289.6915 445.353,1830.686 22.22,207.702 21.252,550.655 0,690.734 -20.287,131.384 -63.76,263.735 -107.232,330.393 -47.337,71.488 -191.281,236.685 -281.123,321.698 -444.389,423.136 -965.0962,665.617 -1622.0177,754.494 -164.2304,22.219 -622.1432,32.846 -792.17,18.356 z"
       id="path3901"
       style="fill:#336791;fill-opacity:1;stroke-width:0.966061" />
    <path
       d="m 6000.16,12163.168 c -188.382,-14.491 -395.1191,-56.998 -564.1797,-115.927 -665.6159,-230.889 -1147.6803,-829.846 -1382.4331,-1716.691 -63.7601,-240.549 -140.0789,-679.1413 -140.0789,-802.797 v -33.8122 l 104.3345,52.1674 c 223.1602,112.063 456.9469,190.314 683.0052,227.9904 164.2304,28.0158 406.7115,24.1514 536.1639,-8.6946 286.92,-72.4545 499.4534,-281.1238 593.1613,-579.6365 53.1334,-167.1286 117.8594,-544.8584 146.8412,-851.0997 21.2534,-231.8547 14.491,-633.736 -14.4909,-821.1518 -47.3369,-305.2753 -107.2327,-493.6572 -284.0218,-893.6065 -101.4365,-231.8546 -257.9383,-657.8874 -257.9383,-705.2244 0,-10.6268 12.5588,-12.5588 65.6921,-7.7285 120.7577,9.6607 287.8862,-47.3369 399.9493,-137.1806 101.4363,-81.1491 199.9745,-236.6851 235.7189,-371.9334 14.4908,-56.9977 16.4229,-143.9432 18.3552,-937.0792 0.966,-858.8281 6.7623,-1049.1422 38.6422,-1482.9035 28.9819,-380.628 60.8619,-562.2475 126.5541,-716.8173 118.8255,-278.2255 251.1757,-436.6594 443.422,-529.4013 112.0631,-54.0994 186.4498,-72.4545 323.6303,-79.2171 189.3479,-9.6605 407.6778,27.0498 656.9214,109.165 449.2185,148.7734 649.193,368.0691 764.1544,839.507 79.2169,322.6644 307.2072,2095.3861 327.4945,2545.5705 9.6607,200.9408 17.3891,257.9383 49.2692,357.4424 28.0156,85.9796 68.5903,154.5698 131.3842,222.1942 65.6922,71.4885 130.4182,113.9951 235.7188,156.5018 l 83.0812,32.8461 -106.2666,134.2824 c -152.6375,196.1104 -210.6013,286.9201 -311.0716,492.6912 -50.2352,101.4363 -149.7395,289.8182 -222.194,420.2366 -466.6074,839.5068 -683.9711,1419.1433 -706.1905,1883.8186 -14.4909,298.5129 56.0315,524.5713 218.3298,698.4622 138.1466,147.8073 296.5806,228.9564 544.8584,280.1575 95.6399,19.3213 136.2145,21.2535 375.7976,21.2535 146.8413,0 267.5988,3.8641 267.5988,7.7284 0,13.5249 -82.1151,207.7034 -132.3503,315.9024 -124.6218,265.667 -325.5624,572.874 -541.9602,830.813 -105.3006,125.587 -350.68,364.206 -480.1323,467.573 -459.845,365.171 -972.8233,586.4 -1545.6975,666.582 -211.5673,29.948 -502.3517,41.542 -681.0728,28.016 z"
       id="path3903"
       style="fill:#336791;fill-opacity:1;stroke-width:0.966061" />
    <path
       d="m 2546.4921,12125.492 c -699.4281,-76.32 -1188.2548,-394.153 -1448.1253,-940.943 -112.06303,-238.618 -178.72118,-491.725 -220.26183,-835.643 -19.32121,-164.231 -16.42304,-702.3274 4.83029,-854.9652 104.33458,-746.7651 350.68004,-1805.5679 610.55054,-2620.9234 347.7819,-1095.513 738.0703,-1833.5835 1088.7506,-2061.5739 106.2666,-68.5902 184.5177,-88.8776 276.2935,-70.5223 133.3163,28.0156 226.0582,105.3006 469.5055,391.2546 200.9407,237.651 415.4061,481.0982 598.9577,681.0729 80.1831,87.9116 151.6717,167.1286 159.4002,176.7892 11.5927,14.4909 1.9321,28.0158 -94.674,127.52 -223.1601,232.8206 -385.4583,542.9263 -445.3541,853.9978 -45.4048,234.7529 -46.3709,372.8996 -0.9661,760.29 32.846,280.1577 42.5068,622.1433 28.0159,955.4342 -17.3892,390.2887 -15.4572,724.5456 5.7963,917.758 99.5042,937.0811 379.662,1651.9651 849.1674,2170.7401 50.2353,56.032 71.4887,86.945 63.7601,89.843 -56.9976,20.289 -237.651,71.488 -390.2887,111.098 -297.5466,76.318 -612.4825,130.418 -898.4365,154.57 -161.3322,13.524 -506.216,10.626 -656.9215,-5.797 z"
       id="path3905"
       style="fill:#336791;fill-opacity:1;stroke-width:0.966061" />
    <path
       d="m 8874.1912,9502.6354 c -313.0039,-42.5067 -477.2341,-162.2982 -541.9602,-395.1189 -24.1515,-85.0133 -24.1515,-308.1735 0,-429.8971 81.1491,-423.1347 266.6328,-865.5906 668.5141,-1594.0007 79.217,-143.9429 170.0268,-316.8679 200.9408,-384.4922 30.9138,-67.6241 59.8957,-122.6897 63.7599,-122.6897 13.5249,0 75.3529,179.6874 100.4703,289.8183 55.0656,248.2777 54.0995,470.4718 -3.8641,975.7217 -62.794,548.7226 -61.8279,633.7358 19.3211,1207.576 20.2874,145.8752 39.6086,305.2754 43.4727,353.5783 l 5.7965,87.9116 -46.3709,6.7624 c -82.1153,10.6267 -440.5239,14.4908 -510.0802,4.8303 z m 157.468,-158.434 c 54.0994,-16.423 88.8775,-51.2013 88.8775,-89.8436 0,-63.7602 -85.9793,-169.0607 -174.8571,-215.4316 -52.1672,-26.0837 -154.5697,-35.7443 -207.7029,-18.3552 -83.0812,26.0836 -171.9589,104.3346 -183.5517,161.3322 -12.5588,61.8279 75.3527,130.4183 203.8388,161.3321 78.2511,18.3552 211.5675,19.3213 273.3954,0.9661 z"
       id="path3907"
       style="fill:#336791;fill-opacity:1;stroke-width:0.966061" />
    <path
       d="m 4739.4504,9436.9433 c -254.0739,-45.4049 -557.4172,-166.1625 -767.0524,-305.2753 -71.4884,-48.303 -73.4206,-50.2352 -72.4545,-87.9116 0,-20.2872 5.7964,-166.1624 13.5248,-322.6641 16.4231,-384.4925 4.8303,-745.7992 -34.7781,-1072.3278 -44.4388,-357.4426 -32.8462,-542.9263 50.2351,-791.2039 134.2825,-404.7797 452.1166,-718.7494 847.2355,-837.5748 85.9794,-26.0838 217.3637,-45.4048 271.4632,-40.5746 l 36.7102,2.8983 33.8121,111.0969 c 50.2352,168.0946 167.1285,479.1662 244.4135,652.0911 155.5356,345.8499 227.0242,569.9759 266.6327,830.8124 25.1177,162.2982 25.1177,624.0754 0.966,825.982 -34.778,288.8524 -97.5721,615.3809 -138.1466,723.5798 -64.7261,171.9589 -187.4157,277.2594 -367.1032,314.9358 -88.8776,19.3212 -265.6667,17.3892 -385.4583,-3.8642 z m 425.0669,-179.6874 c 84.0472,-21.2534 169.0607,-71.4884 199.9746,-118.8255 47.337,-72.4545 -16.423,-174.8571 -146.8413,-236.6849 -89.8437,-42.5066 -172.9249,-42.5066 -260.8365,-0.9661 -114.9613,55.0656 -213.4994,182.5856 -199.0085,258.9044 6.7624,35.7442 45.4049,76.3187 87.9115,93.708 60.8619,24.1513 228.9565,26.0835 318.8002,3.8641 z"
       id="path3909"
       style="fill:#336791;fill-opacity:1;stroke-width:0.966061" />
    <path
       d="m 9407.4568,5581.3941 c -47.337,-14.4909 -102.4024,-38.6424 -122.6897,-52.1673 -73.4207,-48.3031 -113.9952,-156.5019 -117.8595,-314.9359 l -2.8982,-91.7756 34.7783,-17.3893 c 81.149,-39.6085 166.1624,-49.269 409.6098,-49.269 502.3515,0 871.3865,98.5381 1202.7455,318.8 76.318,50.2352 195.144,141.045 190.315,144.9092 -0.967,0.9661 -43.474,-5.7963 -93.708,-15.4571 -604.756,-117.8594 -1091.6494,-90.8096 -1339.9271,72.4546 -28.0158,18.3552 -56.0316,33.8122 -62.794,33.8122 -6.7624,-0.9661 -51.2011,-13.5247 -97.5721,-28.9818 z"
       id="path3911"
       style="fill:#336791;fill-opacity:1;stroke-width:0.966061" />
    <path
       d="m 5470.7586,5557.2426 c -42.5067,-18.3551 -109.1649,-88.8777 -232.8207,-241.5154 -189.3478,-235.7188 -252.1419,-291.7503 -401.8814,-363.2388 -111.097,-53.1333 -227.0242,-87.9114 -473.3698,-143.943 -95.64,-21.2534 -201.9068,-48.3031 -235.7189,-58.9298 -57.9636,-19.3212 -60.8618,-22.2193 -43.4727,-35.7442 88.8776,-67.6242 338.1212,-125.5879 584.4667,-134.2825 258.9044,-9.6605 433.7615,24.1515 631.8039,122.6897 63.7601,30.914 145.8752,80.1831 183.5516,108.1988 139.1129,105.3007 294.6486,283.0561 314.9359,359.3746 33.8121,124.622 -61.8279,319.7661 -182.5855,370.9675 -65.6922,28.0158 -108.1988,32.846 -144.9091,16.4231 z"
       id="path3913"
       style="fill:#336791;fill-opacity:1;stroke-width:0.966061" />
  </g>
</svg>
