<?xml version="1.0" encoding="UTF-8" standalone="no"?>
<svg
   version="1.0"
   width="1200pt"
   height="1200pt"
   viewBox="0 0 1200 1200"
   preserveAspectRatio="xMidYMid meet"
   id="svg3917"
   sodipodi:docname="postgres_black.svg"
   inkscape:version="1.1.2 (76b9e6a115, 2022-02-25)"
   xmlns:inkscape="http://www.inkscape.org/namespaces/inkscape"
   xmlns:sodipodi="http://sodipodi.sourceforge.net/DTD/sodipodi-0.dtd"
   xmlns="http://www.w3.org/2000/svg"
   xmlns:svg="http://www.w3.org/2000/svg">
  <defs
     id="defs3921" />
  <sodipodi:namedview
     id="namedview3919"
     pagecolor="#ffffff"
     bordercolor="#666666"
     borderopacity="1.0"
     inkscape:pageshadow="2"
     inkscape:pageopacity="0.0"
     inkscape:pagecheckerboard="0"
     inkscape:document-units="pt"
     showgrid="false"
     inkscape:zoom="0.360693"
     inkscape:cx="830.34603"
     inkscape:cy="884.40862"
     inkscape:window-width="1920"
     inkscape:window-height="1024"
     inkscape:window-x="1080"
     inkscape:window-y="450"
     inkscape:window-maximized="1"
     inkscape:current-layer="g3915"
     height="1200pt" />
  <metadata
     id="metadata3897">
Created by potrace 1.16, written by Peter Selinger 2001-2019
</metadata>
  <g
     transform="matrix(0.1,0,0,-0.1,1.1499351,1299.6087)"
     fill="#000000"
     stroke="none"
     id="g3915">
    <path
       d="m 8214.5699,12958.478 c -377.4666,-30.972 -709.4437,-85.172 -979.4775,-161.633 l -119.0472,-32.909 -119.047,18.391 c -314.5555,48.392 -812.0372,70.653 -1075.2959,48.392 -385.2096,-32.907 -716.2187,-123.886 -1038.5171,-286.486 l -138.4044,-69.687 -164.5368,51.297 c -734.608,229.384 -1486.6377,324.234 -2095.4235,264.227 -520.7104,-50.33 -977.5418,-215.834 -1338.5546,-483.933 -120.0151,-90.01 -346.49506,-315.523 -434.57061,-434.571 -383.27377,-515.869 -561.36059,-1194.342 -542.00332,-2061.5472 6.77504,-280.6803 19.35724,-404.5668 79.36477,-759.7726 186.79758,-1102.396 522.64607,-2338.3572 875.91596,-3218.1448 373.5953,-933.0199 788.8085,-1500.1877 1243.7041,-1702.471 158.7296,-69.6862 227.4478,-83.2363 425.8598,-82.2685 160.6653,0 180.9905,1.9357 261.3232,26.1324 112.272,33.8752 262.2907,107.4328 357.1414,176.151 l 75.4932,53.2325 72.5898,-67.7504 c 227.4478,-211.962 602.0108,-334.8806 1082.071,-354.2379 264.2264,-10.6464 509.0958,24.1966 745.2546,106.465 141.3078,49.361 130.6614,58.0718 130.6614,-105.497 0,-262.291 33.8753,-854.6232 63.879,-1108.2035 18.3895,-161.6329 55.1683,-362.9485 87.1076,-481.0279 34.8431,-130.6615 124.8543,-388.1131 175.1832,-504.2566 278.7446,-635.8861 843.0089,-907.85559 1588.2634,-765.5798 811.0692,154.8582 1252.4148,461.6709 1546.6452,1078.1995 212.9299,446.1849 319.3949,1006.5777 366.82,1921.2083 7.743,151.9545 16.4539,289.3911 20.3253,305.8447 l 5.8072,30.9718 142.2757,-4.8395 c 383.2741,-13.5501 895.2732,67.7505 1208.8602,191.6369 103.562,40.6504 282.616,132.5973 391.016,198.412 330.041,204.2191 532.325,408.4382 623.305,628.1431 26.133,63.8789 28.067,77.4291 30.972,223.5765 2.903,146.1473 1.935,158.7294 -21.293,219.7049 -78.398,208.0904 -254.548,340.6877 -494.579,374.5629 -113.241,16.4537 -218.737,7.7429 -451.992,-33.8752 -258.419,-47.4253 -511.031,-75.4933 -511.031,-58.0717 0,2.9036 44.522,82.2683 98.722,176.1511 347.463,608.7859 697.828,1395.6585 919.469,2069.2912 478.126,1448.891 550.716,2610.3268 200.348,3186.2058 -89.044,147.115 -338.752,421.988 -536.196,592.332 -566.2,487.804 -1270.8035,770.419 -2075.0978,833.331 -118.0792,8.709 -586.525,11.613 -683.3113,2.903 z m 774.2904,-336.816 c 768.4834,-89.044 1398.5627,-382.307 1902.8187,-885.595 172.279,-171.312 268.097,-284.552 327.137,-386.178 252.613,-432.635 203.251,-1373.3978 -130.662,-2519.3477 -242.932,-834.298 -616.528,-1702.4712 -1060.777,-2466.1151 -93.8821,-160.6652 -225.5117,-375.5308 -270.0333,-442.3135 -15.4859,-22.2607 -28.068,-44.5217 -28.068,-50.3288 0,-4.8393 23.2286,-20.3251 51.2967,-32.9074 203.2513,-96.7862 586.5246,-95.8185 1095.6196,2.9036 130.662,26.1322 172.28,30.0038 266.162,27.1002 96.787,-2.9037 117.112,-6.7751 159.699,-29.036 56.136,-29.0359 82.268,-55.1681 111.304,-112.2721 32.907,-62.911 25.164,-160.6652 -18.39,-247.773 -109.368,-214.8654 -536.196,-513.9352 -903.984,-633.9502 -134.532,-43.5539 -339.719,-88.0756 -524.5813,-113.2399 -95.818,-13.5502 -185.8293,-17.4216 -377.4662,-17.4216 -229.3835,0.9679 -261.323,2.9035 -360.045,24.1966 -60.0076,13.5501 -109.3686,22.2608 -109.3686,21.293 0,-1.9358 -15.4857,-134.5331 -33.8752,-296.1662 C 9011.1212,3822.8177 8913.3671,3088.2095 8862.0703,2778.4935 8750.766,2104.8607 8532.029,1760.3015 8071.3262,1534.7893 7724.8311,1365.4134 7263.1604,1273.4663 6958.2837,1311.213 c -331.9772,41.6181 -604.9145,203.2513 -794.6157,469.4137 -94.8505,133.565 -209.0584,368.7557 -247.773,512.9674 -76.461,280.6803 -120.9829,889.4661 -132.5971,1818.6146 -2.9036,280.6804 -7.7429,510.064 -9.6787,510.064 -1.9358,0 -29.0358,-21.2931 -59.0397,-46.4575 -129.6936,-107.4328 -328.1055,-214.8657 -491.6744,-266.1624 -172.2795,-54.2003 -281.6481,-69.686 -507.1602,-69.686 -155.826,0 -235.1907,4.8392 -314.5555,17.4215 -305.8448,50.3289 -509.0961,133.565 -636.8539,261.3229 -129.6938,127.7579 -128.7258,308.7484 0.9679,423.9241 92.9147,81.3005 218.737,130.6616 495.5459,191.637 307.7804,68.7182 441.3454,118.0792 524.5817,192.6046 38.7145,34.8432 249.7087,290.359 249.7087,302.9412 0,2.9036 -37.7467,8.7107 -84.2042,12.5822 -93.8826,6.775 -278.7444,45.4896 -361.0128,75.4933 -29.0359,10.6465 -91.947,36.7788 -139.3723,59.0397 l -85.1721,39.6823 -26.1322,-30.0037 c -13.5501,-16.4536 -106.4649,-119.0471 -205.187,-227.4478 -217.7691,-238.0943 -366.8202,-406.5025 -567.1677,-645.5647 -83.2363,-98.7221 -184.862,-212.9299 -225.5122,-252.6123 -311.6519,-309.7161 -666.8576,-348.4307 -1006.5776,-108.4006 -88.0755,61.9433 -241.9657,220.6727 -334.8805,344.5593 C 1606.0008,5423.6633 1212.0806,6411.8514 878.1678,7714.5952 720.40607,8327.2524 592.64814,8953.46 522.96199,9456.7487 c -18.3894,133.5653 -21.29298,198.412 -21.29298,474.2529 0,241.9664 3.87145,354.2384 16.45367,464.5734 62.91111,543.94 207.1227,950.443 452.95995,1282.421 71.62177,96.786 218.73707,251.644 313.58757,329.073 330.0413,270.034 775.2583,431.667 1307.583,475.22 174.2153,13.551 550.7142,6.775 739.4475,-14.518 431.6669,-48.392 902.0483,-153.89 1321.1331,-296.166 l 141.3079,-48.393 114.2079,67.751 c 327.1376,193.571 673.6327,294.229 1102.3961,321.329 289.391,18.39 638.7896,-8.71 952.3771,-75.493 l 114.208,-24.195 107.4327,33.875 c 264.2267,84.203 627.1753,153.89 928.1808,180.022 66.7825,5.808 138.4045,11.614 159.6973,13.55 94.8506,9.679 589.4287,-3.872 716.2187,-18.389 z"
       id="path3899"
       style="stroke-width:0.967863" />
    <path
       d="m 8214.5699,12297.428 c -175.1833,-15.487 -481.9959,-57.105 -540.0676,-73.559 -10.6464,-3.87 33.8752,-30.971 130.6615,-80.331 575.8785,-292.296 1056.9065,-726.867 1445.0196,-1307.583 234.2229,-350.367 414.2455,-724.931 489.7388,-1021.0969 16.4536,-63.8789 20.325,-104.5293 19.3572,-232.2871 -1.9357,-199.3799 -11.6143,-306.8126 -61.9433,-638.7897 -39.6824,-268.0981 -39.6824,-273.9052 -39.6824,-542.0033 -0.9677,-236.1586 2.9037,-298.1018 25.1646,-483.9316 47.4252,-383.2736 50.3289,-422.9561 50.3289,-648.4682 0,-373.5952 -51.2968,-607.8181 -197.4441,-898.1769 -60.0076,-120.0152 -61.9433,-128.7259 -22.261,-163.569 16.4537,-15.4858 23.2287,-6.7749 140.3401,188.7333 370.6918,617.4968 671.6968,1252.4148 922.3738,1947.3406 232.286,645.5647 390.048,1292.0973 446.185,1834.0998 22.261,208.091 21.292,551.684 0,692.023 -20.325,131.629 -63.88,264.227 -107.434,331.01 -47.424,71.622 -191.636,237.126 -281.647,322.298 -445.218,423.924 -966.8954,666.858 -1625.0424,755.9 -164.5367,22.261 -623.3038,32.909 -793.6477,18.391 z"
       id="path3901"
       style="stroke-width:0.967863" />
    <path
       d="m 5983.6454,12174.509 c -188.7333,-14.519 -395.856,-57.105 -565.232,-116.143 -666.8576,-231.321 -1149.8212,-831.395 -1385.012,-1719.894 -63.879,-240.998 -140.3401,-680.4078 -140.3401,-804.2942 v -33.8753 l 104.5292,52.2648 c 223.5763,112.2719 457.7991,190.669 684.2791,228.4155 164.5369,28.0681 407.4703,24.1966 537.1641,-8.7106 287.4552,-72.5897 500.3852,-281.6483 594.2679,-580.718 53.2325,-167.4402 118.0793,-545.8748 147.1151,-852.6873 21.293,-232.2872 14.518,-634.9183 -14.5179,-822.6837 -47.4253,-305.8446 -107.4327,-494.578 -284.5517,-895.2734 -101.6257,-232.2871 -258.4194,-659.1146 -258.4194,-706.54 0,-10.6466 12.5822,-12.5822 65.8147,-7.7429 120.9828,9.6787 288.4232,-47.4252 400.6953,-137.4365 101.6256,-81.3005 200.3475,-237.1264 236.1586,-372.6273 14.5179,-57.1039 16.4536,-144.2116 18.3893,-938.8272 0.9679,-860.4302 6.7751,-1051.0994 38.7146,-1485.6698 29.0359,-381.3382 60.9754,-563.2964 126.79,-718.1545 119.0472,-278.7445 251.6444,-437.474 444.2493,-530.3889 112.272,-54.2004 186.7975,-72.5897 324.234,-79.3648 189.7011,-9.6787 408.4383,27.1001 658.1469,109.3685 450.0564,149.051 650.404,368.7558 765.5798,841.0731 79.3647,323.2663 307.7805,2099.295 328.1055,2550.3192 9.6787,201.3156 17.4215,258.4195 49.3611,358.1093 28.0679,86.1399 68.7183,154.8581 131.6292,222.6085 65.8148,71.622 130.6616,114.2078 236.1587,156.7939 l 83.2362,32.9073 -106.4649,134.533 c -152.9223,196.4763 -210.9942,287.4553 -311.6519,493.6102 -50.329,101.6255 -150.0188,290.3589 -222.6086,421.0205 -467.4778,841.0729 -685.2469,1421.7908 -707.5079,1887.3329 -14.5179,299.0697 56.1361,525.5497 218.7371,699.765 138.4044,148.0832 297.1339,229.3835 545.8748,280.6803 95.8184,19.3573 136.4687,21.2931 376.4987,21.2931 147.1152,0 268.0982,3.8713 268.0982,7.7428 0,13.5502 -82.2685,208.0905 -132.5973,316.4905 -124.8544,266.163 -326.1698,573.944 -542.9713,832.364 -105.497,125.82 -351.3341,364.885 -481.0279,468.445 -460.7029,365.852 -974.6382,587.494 -1548.581,667.826 -211.9619,30.003 -503.2887,41.619 -682.3435,28.068 z"
       id="path3903"
       style="stroke-width:0.967863" />
    <path
       d="m 2523.535,12136.762 c -700.733,-76.461 -1190.4716,-394.888 -1450.8268,-942.698 -112.27212,-239.063 -179.05461,-492.642 -220.67276,-837.202 -19.35724,-164.538 -16.45367,-703.637 4.83932,-856.5595 C 961.40396,8752.1444 1208.209,7691.3664 1468.5642,6874.49 1816.9949,5776.9333 2208.0115,5037.486 2559.3459,4809.0702 c 106.4649,-68.7183 184.8618,-89.0435 276.8089,-70.6541 133.565,28.0681 226.4799,105.4972 470.3814,391.9847 201.3156,238.0943 416.1811,481.9957 600.0751,682.3434 80.3326,88.0756 151.9545,167.4403 159.6974,177.119 11.6144,14.5179 1.9357,28.068 -94.8506,127.7579 -223.5764,233.255 -386.1774,543.939 -446.1848,855.591 -45.4895,235.1907 -46.4575,373.5951 -0.968,761.7082 32.9074,280.6803 42.5861,623.3039 28.0682,957.2166 -17.4216,391.0167 -15.4859,725.8973 5.807,919.47 99.69,938.8271 380.3704,1655.0461 850.7516,2174.7891 50.3291,56.136 71.6221,87.107 63.8791,90.01 -57.1038,20.327 -238.0944,71.622 -391.0167,111.305 -298.1018,76.462 -613.6252,130.662 -900.1127,154.858 -161.6331,13.55 -507.1602,10.647 -658.1468,-5.807 z"
       id="path3905"
       style="stroke-width:0.967863" />
    <path
       d="m 8863.0382,9509.0134 c -313.5878,-42.5861 -478.1244,-162.601 -542.9713,-395.8559 -24.1965,-85.1721 -24.1965,-308.7484 0,-430.6992 81.3005,-423.9239 267.1302,-867.2053 669.7613,-1596.9741 79.3648,-144.2116 170.344,-317.4592 201.3156,-385.2095 30.9715,-67.7504 60.0076,-122.9187 63.8789,-122.9187 13.5501,0 75.4934,180.0226 100.6578,290.359 55.1682,248.7408 54.2003,471.3493 -3.8714,977.5417 -62.9112,549.7463 -61.9433,634.9181 19.3573,1209.8289 20.3251,146.1473 39.6823,305.8448 43.5538,354.2378 l 5.8071,88.0756 -46.4574,6.775 c -82.2685,10.6466 -441.3456,14.518 -511.0317,4.8394 z m 157.7616,-158.7296 c 54.2004,-16.4537 89.0434,-51.2968 89.0434,-90.0113 0,-63.879 -86.1397,-169.376 -175.1832,-215.8334 -52.2645,-26.1323 -154.858,-35.8109 -208.0905,-18.3894 -83.2362,26.1323 -172.2796,104.5291 -183.894,161.6331 -12.5823,61.9433 75.4933,130.6615 204.2191,161.6331 78.397,18.3894 211.962,19.3574 273.9052,0.9679 z"
       id="path3907"
       style="stroke-width:0.967863" />
    <path
       d="m 4720.5841,9443.1987 c -254.548,-45.4896 -558.457,-166.4725 -768.4832,-305.8448 -71.6219,-48.3932 -73.5577,-50.329 -72.5898,-88.0756 0,-20.325 5.8073,-166.4724 13.5502,-323.2661 16.4536,-385.2096 4.8392,-747.1904 -34.8432,-1074.328 -44.5216,-358.1094 -32.9073,-543.9392 50.329,-792.68 134.533,-405.5347 452.9599,-720.0902 848.8159,-839.1372 86.1397,-26.1324 217.7692,-45.4896 271.9695,-40.6503 l 36.7789,2.9036 33.8751,111.3043 c 50.3289,168.4081 167.4403,480.06 244.8694,653.3075 155.8258,346.4951 227.4478,571.0392 267.1302,832.3622 25.1645,162.601 25.1645,625.2396 0.9678,827.5231 -34.8431,289.391 -97.7541,616.5286 -138.4044,724.9294 -64.8469,172.2796 -187.7654,277.7766 -367.788,315.5233 -89.0434,19.3572 -266.1624,17.4215 -386.1774,-3.8714 z m 425.8598,-180.0227 c 84.2041,-21.2929 169.3762,-71.6218 200.3477,-119.0471 47.4252,-72.5897 -16.4537,-175.1832 -147.1153,-237.1264 -90.0111,-42.5859 -173.2474,-42.5859 -261.3229,-0.9679 -115.1758,55.1683 -213.8978,182.9261 -199.38,259.3874 6.7752,35.8109 45.4897,76.4611 88.0757,93.8827 60.9754,24.1965 229.3836,26.1323 319.3948,3.8713 z"
       id="path3909"
       style="stroke-width:0.967863" />
    <path
       d="m 9397.2987,5580.4571 c -47.4254,-14.5179 -102.5935,-38.7146 -122.9187,-52.2646 -73.5577,-48.3933 -114.2078,-156.7939 -118.0794,-315.5234 l -2.9035,-91.9469 34.8431,-17.4217 c 81.3005,-39.6823 166.4724,-49.3609 410.374,-49.3609 503.2888,0 873.0118,98.722 1204.9888,319.3947 76.462,50.329 195.509,141.3082 190.67,145.1795 -0.969,0.9679 -43.555,-5.8071 -93.883,-15.4858 -605.883,-118.0793 -1093.6853,-90.9791 -1342.4261,72.5898 -28.0681,18.3894 -56.1361,33.8752 -62.9112,33.8752 -6.7749,-0.9679 -51.2967,-13.55 -97.754,-29.0359 z"
       id="path3911"
       style="stroke-width:0.967863" />
    <path
       d="m 5453.2565,5556.2605 c -42.5859,-18.3893 -109.3684,-89.0434 -233.255,-241.9658 -189.701,-236.1586 -252.6122,-292.2946 -402.631,-363.9165 -111.3042,-53.2324 -227.4478,-88.0755 -474.2529,-144.2115 -95.8184,-21.2931 -202.2834,-48.3933 -236.1586,-59.0397 -58.0717,-19.3574 -60.9754,-22.2608 -43.5538,-35.8109 89.0433,-67.7504 338.7519,-125.8223 585.5571,-134.533 259.3873,-9.6787 434.5705,24.1965 632.9824,122.9185 63.8789,30.9717 146.1474,80.3328 183.894,108.4008 139.3723,105.497 295.1983,283.5839 315.5234,360.045 33.8751,124.8544 -61.9432,320.3626 -182.9261,371.6595 -65.8147,28.068 -108.4006,32.9072 -145.1795,16.4536 z"
       id="path3913"
       style="stroke-width:0.967863" />
  </g>
</svg>
