<?xml version="1.0" encoding="UTF-8" standalone="no"?>
<svg
   version="1.0"
   width="1200pt"
   height="1200pt"
   viewBox="0 0 1200 1200"
   preserveAspectRatio="xMidYMid meet"
   id="svg3917"
   sodipodi:docname="python_black.svg"
   inkscape:version="1.1.2 (76b9e6a115, 2022-02-25)"
   xmlns:inkscape="http://www.inkscape.org/namespaces/inkscape"
   xmlns:sodipodi="http://sodipodi.sourceforge.net/DTD/sodipodi-0.dtd"
   xmlns="http://www.w3.org/2000/svg"
   xmlns:svg="http://www.w3.org/2000/svg">
  <defs
     id="defs3921" />
  <sodipodi:namedview
     id="namedview3919"
     pagecolor="#ffffff"
     bordercolor="#666666"
     borderopacity="1.0"
     inkscape:pageshadow="2"
     inkscape:pageopacity="0.0"
     inkscape:pagecheckerboard="0"
     inkscape:document-units="pt"
     showgrid="false"
     inkscape:zoom="0.360693"
     inkscape:cx="639.04761"
     inkscape:cy="989.76138"
     inkscape:window-width="1920"
     inkscape:window-height="1024"
     inkscape:window-x="1080"
     inkscape:window-y="450"
     inkscape:window-maximized="1"
     inkscape:current-layer="g3915"
     inkscape:snap-center="false"
     height="1200pt" />
  <metadata
     id="metadata3897">
Created by potrace 1.16, written by Peter Selinger 2001-2019
</metadata>
  <g
     transform="matrix(0.1,0,0,-0.1,1.1499351,1299.6087)"
     fill="#000000"
     stroke="none"
     id="g3915">
    <path
       d="m 5431.5019,12961.554 c -1005.0532,-68.323 -1686.7674,-294.394 -2049.1471,-680.221 -120.1257,-128.61 -200.2098,-268.272 -238.2497,-417.982 -19.0199,-76.362 -20.021,-110.523 -20.021,-841.988 v -761.608 h 1461.5314 1461.5314 v -205.977 -205.9758 H 3897.895 c -1528.6017,0 -2173.2773,-3.0133 -2230.3371,-10.0477 -43.0451,-7.0322 -120.1259,-22.104 -170.1782,-35.1659 C 741.58774,9605.6554 247.0697,8943.5188 76.891343,7903.5924 23.835759,7576.0406 15.827381,7456.474 15.827381,6954.0944 c 0,-463.1945 5.005133,-558.6466 41.04291,-843.9985 C 198.01831,4990.7933 650.49237,4264.3519 1347.2222,4035.2667 c 182.1911,-60.2857 249.2613,-65.3095 854.896,-65.3095 h 541.5674 v 751.5603 c 0,791.7511 4.0043,888.208 46.0482,1097.198 137.1438,683.2367 565.5927,1138.3931 1193.2505,1264.9928 196.2053,40.1903 249.2609,41.1952 1831.9193,41.1952 1012.0604,0 1577.6532,4.0189 1649.7285,11.0523 443.4649,43.2047 822.8622,206.9806 1080.132,466.2085 194.2034,195.9282 305.3198,407.9327 372.3902,713.3796 l 27.0281,120.5711 6.0064,1532.2591 c 4.0044,1191.6469 2.0022,1553.3589 -7.0073,1625.7019 -33.0348,249.181 -158.1657,481.28 -370.3881,685.247 -131.1373,127.604 -271.2843,224.061 -458.4806,316.499 -374.392,184.877 -796.8347,291.38 -1401.4684,352.67 -187.1961,19.092 -1067.1181,28.134 -1281.3425,13.062 z m -926.9713,-938.445 c 187.196,-44.209 342.3587,-199.947 386.405,-387.838 88.0922,-374.775 -255.2677,-717.397 -625.6557,-622.951 -267.2802,67.32 -436.4573,323.533 -391.4101,589.795 51.0535,295.399 341.3576,489.318 630.6608,420.994 z"
       id="path1775"
       style="fill:#000000;fill-opacity:1;stroke:none;stroke-width:1.00291" />
    <path
       d="m 6584.6935,1003.8414 c 1004.8245,68.3237 1686.3836,294.3952 2048.6809,680.2231 120.0985,128.6093 200.1641,268.2709 238.1954,417.9798 19.0156,76.3625 20.0164,110.5244 20.0164,841.9891 V 3705.642 H 7430.3874 5969.1885 v 205.9757 205.9768 h 2148.7628 c 1528.2544,0 2172.7827,3.0132 2229.8287,10.0475 43.036,7.0327 120.1,22.1043 170.141,35.1665 755.62,196.9329 1250.025,859.0695 1420.165,1898.996 53.042,327.5515 61.049,447.1182 61.049,949.498 0,463.1943 -5.001,558.6464 -41.031,843.9985 -141.116,1119.3023 -593.49,1845.7439 -1290.062,2074.8285 -182.146,60.2865 -249.201,65.3097 -854.6996,65.3097 h -541.4445 v -751.5601 c 0,-791.7509 -4.0033,-888.2078 -46.0375,-1097.1979 -137.1126,-683.2367 -565.4638,-1138.3929 -1192.9789,-1264.9927 -196.1608,-40.1903 -249.2043,-41.1951 -1831.5025,-41.1951 -1011.8302,0 -1577.294,-4.0192 -1649.3531,-11.0524 -443.3638,-43.2048 -822.6758,-206.9804 -1079.8869,-466.2086 -194.159,-195.9281 -305.2493,-407.9325 -372.3056,-713.3796 l -27.0213,-120.5712 -6.0054,-1532.2587 c -4.0039,-1191.6459 -2.0019,-1553.3596 7.0064,-1625.7028 33.0269,-249.1809 158.1293,-481.2803 370.3037,-685.2459 131.1065,-127.6044 271.2218,-224.0618 458.3759,-316.4994 374.3072,-184.8757 796.6539,-291.3805 1401.1499,-352.6713 187.1534,-19.0899 1066.8752,-28.1324 1281.0509,-13.0621 z m 926.7603,938.4467 c -187.1534,44.2091 -342.2808,199.9473 -386.317,387.8375 -88.0722,374.7757 255.2095,717.398 625.5135,622.9505 267.219,-67.3186 436.3577,-323.5323 391.3208,-589.7935 -51.0418,-295.4 -341.2798,-489.3181 -630.5173,-420.9945 z"
       id="path1775-3"
       style="fill:#000000;fill-opacity:1;stroke:none;stroke-width:1.0028" />
  </g>
</svg>
