<?xml version="1.0" encoding="UTF-8" standalone="no"?>
<svg
   version="1.0"
   width="1200pt"
   height="1200pt"
   viewBox="0 0 1200 1200"
   preserveAspectRatio="xMidYMid meet"
   id="svg3917"
   sodipodi:docname="python.svg"
   inkscape:version="1.1.2 (76b9e6a115, 2022-02-25)"
   xmlns:inkscape="http://www.inkscape.org/namespaces/inkscape"
   xmlns:sodipodi="http://sodipodi.sourceforge.net/DTD/sodipodi-0.dtd"
   xmlns="http://www.w3.org/2000/svg"
   xmlns:svg="http://www.w3.org/2000/svg">
  <defs
     id="defs3921" />
  <sodipodi:namedview
     id="namedview3919"
     pagecolor="#ffffff"
     bordercolor="#666666"
     borderopacity="1.0"
     inkscape:pageshadow="2"
     inkscape:pageopacity="0.0"
     inkscape:pagecheckerboard="0"
     inkscape:document-units="pt"
     showgrid="false"
     inkscape:zoom="0.360693"
     inkscape:cx="639.04761"
     inkscape:cy="989.76138"
     inkscape:window-width="1920"
     inkscape:window-height="1024"
     inkscape:window-x="1080"
     inkscape:window-y="450"
     inkscape:window-maximized="1"
     inkscape:current-layer="g3915"
     inkscape:snap-center="false"
     height="1200pt" />
  <metadata
     id="metadata3897">
Created by potrace 1.16, written by Peter Selinger 2001-2019
</metadata>
  <g
     transform="matrix(0.1,0,0,-0.1,1.1499351,1299.6087)"
     fill="#000000"
     stroke="none"
     id="g3915">
    <path
       d="m 5418.9061,12961.546 c -1002.8261,-68.394 -1683.0297,-294.703 -2044.6065,-680.935 -119.8595,-128.745 -199.7662,-268.553 -237.7217,-418.42 -18.9778,-76.442 -19.9766,-110.639 -19.9766,-842.872 v -762.406 H 4574.894 6033.187 v -206.194 -206.1917 H 3888.6975 c -1525.2146,0 -2168.4616,-3.0164 -2225.395,-10.0582 -42.9497,-7.0396 -119.8597,-22.1272 -169.8012,-35.2028 C 739.38417,9602.1265 245.96191,8939.2952 76.160644,7898.2777 23.222623,7570.3823 15.231997,7450.6902 15.231997,6947.7835 c 0,-463.6804 4.994034,-559.2327 40.951959,-844.884 C 197.01921,4982.4225 648.49065,4255.2189 1343.6766,4025.8934 c 181.7875,-60.349 248.709,-65.378 853.0016,-65.378 h 540.3674 v 752.3488 c 0,792.5818 3.9954,889.1399 45.9463,1098.3492 136.8398,683.9535 564.3393,1139.5874 1190.6063,1266.32 195.7707,40.2324 248.7086,41.2384 1827.8601,41.2384 1009.8178,0 1574.1572,4.0232 1646.0729,11.0639 442.4822,43.25 821.0389,207.1977 1077.7386,466.6976 193.773,196.1338 304.6432,408.3608 371.5649,714.1281 l 26.9683,120.6976 5.9931,1533.8668 c 3.9954,1192.8972 1.9977,1554.9882 -6.9919,1627.4082 -32.9614,249.441 -157.8152,481.784 -369.5672,685.965 -130.8468,127.738 -270.6833,224.297 -457.4647,316.831 -373.5624,185.071 -795.069,291.686 -1398.363,353.041 -186.7813,19.111 -1064.7535,28.163 -1278.5032,13.075 z m -924.9173,-939.429 c 186.7813,-44.256 341.6002,-200.158 385.5488,-388.245 87.8971,-375.169 -254.702,-718.15 -624.2693,-623.605 -266.688,67.391 -435.4902,323.873 -390.5428,590.414 50.9404,295.709 340.6012,489.832 629.2633,421.436 z"
       id="path1775"
       style="fill:#3470a0;fill-opacity:1;stroke:none;stroke-width:1.00233" />
    <path
       d="m 6569.5424,991.28757 c 1002.5978,68.39533 1682.6468,294.70403 2044.1412,680.93673 119.8324,128.7443 199.7207,268.5524 237.6677,418.4184 18.9735,76.4426 19.9719,110.6403 19.9719,842.8725 v 762.4076 H 7413.3623 5955.4012 v 206.1919 206.1929 h 2144.0015 c 1524.8681,0 2167.9693,3.0163 2224.8873,10.058 42.941,7.0401 119.834,22.1275 169.764,35.2034 753.946,197.1395 1247.255,859.9708 1417.018,1900.9884 52.925,327.8952 60.913,447.5873 60.913,950.4942 0,463.6803 -4.99,559.2326 -40.94,844.884 -140.803,1120.4767 -592.173,1847.6805 -1287.202,2077.0054 -181.743,60.3498 -248.649,65.3782 -852.806,65.3782 h -540.2447 v -752.3486 c 0,-792.5815 -3.9944,-889.1397 -45.9354,-1098.349 -136.8088,-683.9536 -564.2109,-1139.5873 -1190.3355,-1266.32 -195.7261,-40.2324 -248.6521,-41.2383 -1827.4442,-41.2383 -1009.588,0 -1573.7988,-4.0234 -1645.6983,-11.064 -442.3814,-43.2501 -820.8528,-207.1975 -1077.494,-466.6977 -193.7288,-196.1337 -304.5729,-408.3605 -371.4806,-714.1281 l -26.9614,-120.6977 -5.9921,-1533.8664 c -3.995,-1192.8961 -1.9975,-1554.9893 6.9909,-1627.4084 32.9536,-249.4424 157.7789,-481.7852 369.4832,-685.9649 130.8159,-127.7382 270.6206,-224.2968 457.3601,-316.8315 373.4778,-185.0696 794.8886,-291.6861 1398.0451,-353.0412 186.7387,-19.10996 1064.5111,-28.16195 1278.2123,-13.07583 z m 924.7067,939.43133 c -186.7387,44.2555 -341.5223,200.157 -385.461,388.2444 -87.877,375.1689 254.6441,718.1507 624.1274,623.604 266.627,-67.3892 435.3909,-323.8717 390.4537,-590.4122 -50.9287,-295.7099 -340.5235,-489.8315 -629.1201,-421.4362 z"
       id="path1775-3"
       style="fill:#f6d049;fill-opacity:1;stroke:none;stroke-width:1.00221" />
  </g>
</svg>
