<?xml version="1.0" encoding="UTF-8" standalone="no"?>
<svg
   version="1.0"
   width="1200pt"
   height="1200pt"
   viewBox="0 0 1200 1200"
   preserveAspectRatio="xMidYMid meet"
   id="svg3917"
   sodipodi:docname="pytorch_black.svg"
   inkscape:version="1.1.2 (76b9e6a115, 2022-02-25)"
   xmlns:inkscape="http://www.inkscape.org/namespaces/inkscape"
   xmlns:sodipodi="http://sodipodi.sourceforge.net/DTD/sodipodi-0.dtd"
   xmlns="http://www.w3.org/2000/svg"
   xmlns:svg="http://www.w3.org/2000/svg">
  <defs
     id="defs3921" />
  <sodipodi:namedview
     id="namedview3919"
     pagecolor="#ffffff"
     bordercolor="#666666"
     borderopacity="1.0"
     inkscape:pageshadow="2"
     inkscape:pageopacity="0.0"
     inkscape:pagecheckerboard="0"
     inkscape:document-units="pt"
     showgrid="false"
     inkscape:zoom="0.25504847"
     inkscape:cx="-17.643705"
     inkscape:cy="850.81867"
     inkscape:window-width="1920"
     inkscape:window-height="1024"
     inkscape:window-x="1080"
     inkscape:window-y="450"
     inkscape:window-maximized="1"
     inkscape:current-layer="g1432"
     inkscape:snap-center="false" />
  <metadata
     id="metadata3897">
Created by potrace 1.16, written by Peter Selinger 2001-2019
</metadata>
  <g
     transform="matrix(0.1,0,0,-0.1,1.1499351,1299.6087)"
     fill="#000000"
     stroke="none"
     id="g3915">
    <g
       transform="translate(17.249026,43396.304)"
       fill="#000000"
       stroke="none"
       id="g7428" />
  </g>
  <style
     id="style1418">.st0{fill:#007acc}.st1{fill:#fff}</style>
  <g
     id="g1432"
     transform="matrix(3.0086752,0,0,3.0249488,3.8454085,1.4760916)">
    <g
       id="g4550"
       transform="matrix(12.234225,0,0,12.168407,-940.17976,-2153.0012)">
      <g
         id="g3369"
         transform="matrix(0.29850019,0,0,0.29850019,79.387612,-141.81195)">
        <path
           fill="#ee4c2c"
           d="m 77.6,1099.6 -8.1,8.1 c 13.3,13.3 13.3,34.7 0,47.8 -13.3,13.3 -34.7,13.3 -47.8,0 -13.3,-13.3 -13.3,-34.7 0,-47.8 v 0 l 21.1,-21.1 3,-3 v 0 -15.9 L 14,1099.5 c -17.7,17.7 -17.7,46.3 0,64 17.7,17.7 46.3,17.7 63.7,0 17.6,-17.7 17.6,-46.1 -0.1,-63.9 z"
           id="path3365"
           style="fill:#000000;fill-opacity:1" />
        <circle
           fill="#ee4c2c"
           cx="61.700001"
           cy="1091.8"
           r="5.9000001"
           id="circle3367"
           style="fill:#000000;fill-opacity:1" />
      </g>
    </g>
  </g>
</svg>
