<?xml version="1.0" encoding="UTF-8" standalone="no"?>
<svg
   version="1.0"
   width="1200pt"
   height="1200pt"
   viewBox="0 0 1200 1200"
   preserveAspectRatio="xMidYMid meet"
   id="svg3917"
   sodipodi:docname="react.svg"
   inkscape:version="1.1.2 (76b9e6a115, 2022-02-25)"
   xmlns:inkscape="http://www.inkscape.org/namespaces/inkscape"
   xmlns:sodipodi="http://sodipodi.sourceforge.net/DTD/sodipodi-0.dtd"
   xmlns="http://www.w3.org/2000/svg"
   xmlns:svg="http://www.w3.org/2000/svg">
  <defs
     id="defs3921" />
  <sodipodi:namedview
     id="namedview3919"
     pagecolor="#ffffff"
     bordercolor="#666666"
     borderopacity="1.0"
     inkscape:pageshadow="2"
     inkscape:pageopacity="0.0"
     inkscape:pagecheckerboard="0"
     inkscape:document-units="pt"
     showgrid="false"
     inkscape:zoom="0.360693"
     inkscape:cx="655.68226"
     inkscape:cy="989.76138"
     inkscape:window-width="1920"
     inkscape:window-height="1024"
     inkscape:window-x="1080"
     inkscape:window-y="450"
     inkscape:window-maximized="1"
     inkscape:current-layer="svg3917"
     inkscape:snap-center="false"
     height="1200pt" />
  <metadata
     id="metadata3897">
Created by potrace 1.16, written by Peter Selinger 2001-2019
</metadata>
  <g
     transform="matrix(0.1,0,0,-0.1,1.1499351,1299.6087)"
     fill="#000000"
     stroke="none"
     id="g3915">
    <g
       transform="translate(17.249026,43396.304)"
       fill="#000000"
       stroke="none"
       id="g7428" />
  </g>
  <g
     transform="matrix(0.50870082,0,0,-0.50870082,-10.925111,1152.2514)"
     fill="#000000"
     stroke="none"
     id="g7443">
    <path
       d="m 650,2083 c -72,-28 -135,-107 -160,-203 -17,-65 -13,-250 8,-352 l 18,-88 -55,-16 C 326,1386 142,1279 88,1208 41,1146 27,1108 27,1045 27,952 72,878 176,804 244,755 374,692 460,665 l 56,-17 -18,-87 C 474,449 472,271 494,198 514,128 556,67 606,32 657,-3 771,-11 852,15 c 75,25 191,96 279,170 l 74,63 48,-42 c 79,-67 178,-135 247,-169 60,-29 73,-32 165,-32 93,0 103,2 139,27 49,34 91,95 112,162 21,71 19,257 -4,367 l -18,87 56,17 c 86,27 216,90 284,139 104,74 149,148 149,241 0,93 -45,167 -149,241 -68,49 -198,112 -284,139 l -56,17 18,87 c 21,100 25,287 8,352 -20,74 -61,139 -110,172 -43,30 -50,32 -140,32 -86,0 -101,-3 -163,-32 -83,-40 -153,-86 -237,-157 l -64,-55 -36,30 c -201,168 -304,220 -433,218 -40,0 -79,-3 -87,-6 z m 219,-134 c 71,-33 143,-82 213,-147 l 47,-44 -62,-71 c -34,-40 -79,-96 -100,-124 -33,-46 -43,-53 -72,-53 -18,0 -86,-9 -151,-20 -64,-11 -119,-19 -120,-17 -13,13 -36,170 -37,252 -3,239 90,313 282,224 z m 881,13 c 54,-40 85,-154 74,-277 -6,-64 -31,-205 -37,-212 -2,-1 -54,6 -116,17 -62,11 -130,20 -151,20 -35,0 -42,5 -77,53 -21,28 -66,84 -100,124 l -62,71 47,44 c 169,156 338,221 422,160 z m -465,-373 46,-59 h -127 c -120,0 -126,1 -113,18 116,139 110,134 129,117 10,-9 39,-43 65,-76 z m 100,-177 c 36,-7 43,-14 95,-97 31,-50 78,-131 104,-181 l 48,-90 -62,-114 c -35,-62 -82,-144 -105,-180 -41,-64 -45,-67 -90,-73 -61,-9 -264,-9 -334,0 -53,6 -53,6 -99,77 -25,39 -72,120 -105,180 l -60,110 44,83 c 24,46 71,128 104,181 57,92 63,97 100,103 56,9 312,9 360,1 z m -582,-98 c -26,-43 -55,-92 -64,-109 l -18,-29 -11,29 c -55,142 -59,156 -47,160 15,6 181,32 185,30 1,-1 -19,-38 -45,-81 z m 867,66 c 41,-7 78,-14 82,-16 6,-4 -4,-36 -52,-159 l -11,-29 -18,29 c -45,75 -106,181 -110,189 -2,4 5,6 15,3 11,-3 53,-11 94,-17 z M 634,1106 660,1047 621,956 C 600,906 574,839 565,808 l -18,-56 -86,30 c -117,41 -194,83 -258,141 -94,87 -94,157 1,244 64,59 131,96 250,138 l 91,33 31,-87 c 17,-47 43,-113 58,-145 z m 1460,141 c 79,-42 162,-119 177,-164 34,-104 -90,-220 -322,-301 l -86,-30 -13,41 c -6,23 -32,90 -56,148 l -45,106 29,64 c 16,35 42,101 58,145 l 28,82 86,-30 c 47,-16 112,-44 144,-61 z M 801,780 c 24,-41 45,-78 47,-81 3,-6 -160,17 -185,26 -12,4 -8,18 47,160 l 11,29 18,-29 c 10,-17 38,-64 62,-105 z m 922,45 c 39,-106 44,-97 -63,-116 -52,-9 -96,-16 -98,-14 -2,1 12,27 31,56 18,30 46,78 62,107 16,29 32,49 35,45 4,-5 19,-39 33,-78 z M 705,605 c 42,-8 110,-17 151,-21 l 74,-7 38,-51 c 20,-28 65,-83 99,-122 l 61,-71 -41,-40 C 928,141 743,68 663,126 c -62,45 -90,161 -74,303 10,85 30,191 36,191 2,0 38,-7 80,-15 z m 1095,-37 c 47,-217 27,-384 -53,-442 -80,-58 -265,15 -424,167 l -42,40 58,66 c 31,36 72,86 91,111 46,62 58,70 104,71 23,0 84,9 136,19 52,9 100,18 107,19 6,0 16,-23 23,-51 z M 1319,543 C 1203,403 1209,408 1190,425 c -10,9 -39,43 -65,76 l -46,59 h 127 c 120,0 126,-1 113,-17 z"
       id="path7439"
       style="fill:#62dafb;fill-opacity:1" />
    <path
       d="m 1146,1250 c -137,-42 -196,-206 -115,-325 103,-150 331,-108 380,70 42,151 -114,300 -265,255 z"
       id="path7441"
       style="fill:#62dafb;fill-opacity:1" />
  </g>
</svg>
