<?xml version="1.0" encoding="UTF-8"?>
<svg version="1.1" viewBox="0 0 682.56 682.56" xmlns="http://www.w3.org/2000/svg">
<g>
<path d="m312.31 462.24c-99.796-9.1558-165.43-76.204-179.06-178.63-84.292 101.6 76.421 259.92 179.06 178.63z" stroke="#000" stroke-width="1.88"/>
<path d="m369.11 35.363c41.037 5.0932 75.945 19.852 103.52 42.656 39.255 32.46 63.655 81.221 69.735 141.61 87.499-98.851-68.068-262.23-173.26-184.26z" stroke="#000" stroke-width="1.88"/>
<path d="m334.96 70.285c-97.792-6e-6 -176.73 76.743-176.73 177.51s79.275 182.45 177.07 182.45c97.792 0 182.1-80.523 182.1-181.29s-84.648-178.67-182.44-178.67zm5.4082 52.936a126.2 126.22 0 0 1 126.2 126.22 126.2 126.22 0 0 1-126.2 126.22 126.2 126.22 0 0 1-126.2-126.22 126.2 126.22 0 0 1 126.2-126.22z"/>
<text fill="#000000" font-family="sans-serif" font-size="133.33px" style="line-height:1.25;shape-inside:url(#rect76624);white-space:pre" xml:space="preserve"><tspan x="47.542969" y="791.33954"><tspan dx="0 84.635201 39.322815 93.098717 91.210693 87.239349">SICARA</tspan></tspan></text>
<text transform="scale(.95846 1.0433)" x="76.487938" y="636.70502" fill="#000000" font-family="sans-serif" font-size="139.38px" font-weight="bold" letter-spacing="-3.63px" stroke-width="3.4846" style="line-height:1.25" xml:space="preserve"><tspan x="76.487938" y="636.70502" font-family="sans-serif" font-weight="bold" stroke-width="3.4846">SICARA</tspan></text>
</g>
</svg>
