<?xml version="1.0" encoding="utf-8"?>
<!-- Generator: Adobe Illustrator 19.2.1, SVG Export Plug-In . SVG Version: 6.00 Build 0)  -->
<svg version="1.1" id="layer" xmlns="http://www.w3.org/2000/svg" xmlns:xlink="http://www.w3.org/1999/xlink" x="0px" y="0px"
	 viewBox="0 0 652 652" style="enable-background:new 0 0 652 652;" xml:space="preserve">
<style type="text/css">
	.st0{fill:#C80E47;}
	.st1{fill:#C9CACA;}
	.st2{fill:#FFFFFF;}
</style>
<g>
	<path d="M206.8,524.7c-12.9-8.9-19.8-13.6-26.3-18.4c-3.1,5.2-4.9,11.2-4.9,17.7c0,11.8,5.9,22.2,15,28.3
		C194.3,545,199.4,536.7,206.8,524.7"/>
	<path d="M240.6,531.6c-5.3,5.6-13.8,6.5-19.9,2.6c-1.2-0.7-9.6-6.5-9.6-6.5c-9.3,13.1-14,19.6-19.1,25.7c5.2,3.2,11.3,5,17.9,5
		c18.4,0,33.4-14.5,34.3-32.7C243.4,527.9,242.2,529.9,240.6,531.6"/>
	<path d="M234.2,512.3c-1.1-0.8-8.5-5.6-8.5-5.6c-6,8.9-7,10.2-11.6,16.8c0,0,8,5.2,9.2,5.9c4.1,2.5,9.6,1.8,12.9-1.8
		c1.2-1.4,2.1-3.1,2.5-4.9C239.3,519.3,238.2,514.9,234.2,512.3"/>
	<path d="M209.5,520.4c4.4-6.9,8.3-13.1,14.5-22.4c0,0,13,8.6,14.1,9.4c1.4,1,2.3,1.9,3.1,2.9c-5.3-12.1-17.4-20.5-31.4-20.5
		c-11.2,0-21.1,5.4-27.4,13.6C189.4,507.5,197.6,512.8,209.5,520.4"/>
	<path d="M177.4,499.4c0-2.4-1.9-4.3-4.3-4.3c-2.4,0-4.3,1.9-4.3,4.3c0,2.4,1.9,4.3,4.3,4.3C175.5,503.7,177.4,501.7,177.4,499.4"/>
	<path d="M180.5,486.7l2-1.5c1.2-0.9,2.5-0.7,3.2,0.3l0,0c0.8,1.2,0.3,2.4-0.8,3.2l-1,0.7l1.2,1.7l-0.9,0.6L180.5,486.7z M184.3,488
		c0.7-0.5,0.8-1.2,0.5-1.7l0,0c-0.4-0.6-1.1-0.6-1.8-0.1l-1.1,0.8l1.3,1.9L184.3,488z"/>
	<path d="M188.9,484.9L188.9,484.9c-0.7-1.7-0.1-3.6,1.7-4.4c1.8-0.8,3.6,0,4.4,1.6l0,0c0.7,1.6,0.1,3.6-1.7,4.4
		C191.5,487.4,189.6,486.6,188.9,484.9 M193.9,482.7L193.9,482.7c-0.5-1.1-1.7-1.7-2.9-1.2c-1.2,0.5-1.6,1.8-1.1,2.9l0,0
		c0.5,1.1,1.7,1.7,2.9,1.2C194,485.1,194.4,483.9,193.9,482.7"/>
	<polygon points="197.7,478.2 198.8,477.9 199.9,483.1 203.2,482.4 203.4,483.4 199,484.4 	"/>
	<polygon points="206.7,480.6 203.9,476.9 205.2,476.8 207.2,479.5 208.8,476.6 210.1,476.5 207.8,480.5 207.9,483 206.8,483.1 	"/>
	<polygon points="214.6,477.9 212.6,477.7 212.7,476.7 217.9,477.2 217.8,478.3 215.8,478 215.1,483.3 214,483.2 	"/>
	<polygon points="221.7,478.1 226.2,479.5 225.9,480.4 222.4,479.4 222,480.9 225,481.9 224.7,482.8 221.7,481.9 221.2,483.5 
		224.6,484.6 224.3,485.5 219.8,484.2 	"/>
	<path d="M228.4,483.8L228.4,483.8c0.9-1.6,2.8-2.3,4.4-1.3c1,0.6,1.5,1.2,1.7,2l-1,0.4c-0.2-0.7-0.6-1.2-1.2-1.5
		c-1.1-0.6-2.3-0.1-2.9,1l0,0c-0.6,1.1-0.3,2.4,0.8,3c0.7,0.4,1.3,0.3,2,0.1l0.3,1c-0.9,0.3-1.8,0.3-2.8-0.2
		C228,487.3,227.5,485.4,228.4,483.8"/>
	<polygon points="238.3,486 239.1,486.7 237.4,488.7 239.7,490.7 241.4,488.7 242.3,489.4 238.2,494.2 237.4,493.5 239.1,491.5 
		236.8,489.5 235,491.6 234.2,490.9 	"/>
	<polygon points="245.7,492.9 246.3,493.7 244.9,499.1 248.4,496.4 249.1,497.3 244.1,501.1 243.5,500.4 244.9,494.9 241.3,497.6 
		240.7,496.8 	"/>
	<polygon points="251.3,500.9 251.8,501.9 246.2,505 245.7,504 	"/>
	<path d="M249.8,512.4c-0.5-0.4-1-0.9-1.2-1.6c-0.6-1.8,0.3-3.6,2-4.2l0,0c1.7-0.6,3.6,0.2,4.2,2.1c0.6,1.8-0.3,3.6-2,4.2l0,0
		c-0.7,0.2-1.4,0.2-2.1,0l-0.4,0.9l-1-0.4L249.8,512.4z M250.2,511.4l0.5-1.3l1,0.4l-0.6,1.4c0.4,0.1,0.8,0.1,1.2-0.1h0
		c1.2-0.4,1.8-1.6,1.4-2.8c-0.4-1.2-1.6-1.7-2.8-1.3l0,0c-1.2,0.4-1.8,1.6-1.4,2.8C249.7,510.8,250,511.1,250.2,511.4"/>
	<path d="M253,516.3l3.6-0.4l0.1,1.1l-3.6,0.4c-1.2,0.1-1.7,0.8-1.6,1.8c0.1,1,0.8,1.5,1.9,1.4l3.6-0.4l0.1,1.1l-3.6,0.4
		c-1.9,0.2-3-0.7-3.1-2.4C250.4,517.6,251.2,516.5,253,516.3"/>
	<polygon points="257.3,525.5 257,530.2 256,530.2 256.2,526.6 254.6,526.4 254.4,529.6 253.4,529.5 253.6,526.4 251.9,526.2 
		251.6,529.9 250.6,529.8 251,525 	"/>
	<polygon points="182.8,563.1 181.9,562.4 185.6,557.2 186.5,557.9 	"/>
	<polygon points="178.2,559.5 177.4,558.7 178.1,553.2 175,556.3 174.3,555.5 178.8,551.1 179.4,551.7 178.7,557.4 181.9,554.2 
		182.7,555 	"/>
	<path d="M176.2,549.3l-1-0.1c0.1-0.8,0-1.5-0.4-2.1c-0.4-0.6-0.9-0.8-1.3-0.5l0,0c-0.4,0.3-0.4,0.6,0,1.7c0.5,1.3,0.6,2.2-0.4,2.8
		l0,0c-0.9,0.6-2,0.3-2.7-0.8c-0.5-0.8-0.7-1.5-0.6-2.4l1,0c0,0.7,0.1,1.3,0.4,1.8c0.4,0.5,0.8,0.7,1.2,0.4l0,0
		c0.4-0.3,0.4-0.6,0-1.8c-0.5-1.3-0.4-2.1,0.4-2.7l0,0c1-0.7,2.1-0.3,2.8,0.8C176.1,547.4,176.3,548.3,176.2,549.3"/>
	<polygon points="167.5,542.9 168.3,544.8 167.3,545.2 165.3,540.5 166.2,540.1 167,541.9 171.9,539.8 172.4,540.8 	"/>
	<rect x="164" y="535.1" transform="matrix(0.9656 -0.2601 0.2601 0.9656 -133.59 61.9259)" width="6.4" height="1.1"/>
	<polygon points="163.9,530.3 164.1,532.3 163.1,532.5 162.5,527.3 163.5,527.2 163.7,529.2 169,528.6 169.2,529.7 	"/>
	<path d="M166,523.9l-3.7-0.2l0.1-1.1l3.6,0.2c1.2,0.1,1.8-0.5,1.9-1.5c0.1-1-0.5-1.6-1.7-1.7l-3.6-0.2l0.1-1.1l3.6,0.2
		c1.9,0.1,2.8,1.3,2.7,2.9C168.9,523,167.8,524,166,523.9"/>
	<polygon points="164.8,512.9 164.3,514.9 163.3,514.6 164.6,509.6 165.6,509.9 165.1,511.8 170.2,513.2 170,514.3 	"/>
	<path d="M195.7,562.5l2.5,0.7c2.5,0.7,3.5,2.3,2.9,4.2l0,0c-0.5,1.9-2.2,2.9-4.8,2.1l-2.4-0.7L195.7,562.5z M196.9,567.8
		c1,0.3,1.7,0.1,2-0.9v0c0.3-0.9-0.3-1.5-1.2-1.8l-0.4-0.1l-0.8,2.7L196.9,567.8z"/>
	<polygon points="205.1,564.8 210.8,565 210.7,566.9 207.2,566.7 207.2,567.4 210.4,567.5 210.4,569.1 207.1,569 207.1,569.7 
		210.6,569.9 210.5,571.7 204.8,571.4 	"/>
	<path d="M219.2,564l2.9-0.9c1.7-0.5,3.1-0.1,3.5,1.4v0c0.5,1.5-0.4,2.7-2.2,3.2l-0.7,0.2l0.5,1.7l-2.1,0.6L219.2,564z M222.9,566.3
		c0.5-0.2,0.8-0.5,0.7-1l0,0c-0.1-0.5-0.5-0.6-1.1-0.4l-0.6,0.2l0.4,1.4L222.9,566.3z"/>
	<path d="M229.1,560.1l1.9-1.1l5.8,4.5l-2.1,1.2l-0.7-0.6l-2,1.2l0.1,0.9l-2.1,1.2L229.1,560.1z M232.7,563l-1.3-1.1l0.3,1.7
		L232.7,563z"/>
	<path d="M235.6,556l2.4-2.2c0.9-0.8,1.6-1.1,2.3-1.1c0.6,0,1.1,0.2,1.5,0.7l0,0c0.7,0.7,0.8,1.6,0.4,2.4l2.7,0.6l-1.9,1.7l-2.2-0.5
		l0,0l-0.3,0.3l1.3,1.4l-1.6,1.5L235.6,556z M240.1,556.2c0.4-0.4,0.5-0.8,0.2-1.1l0,0c-0.3-0.3-0.7-0.2-1.1,0.1l-0.7,0.7l0.9,1
		L240.1,556.2z"/>
	<rect x="244.5" y="546.8" transform="matrix(0.5917 -0.8062 0.8062 0.5917 -343.2411 422.6567)" width="2.2" height="6.7"/>
	<path d="M250.4,547.4l-0.8-1.7c0.8-0.4,1.4-1.1,1.7-1.8c0.2-0.4,0.2-0.6,0-0.6l0,0c-0.2-0.1-0.4,0.1-0.8,0.6
		c-0.9,1.2-1.9,2.2-3.2,1.6l0,0c-1.1-0.6-1.6-1.9-0.8-3.5c0.6-1.2,1.3-1.9,2.1-2.3l0.9,1.6c-0.7,0.4-1.2,1-1.5,1.5
		c-0.1,0.3-0.1,0.5,0,0.6l0,0c0.2,0.1,0.3,0,0.8-0.6c1-1.4,2-2.2,3.2-1.6l0,0c1.3,0.6,1.5,2,0.7,3.6
		C252.3,546,251.4,547,250.4,547.4"/>
	<rect x="276.4" y="509.4" width="6.4" height="29.3"/>
	<path d="M307.2,509.4h-12v29.3h6.4v-8.8h4.9c6.6,0,11.9-3.6,11.9-10.3C318.5,513.5,314.2,509.4,307.2,509.4 M306.8,524.1h-5.1v-9h5
		c3.2,0,5.2,1.6,5.2,4.5C311.9,522.2,310,524.1,306.8,524.1"/>
	<path d="M351.4,509.4h-12v29.3h6.4v-8.8h4.9c6.6,0,11.9-3.6,11.9-10.3C362.7,513.5,358.4,509.4,351.4,509.4 M351,524.1h-5.1v-9h5
		c3.2,0,5.2,1.6,5.2,4.5C356.1,522.2,354.2,524.1,351,524.1"/>
	<path d="M378.8,509.2h5.9l12.6,29.5h-6.7l-2.7-6.6h-12.4l-2.7,6.6h-6.6L378.8,509.2z M385.5,526.4l-3.9-9.5l-3.9,9.5H385.5z"/>
	<path d="M405.4,509.4h13.4c3.7,0,6.6,1,8.6,3c1.6,1.6,2.5,3.9,2.5,6.7v0.1c0,4.7-2.6,7.7-6.3,9.1l7.2,10.5h-7.5l-6.3-9.4h-0.1h-5
		v9.4h-6.5V509.4z M418.3,523.6c3.1,0,4.9-1.7,4.9-4.1v-0.1c0-2.8-1.9-4.2-5.1-4.2h-6.4v8.4H418.3z"/>
	<rect x="440.8" y="509.4" width="6.4" height="29.3"/>
	<path d="M470.6,521.1c-5.1-1.3-6.3-2-6.3-3.9c0-1.4,1.3-2.6,3.8-2.6c2.5,0,5,1.1,7.6,2.9l3.4-4.9c-3-2.4-6.6-3.7-10.9-3.7
		c-6,0-10.3,3.6-10.3,8.9c0,5.8,3.8,7.5,9.7,9c4.9,1.3,5.9,2.1,5.9,3.8c0,1.7-1.6,2.8-4.2,2.8c-3.4,0-6.1-1.4-8.8-3.6l-3.8,4.6
		c3.5,3.1,8,4.7,12.4,4.7c6.3,0,10.8-3.3,10.8-9.1C479.9,524.9,476.6,522.7,470.6,521.1"/>
	<rect x="162.8" y="451.3" width="316.2" height="3.4"/>
	<rect x="162.5" y="71.7" width="316.2" height="217.6"/>
	<path class="st0" d="M478.5,387.6l-0.1-83.6h-14.2c-1.5,2-0.5,10.8-5,12.5c-15.2-3.4-1.3-5.1-6.6-12.5c-0.6,0-6.9,0-7.5,0
		c0.7,0.1,3.4,3.1-0.6,6.5c-5.3,35,4.5,49.3-0.5,77.1L478.5,387.6z"/>
	<path class="st0" d="M252.3,329.9c5.7-2.7,5.7-8.6,6-12.5c-1.7-1.9-8.5-2-11.2-1.6c-3.7,3.1-0.5,8.7-2.7,12.4
		C245.9,331.3,249.9,329.1,252.3,329.9"/>
	<path class="st0" d="M284.8,371.3l1.7,0.5c1.5,0.3,3.6,0.4,5.2-0.3c-0.4-1.1-1-2.2-1.7-3C288.2,369.4,286.5,370.3,284.8,371.3"/>
	<path class="st0" d="M305.9,349.6c-4,0.1-7.5,5.9-10.9,3.5c2-5.6,6.4-10.2,8.3-15.7c3.3-7.5,8.7-23.8,6.4-33.4h-15.4
		c-5,1.4-1.3,14.3-6.5,15.2c-1.4-3.5-1-7.8-5.1-15.1h-8.3c0.6,5.5-0.2,5.8-0.7,6.4c-2.9,0.1-2.6-4.3-6.2-2c-3.1-0.6-4,4.5-7.3,3.5
		c-1.1-2.7-4.3-6.2-7.7-4.1c3,6.5,18,9.1,10.9,19.8c-1.4,3.1-0.3,7.6-4.1,9.1c-6.7-1.8-13-4.4-19.8-6.1c0.7,2.5-1.1,6.1-0.4,8.6
		c7.2,1,9.3,8.4,15.5,10.7c1.3,1,1.9,2.1,1.6,3.7c-4.3,1.8-8.9-2-12.9-3.7c-1,0.4-0.5,1.4-0.6,2.1c3.7,4.4,15.8,2.5,11.9,11.6
		c-3.3,7.5-2.6,19.8-13.9,20.8c-1,2.2,1.7,2.1,2.6,3.1c9.7,1,19.8-8.3,27.9-0.6c2.7,0,6.2-1.7,8.3,0.5h24.4c4.6-8.9,1-14.6,1.5-22.7
		c0.5-2.1-5.7-4.2-10.4-3c-0.8-0.6-0.3-1.7-0.4-2.7c3.1-3.7,15.7,1.8,12.9-7C307.4,351.4,307.4,349.7,305.9,349.6 M254.2,340.4H252
		c-3-1.1-9.6-2.6-9.9-6.1c4.2,1.1,7.9,3.2,12,4.6V340.4z M282,314.4l-0.7,8.8c-0.3,1.4-1.4,4.1-3.9,3.1c-3,0.7-1.4-2.9-1.8-4.3
		C278.3,319.7,279.1,314.9,282,314.4 M282.1,339.9c-2.4,1.7-6.6,1.1-9.3,0.5c0.7-1.1,0.9-2.4,1-3.6c1.7-1.4,3.6-4.5,6.7-3.5
		C281.8,335.1,282.4,337.4,282.1,339.9 M270.6,315.4c0.3-3.2,4.2-2,6.3-2.9l0.4,1.4c-2,1.6-3.5,4.9-6.7,3.7V315.4z M270.2,350.6
		c3.9,0.8,8-2.1,10.9,1c-1.3,2.7-1.3,7.2-5.7,4.6c-2-1.6-6.4-0.8-6.1-4.6L270.2,350.6z M265.5,312.9c0.7-1.1,1.7-3.2,3.7-2.5
		c-0.2,1.7-1,4.8-3.7,3.5V312.9z M262.5,346.5c2.5-1.4,5.9-1.2,5.4,3.6h-4C263.1,349.1,261.9,348.2,262.5,346.5 M253,344.7
		c0.8-1.3,2.3-0.5,3.3-0.7c0.4,3.1,5.2-0.7,3.4,3.3h-0.5C257.1,348.4,253.7,347.3,253,344.7 M258.8,379.5
		c-3.6-6.2,0.6-16.5,1.6-22.3c0.8-0.8,1.7-2,3.2-1.5c1,3.2-3.7,5.3-0.6,8.1c3.3-1,7.6,2,10.9-0.5c-1.7-2.8-5.3-1.4-7.7-2.5v-1.5
		l7.3-0.4c1.1,1.6,6.3,3,5.2,6C273.7,371.5,265.3,375.6,258.8,379.5 M291.8,371.5c1.3,3.4,1.5,7.5-0.1,10.2l-16.6,0.6v-2.1
		c2.9-3.8,6.1-6.5,9.8-8.8l-3.3-0.9c-4.7-3.2,6.4-7.9,8.1-9.2l4.5,7.2C294,370,293,371,291.8,371.5 M285.3,333.5
		c-3.4-9.1,9-12.8,13.7-18.4l6.4,3.6c-0.7,6.2-12.1,7.4-11.4,14.1c1.2,1,2.2,2.7,3.8,3c0.5,1.7-0.9,2.7-1.9,3.7
		C291,341.6,288.4,336.7,285.3,333.5"/>
	<path class="st0" d="M186.5,313c-15.3-1-23.5,0.6-23.7,0.5v12.1h2.9c3.5,1,5.8,1.1,9.3,1.1c12.8,1.3,23.7-0.6,36.4-1.3
		c-1.4-0.4-2.9-0.8-4.2-0.7c-2.2-1.6-3.5-2.7-3-5.3c3.4-3.6,9.6-0.6,13.5-2.8c3.5,1.3,1.2,5.2,2,7.5c-0.4,0.7-0.7,0.6-1.1,1
		c3.9,0,8.1,0.1,12.5,0.5v-12.6C212.1,312,198.7,313.7,186.5,313"/>
	<path class="st0" d="M330.2,308.7c6.2,1.5,12.6,2.3,19.2,2.5V304H322c0,5.8-4.4,13.9-4.4,13.9c2.4,0,4.7,0.1,6.9,1.2v1.5
		c-2.2-0.6-4.5-0.8-6.9-1v23.7h3c0.2,0.6,0.7,0.9,0.6,1.5l-0.6,1.1h-3v2.9c1,0.1,2.1,0.3,3,0.1c0.1,0.1,0.1,0.3,0.2,0.4
		c1.4,0.3,2.4,2.1,4.2,1.2v1.5h-3.2c-0.6,0-1.4-0.2-1.9-0.7c-0.7,0.3-1.6,0.4-2.4,0.3v2.2c2.4-0.9,5.6,0.1,7.9,0.2
		c0.3,0.6,0.8,0.9,0.6,1.6l-0.6,1.1c-2.4-0.9-5.4-0.4-7.9-0.7v18.4c0.9,0.2,1.7,0.4,2.4,0.6c0.3,0.7,1,1.1,1,2
		c-0.9,0.6-2.2,0.7-3.4,0.5v10.3h31.8v-10.3c-1.2,0.2-4.2,0.4-5.2-0.2c0-0.8,3.2-7.3,4-7.4l1.1-13.7c-2.5,0.3-5.4-0.2-7.8,0.7
		l-0.6-1.1c-0.2-0.7,0.4-1,0.6-1.6c2.3-0.1,5.5-1.1,7.8-0.2v-2.2c-1.3,0.2-2.7-0.2-3.6-1.1c-0.1-0.7,0.4-1,0.6-1.5
		c0.9,0.3,2,0,3-0.1V346h-3l-0.6-1.1c-0.1-0.7,0.4-1,0.6-1.5h3v-23.7c-2.3,0.1-4.6,0.4-6.9,1V319c2.1-1,4.5-1.2,6.9-1.2v-4.7
		c-5.7-0.3-11.3-0.9-16.6-1.4c-1.3-0.7-3.3-0.6-4.2-2C328.9,308.9,329.5,308.7,330.2,308.7 M347.3,326.3v4.7
		c-2.2-0.3-4.9,0.7-6.8-0.8C341.5,326.8,345.1,327,347.3,326.3 M321.5,323.1h4.2v1.5h-4.2V323.1z M328.2,329.2
		c-1.7,1.3-4.1,1.9-6.1,2.2l-1.2-4C323.3,327.2,327.4,326.1,328.2,329.2 M318.9,363.7h5.5v1.5h-5.5V363.7z M342.8,382.7
		c-1.9,4.4-5.4,1.2-7.8,0c-2-0.8-3.6,5-5.5,0.8c-0.1-1,0.4-1.4,0.6-2.2C334.6,378.3,339.1,380.7,342.8,382.7 M338.3,346.6h-8v-2.9h8
		V346.6z M336.8,357.8v4.3c-1.4-0.2-3.2,0.7-4.2-0.7C332.8,358.1,335.4,358.3,336.8,357.8 M334,323.6c1.1,0.8,3.6,0.9,2.3,4.1
		c-1.4,1.3-2.5-2-3.8-2.5L334,323.6z M333.8,317.6l-2.3,2.6c-0.9,0-2.5-2.8-2.8-3.9C329.4,315.5,333.4,316.6,333.8,317.6 M338,368.1
		v3.7c-4.9,1.7-9.5,7.1-14.9,4.7v-3.4c2.2-1,4.6,2,6.5-2.7C332.5,370.8,335,366.4,338,368.1 M328.9,338.2c-2.8,0.7-6.3,1.3-8.8-0.4
		c1.3-2.8,4.3-1.1,6.4-1.6C327.3,337.2,328.8,336.1,328.9,338.2"/>
	<path class="st0" d="M189.1,309.1c13.5,0,28.4-1.2,42.1-0.2v-5.2h-68.5c-0.1,2.1,0,5.5,0,5.5C171.2,307.9,181.9,309.1,189.1,309.1"
		/>
	<path class="st0" d="M178.6,334c-3.8,0-8-3.7-11.9-5h-1.9l-1.9,0.4l-0.1,58.1h68.5v-58.8C213.4,326.7,197.8,335.4,178.6,334"/>
	<path class="st0" d="M436.1,348.5c-4-9.7,5.1-42-9.6-44.7c-1.6-0.2-3,0.4-4.2,1.5c2.6,1.8,4.5,4.6,5,7.7
		c-3.4,7.6-10.6-1.7-15.5,0.8v6.2c-2,1.7-3.5,3.9-6.3,3.1c-1.7-2-4-3.4-3.2-6.1c1.8-3.7,5.7-2.3,8.3-4c-0.1-0.1-0.1-0.2-0.2-0.3
		c-4.9-1.2-4.3-8.8-12.5-8.8h-15.8c-7.3,2.3-16.4,6.5-24.8,0.1l1.6,10.4l1.1,3.6l0,3.1l3.7,3.2l-3.9,3.3l1.3,8
		c2.9,0.9,6.1,1,6.2,3.7c-0.5,4.4-3.8,9.4-3.9,13.9c-0.2,5.6,2.9,28.7,2.8,34.3c3-0.3,17.5-0.9,20.4-2.4c0,0.1,4,2.2,4,2.4
		c5.1,0.5,11.9,1.8,10.2-7.1l-3.7-23.7c-4.4-12.1,3.7-15.1,6.4-15.3l2.1,1.9c-0.8,2.4-1.1,4.7-1.4,7c0.5,0.9,1,1.9,0.7,3.4
		c0.2,1.4-0.2,2.3-0.7,2.8c0.9,11,6.1,20.6,6.2,31.1l13.8-0.1l5-3.9l-1.1-9.8l0.6-9.2l-0.3-17.1c2.1,0.5,4.2,1.1,6.6,2L436.1,348.5z
		 M367.4,321.5c-2.8-2.4-4.5-5.1-3.8-8.8c1.7-4.1,7.5-2.7,10-1c1.8,2.7,5.2,5.9,0.1,7.3C374.2,325.6,369.4,324.5,367.4,321.5
		 M382.9,375.5v-5.2l-4-3.7l-1.7-5.6c-1.9-8.6,0.3-18.5,1.8-21.7c-0.1,0.1-0.1,0.1-0.1,0.1c-1.4-0.4-3.7,0.8-4.6-1
		c1.3-2.1-0.6-5.4,1.6-7.2c1.6-0.3,5.5-0.2,6.5,0.9c-0.1,1.7-0.2,4.2-1.8,6c1.6-0.3,3.4-0.1,4.7,1.2c-0.4,16.4,1.2,27.4,2.5,42.4
		L382.9,375.5z M392.5,319.1c0.8,3.4-3.8,4-5.5,4.2c-1.9-1-4.4-4.8-3.1-8c1.3-1.3,2.4-3,4.8-2.3
		C389.9,315.1,393.6,316.1,392.5,319.1 M400.9,330.9c-0.6,2.4-3.6,5.2-7.3,4.5c-1.9-1.4-1.3-4.1-1.7-6.1c0.4-1.4,4.6-2.5,6.3-2.1
		C398.9,328.2,401.5,329.5,400.9,330.9 M406.7,335.3c0.9-1.1,3.9-2.7,5.5-2.5c1.7,0.7,2.9,3.9,2.1,6.2c-0.2,1.8-2.1,1.4-3.6,1.4
		C408.7,339.8,406.1,337.7,406.7,335.3 M416.9,372.8c-1.7,1.9-1.2,10.5-5.4,6.1c-4.4-11.6,1.6-19.5,2.5-29.8c2.6-2.8,5.4-3.8,7-3.1
		c0.4,0.1,2.5,5.2,2.9,5.3c0.5,7.1-3.8,7.4,0.3,19.2C423.3,372.3,418.2,371.3,416.9,372.8 M426.6,342.3c-1.6-0.1-5.1-0.5-5.4-2.7
		c-0.4-2.5-0.5-5.9,4.9-4.9C430.2,335.8,431.8,341.3,426.6,342.3"/>
	<path class="st1" d="M345.5,213.9c2-0.1,6.9-0.2,9.8,0.1c5.4,0.4,7.7,3.5,7.7,7.3c0,5-4,8.6-10.8,9.2c-2.3,0.2-5,0.2-6.8,0V213.9z
		 M345.5,232.7c1.7,0,6.1,0.4,9.2-0.1c9.6-1.6,14.6-4.7,14.6-11.6c0-6.9-4.3-9.3-17.6-9.3h-12.2v38.8c0.9-0.1,2-0.1,3-0.1
		c0.9,0,1.9,0.1,3,0.1V232.7z"/>
	<path class="st1" d="M388.2,237.7c0,1.6,0.1,2.6-0.1,4.2c-0.5,3.5-3.3,7.5-7.9,7.7c-3.9,0.2-5.7-2.8-5.4-5.6
		c0.7-6.3,3.1-5.5,10.6-7.8l2.9-0.9V237.7z M388.2,233.8l-1.1,0.4c-2.5,1-2.4,0.9-7,1.8c-5.4,1.2-10.9,1.8-11.2,8
		c-0.1,3.9,3.9,6.8,8.4,7c4.5,0.2,9-1.7,10.4-5.4v4.7h9v-1h-3.1v-17.1c0-4.5-0.8-8.7-10.5-9.2c-2.6-0.1-3.3,0.1-5.2,0.4
		c-2.2,0.3-4.3,1-5.7,1.5v8.2h1.3l1.6-3.4c1.4-2.9,2.6-6.1,7.4-5.7c4.8,0.4,5.6,3.1,5.6,5.9V233.8z"/>
	<path class="st1" d="M413.5,250.3h-13.3v-1h3.3v-24.5h-3.4v-1.1h8.6v5.6c0.4-2,3.5-5.7,8.3-5.7c1.4,0,2.6,0.3,4,0.9v9.7h-1.4
		l-1.8-4.5c-1.2-3.1-2.2-5.1-4.1-4.2c-5,2.4-4.6,8.1-4.6,13.5v10.3h4.3V250.3z"/>
	<path class="st1" d="M424.7,250.4v-1h3.4v-24.5h-3.2v-1.1h8.9v25.6h3v1H424.7z M434,217.6c0,1.7-1.7,2.9-3.6,2.9
		c-1.8,0-3.5-1.3-3.5-2.9c0-1.5,1.6-3,3.5-3C432.3,214.6,434,216,434,217.6"/>
	<path class="st1" d="M458.7,230c-1.4-4.2-2.8-5.8-6.6-5.8c-3.3,0-7.5,1.1-7.8,4.5c-0.2,3,3.5,4.2,6.9,5.1
		c5.7,1.6,12.4,3.4,12.2,8.7c-0.1,5.1-5.2,8.8-12.1,8.7c-4-0.1-8.4-1.3-10-2.3v-8.7h1.3l1.5,4.4c1.7,5,3.6,5,6.6,5.3
		c4.2,0.4,9-1.3,9.3-4.8c0.5-4.2-6.2-5.3-10.5-6.6c-3-0.9-8.9-2.6-8.9-7.6c0-5.9,7.6-7.8,11.7-7.8c3.4,0,7.3,1.1,8.7,1.8v8h-1.4
		L458.7,230z"/>
	<path class="st2" d="M209.7,164.4h-12.4v35.5c0,1.6-1.3,2.8-2.8,2.8h-1.3c-1.6,0-2.8-1.2-2.8-2.8v-35.5H178c-1.6,0-2.9-1-2.9-2.6
		v-1c0-1.6,1.3-2.6,2.8-2.6h31.7c1.6,0,2.9,1,2.9,2.6v1C212.5,163.4,211.2,164.4,209.7,164.4"/>
	<path class="st2" d="M249.8,202.7h-29c-1.5,0-2.6-1.1-2.6-2.6v-39.3c0-1.6,1.2-2.6,2.7-2.6h27.6c1.6,0,2.8,1,2.8,2.6v1
		c0,1.6-1.2,2.6-2.8,2.6h-23.3v13h21.4c1.6,0,2.8,1,2.8,2.6v1c0,1.6-1.2,2.6-2.8,2.6h-21.4v12.7h24.6c1.6,0,2.8,1,2.8,2.6v1
		C252.6,201.7,251.4,202.7,249.8,202.7"/>
	<path class="st2" d="M289,202.7h-29.3v-41.8c0-1.6,1.2-2.8,2.8-2.8h1.3c1.5,0,2.8,1.2,2.8,2.8v35.5H289c1.6,0,2.8,1,2.8,2.6v1
		C291.8,201.7,290.6,202.7,289,202.7"/>
	<path class="st2" d="M328.1,202.7h-29c-1.5,0-2.6-1.1-2.6-2.6v-39.3c0-1.6,1.2-2.6,2.7-2.6h27.6c1.6,0,2.8,1,2.8,2.6v1
		c0,1.6-1.2,2.6-2.8,2.6h-23.3v13h21.4c1.6,0,2.8,1,2.8,2.6v1c0,1.6-1.2,2.6-2.8,2.6h-21.4v12.7h24.6c1.6,0,2.8,1,2.8,2.6v1
		C330.9,201.7,329.7,202.7,328.1,202.7"/>
	<path class="st2" d="M366.8,202.7h-18.4c-5.8,0-10.3-5-10.3-10.7v-23.4c0-5.7,4.9-10.4,10.7-10.4h16.9c1.6,0,2.8,1,2.8,2.6v1
		c0,1.6-1.2,2.6-2.8,2.6h-14.5c-4.5,0-6.2,2.6-6.2,6.1v20c0,4.4,2.8,5.8,6.3,5.8h15.5c1.6,0,2.8,1,2.8,2.6v1
		C369.6,201.7,368.4,202.7,366.8,202.7"/>
	<path class="st2" d="M402.1,202.7h-15.3c-5.8,0-10.4-4.8-10.4-10.5v-23.7c0-5.7,5-10.3,10.8-10.3h14.6c5.8,0,10.8,4.6,10.8,10.3
		v23.7C412.5,197.9,407.8,202.7,402.1,202.7 M405.6,169.6c0-2.8-2.4-5.2-5.2-5.2h-11.9c-2.9,0-5.2,2.4-5.2,5.2v21.6
		c0,2.9,2.3,5.2,5.1,5.2h12c2.8,0,5.2-2.3,5.2-5.2V169.6z"/>
	<path class="st2" d="M459.9,202.7h-1.3c-1.5,0-2.8-1.2-2.8-2.8v-29.7l-9.4,13.2c-0.8,1.1-1.6,2.1-3,2.1h-0.9c-1.4,0-2.2-0.9-3-2.1
		l-9.4-13.2v29.7c0,1.6-1.3,2.8-2.8,2.8h-1.3c-1.6,0-2.8-1.2-2.8-2.8v-39.1c0-1.5,1-2.6,2.6-2.6h1.7c1.2,0,2.3,1.1,2.9,2.1
		l12.6,17.8l12.7-17.8c0.7-0.9,1.6-2.1,2.8-2.1h1.7c1.6,0,2.6,1.1,2.6,2.6v39.1C462.7,201.5,461.5,202.7,459.9,202.7"/>
</g>
</svg>
