<svg xmlns="http://www.w3.org/2000/svg" version="1.1" xmlns:xlink="http://www.w3.org/1999/xlink" xmlns:svgjs="http://svgjs.com/svgjs" width="1740" height="351" preserveAspectRatio="none" viewBox="0 0 1740 351"><g mask="url(&quot;#SvgjsMask3432&quot;)" fill="none"><g mask="url(&quot;#SvgjsMask3434&quot;)"><path d="M253 187L275 165L297 165L319 165M165 187L187 165L209 165M561 209L583 187L605 187L627 187L649 187L671 187L693 187L715 187L737 187M539 209L561 187L583 165L605 165L627 165M385 187L407 165L429 165L451 165L473 165M231 187L253 165M363 187L385 165L407 143M671 231L693 209L715 209M495 209L517 187M-11 165L11 165L33 165L55 165L77 165L99 165L121 165L143 165L165 187L187 187L209 187L231 187L253 187L275 187L297 187L319 187L341 187L363 187L385 187L407 209L429 209L451 209L473 209L495 209L517 209L539 209L561 209L583 209L605 209L627 209L649 209L671 231L693 231L715 231L737 231L759 231L781 231" stroke="url(#SvgjsLinearGradient3433)" stroke-width="3.67"></path><path d="M775.5 231 a5.5 5.5 0 1 0 11 0 a5.5 5.5 0 1 0 -11 0zM313.5 165 a5.5 5.5 0 1 0 11 0 a5.5 5.5 0 1 0 -11 0zM203.5 165 a5.5 5.5 0 1 0 11 0 a5.5 5.5 0 1 0 -11 0zM731.5 187 a5.5 5.5 0 1 0 11 0 a5.5 5.5 0 1 0 -11 0zM621.5 165 a5.5 5.5 0 1 0 11 0 a5.5 5.5 0 1 0 -11 0zM467.5 165 a5.5 5.5 0 1 0 11 0 a5.5 5.5 0 1 0 -11 0zM247.5 165 a5.5 5.5 0 1 0 11 0 a5.5 5.5 0 1 0 -11 0zM401.5 143 a5.5 5.5 0 1 0 11 0 a5.5 5.5 0 1 0 -11 0zM709.5 209 a5.5 5.5 0 1 0 11 0 a5.5 5.5 0 1 0 -11 0zM511.5 187 a5.5 5.5 0 1 0 11 0 a5.5 5.5 0 1 0 -11 0z" fill="url(#SvgjsLinearGradient3433)"></path><path d="M-11 187L11 187L33 187L55 187" stroke="url(#SvgjsLinearGradient3433)" stroke-width="3.67"></path><path d="M49.5 187 a5.5 5.5 0 1 0 11 0 a5.5 5.5 0 1 0 -11 0z" fill="url(#SvgjsLinearGradient3433)"></path><path d="M517 121L539 99M429 121L451 143L473 143L495 143L517 165L539 165M539 121L561 143L583 143M671 143L693 165L715 165M319 143L341 143M715 143L737 143L759 143L781 143L803 143L825 143M363 121L385 143M649 143L671 165M-11 143L11 143L33 143L55 143L77 143L99 143L121 143L143 143L165 143L187 143L209 143L231 143L253 143L275 143L297 143L319 143L341 121L363 121L385 121L407 121L429 121L451 121L473 121L495 121L517 121L539 121L561 121L583 121L605 143L627 143L649 143L671 143L693 143L715 143L737 165" stroke="url(#SvgjsLinearGradient3433)" stroke-width="3.67"></path><path d="M731.5 165 a5.5 5.5 0 1 0 11 0 a5.5 5.5 0 1 0 -11 0zM533.5 99 a5.5 5.5 0 1 0 11 0 a5.5 5.5 0 1 0 -11 0zM533.5 165 a5.5 5.5 0 1 0 11 0 a5.5 5.5 0 1 0 -11 0zM577.5 143 a5.5 5.5 0 1 0 11 0 a5.5 5.5 0 1 0 -11 0zM709.5 165 a5.5 5.5 0 1 0 11 0 a5.5 5.5 0 1 0 -11 0zM335.5 143 a5.5 5.5 0 1 0 11 0 a5.5 5.5 0 1 0 -11 0zM819.5 143 a5.5 5.5 0 1 0 11 0 a5.5 5.5 0 1 0 -11 0zM379.5 143 a5.5 5.5 0 1 0 11 0 a5.5 5.5 0 1 0 -11 0zM665.5 165 a5.5 5.5 0 1 0 11 0 a5.5 5.5 0 1 0 -11 0z" fill="url(#SvgjsLinearGradient3433)"></path><path d="M1023 231L1045 209M979 231L1001 209L1023 209L1045 187L1067 187L1089 209L1111 209L1133 209L1155 209L1177 209L1199 209L1221 209M99 209L121 231L143 231M11 209L33 231L55 231L77 231L99 231M297 209L319 231L341 231L363 231L385 231L407 253L429 253L451 253L473 253L495 253L517 253L539 253M121 209L143 187M231 209L253 231M891 253L913 231L935 231L957 231L979 209L1001 187L1023 187L1045 165L1067 165L1089 165L1111 165L1133 143L1155 143L1177 143L1199 143M187 209L209 231L231 231M847 253L869 275L891 275M1067 231L1089 253L1111 253L1133 253L1155 231L1177 231L1199 231L1221 231M561 231L583 253L605 253M1045 231L1067 253L1089 275L1111 275L1133 297M-11 209L11 209L33 209L55 209L77 209L99 209L121 209L143 209L165 209L187 209L209 209L231 209L253 209L275 209L297 209L319 209L341 209L363 209L385 209L407 231L429 231L451 231L473 231L495 231L517 231L539 231L561 231L583 231L605 231L627 231L649 231L671 253L693 253L715 253L737 253L759 253L781 253L803 253L825 253L847 253L869 253L891 253L913 253L935 253L957 253L979 231L1001 231L1023 231L1045 231L1067 231L1089 231L1111 231" stroke="url(#SvgjsLinearGradient3433)" stroke-width="3.67"></path><path d="M1105.5 231 a5.5 5.5 0 1 0 11 0 a5.5 5.5 0 1 0 -11 0zM1039.5 209 a5.5 5.5 0 1 0 11 0 a5.5 5.5 0 1 0 -11 0zM1215.5 209 a5.5 5.5 0 1 0 11 0 a5.5 5.5 0 1 0 -11 0zM137.5 231 a5.5 5.5 0 1 0 11 0 a5.5 5.5 0 1 0 -11 0zM93.5 231 a5.5 5.5 0 1 0 11 0 a5.5 5.5 0 1 0 -11 0zM533.5 253 a5.5 5.5 0 1 0 11 0 a5.5 5.5 0 1 0 -11 0zM137.5 187 a5.5 5.5 0 1 0 11 0 a5.5 5.5 0 1 0 -11 0zM247.5 231 a5.5 5.5 0 1 0 11 0 a5.5 5.5 0 1 0 -11 0zM1193.5 143 a5.5 5.5 0 1 0 11 0 a5.5 5.5 0 1 0 -11 0zM225.5 231 a5.5 5.5 0 1 0 11 0 a5.5 5.5 0 1 0 -11 0zM885.5 275 a5.5 5.5 0 1 0 11 0 a5.5 5.5 0 1 0 -11 0zM1215.5 231 a5.5 5.5 0 1 0 11 0 a5.5 5.5 0 1 0 -11 0zM599.5 253 a5.5 5.5 0 1 0 11 0 a5.5 5.5 0 1 0 -11 0zM1127.5 297 a5.5 5.5 0 1 0 11 0 a5.5 5.5 0 1 0 -11 0z" fill="url(#SvgjsLinearGradient3433)"></path><path d="M209 121L231 99M253 121L275 99L297 99M297 121L319 121M-11 121L11 121L33 121L55 121L77 121L99 121L121 121L143 121L165 121L187 121L209 121L231 121L253 121L275 121L297 121L319 99L341 99L363 99L385 99L407 99L429 99L451 99L473 99L495 99" stroke="url(#SvgjsLinearGradient3433)" stroke-width="3.67"></path><path d="M489.5 99 a5.5 5.5 0 1 0 11 0 a5.5 5.5 0 1 0 -11 0zM225.5 99 a5.5 5.5 0 1 0 11 0 a5.5 5.5 0 1 0 -11 0zM291.5 99 a5.5 5.5 0 1 0 11 0 a5.5 5.5 0 1 0 -11 0zM313.5 121 a5.5 5.5 0 1 0 11 0 a5.5 5.5 0 1 0 -11 0z" fill="url(#SvgjsLinearGradient3433)"></path><path d="M407 275L429 297L451 297M671 275L693 297L715 297L737 297L759 297L781 297M11 253L33 275L55 275L77 275L99 275M913 275L935 297L957 297L979 297L1001 297L1023 297M121 253L143 275L165 275L187 275L209 275L231 275L253 297L275 297L297 297L319 297L341 297L363 297L385 297L407 297M583 275L605 297L627 297L649 297M627 253L649 275M539 275L561 297L583 297M363 275L385 253M297 275L319 253L341 253L363 253M495 275L517 297L539 297M-11 231L11 253L33 253L55 253L77 253L99 253L121 253L143 253L165 253L187 253L209 253L231 253L253 253L275 253L297 275L319 275L341 275L363 275L385 275L407 275L429 275L451 275L473 275L495 275L517 275L539 275L561 275L583 275L605 275L627 253L649 253L671 275L693 275L715 275L737 275L759 275L781 275L803 297L825 297L847 297L869 297L891 297L913 275L935 275L957 275L979 253L1001 253" stroke="url(#SvgjsLinearGradient3433)" stroke-width="3.67"></path><path d="M995.5 253 a5.5 5.5 0 1 0 11 0 a5.5 5.5 0 1 0 -11 0zM445.5 297 a5.5 5.5 0 1 0 11 0 a5.5 5.5 0 1 0 -11 0zM775.5 297 a5.5 5.5 0 1 0 11 0 a5.5 5.5 0 1 0 -11 0zM93.5 275 a5.5 5.5 0 1 0 11 0 a5.5 5.5 0 1 0 -11 0zM1017.5 297 a5.5 5.5 0 1 0 11 0 a5.5 5.5 0 1 0 -11 0zM401.5 297 a5.5 5.5 0 1 0 11 0 a5.5 5.5 0 1 0 -11 0zM643.5 297 a5.5 5.5 0 1 0 11 0 a5.5 5.5 0 1 0 -11 0zM643.5 275 a5.5 5.5 0 1 0 11 0 a5.5 5.5 0 1 0 -11 0zM577.5 297 a5.5 5.5 0 1 0 11 0 a5.5 5.5 0 1 0 -11 0zM379.5 253 a5.5 5.5 0 1 0 11 0 a5.5 5.5 0 1 0 -11 0zM357.5 253 a5.5 5.5 0 1 0 11 0 a5.5 5.5 0 1 0 -11 0zM533.5 297 a5.5 5.5 0 1 0 11 0 a5.5 5.5 0 1 0 -11 0z" fill="url(#SvgjsLinearGradient3433)"></path><path d="M935 121L957 143L979 143L1001 143L1023 143M891 121L913 99L935 99L957 99L979 99M517 77L539 55L561 55M253 77L275 55L297 55L319 55L341 55L363 55L385 55M55 99L77 77L99 77L121 77L143 77L165 77L187 77L209 55L231 55M11 99L33 77M781 121L803 99L825 99L847 99L869 99M1199 121L1221 99M847 121L869 143M1023 121L1045 99L1067 99L1089 99L1111 99L1133 77L1155 77L1177 55L1199 55L1221 55M187 99L209 99M407 77L429 55L451 55L473 55L495 55L517 55M1177 121L1199 99L1221 77L1243 77L1265 77L1287 77L1309 77L1331 99L1353 99L1375 99M1067 121L1089 143L1111 143M-11 99L11 99L33 99L55 99L77 99L99 99L121 99L143 99L165 99L187 99L209 77L231 77L253 77L275 77L297 77L319 77L341 77L363 77L385 77L407 77L429 77L451 77L473 77L495 77L517 77L539 77L561 99L583 99L605 121L627 121L649 121L671 121L693 121L715 121L737 121L759 121L781 121L803 121L825 121L847 121L869 121L891 121L913 121L935 121L957 121L979 121L1001 121L1023 121L1045 121L1067 121L1089 121L1111 121L1133 121L1155 121L1177 121L1199 121L1221 121" stroke="url(#SvgjsLinearGradient3433)" stroke-width="3.67"></path><path d="M1215.5 121 a5.5 5.5 0 1 0 11 0 a5.5 5.5 0 1 0 -11 0zM1017.5 143 a5.5 5.5 0 1 0 11 0 a5.5 5.5 0 1 0 -11 0zM973.5 99 a5.5 5.5 0 1 0 11 0 a5.5 5.5 0 1 0 -11 0zM555.5 55 a5.5 5.5 0 1 0 11 0 a5.5 5.5 0 1 0 -11 0zM379.5 55 a5.5 5.5 0 1 0 11 0 a5.5 5.5 0 1 0 -11 0zM225.5 55 a5.5 5.5 0 1 0 11 0 a5.5 5.5 0 1 0 -11 0zM27.5 77 a5.5 5.5 0 1 0 11 0 a5.5 5.5 0 1 0 -11 0zM863.5 99 a5.5 5.5 0 1 0 11 0 a5.5 5.5 0 1 0 -11 0zM1215.5 99 a5.5 5.5 0 1 0 11 0 a5.5 5.5 0 1 0 -11 0zM863.5 143 a5.5 5.5 0 1 0 11 0 a5.5 5.5 0 1 0 -11 0zM1215.5 55 a5.5 5.5 0 1 0 11 0 a5.5 5.5 0 1 0 -11 0zM203.5 99 a5.5 5.5 0 1 0 11 0 a5.5 5.5 0 1 0 -11 0zM511.5 55 a5.5 5.5 0 1 0 11 0 a5.5 5.5 0 1 0 -11 0zM1369.5 99 a5.5 5.5 0 1 0 11 0 a5.5 5.5 0 1 0 -11 0zM1105.5 143 a5.5 5.5 0 1 0 11 0 a5.5 5.5 0 1 0 -11 0z" fill="url(#SvgjsLinearGradient3433)"></path></g></g><defs><mask id="SvgjsMask3432"><rect width="1740" height="351" fill="#ffffff"></rect></mask><linearGradient x1="0" y1="175.5" x2="1513.8" y2="175.5" gradientUnits="userSpaceOnUse" id="SvgjsLinearGradient3433"><stop stop-color="rgba(8, 19, 63, 1)" offset="0"></stop><stop stop-color="rgba(235, 181, 100, 1)" offset="0.69"></stop></linearGradient><mask id="SvgjsMask3434"><rect width="1740" height="351" fill="white"></rect><path d="M778.25 231 a2.75 2.75 0 1 0 5.5 0 a2.75 2.75 0 1 0 -5.5 0zM316.25 165 a2.75 2.75 0 1 0 5.5 0 a2.75 2.75 0 1 0 -5.5 0zM206.25 165 a2.75 2.75 0 1 0 5.5 0 a2.75 2.75 0 1 0 -5.5 0zM734.25 187 a2.75 2.75 0 1 0 5.5 0 a2.75 2.75 0 1 0 -5.5 0zM624.25 165 a2.75 2.75 0 1 0 5.5 0 a2.75 2.75 0 1 0 -5.5 0zM470.25 165 a2.75 2.75 0 1 0 5.5 0 a2.75 2.75 0 1 0 -5.5 0zM250.25 165 a2.75 2.75 0 1 0 5.5 0 a2.75 2.75 0 1 0 -5.5 0zM404.25 143 a2.75 2.75 0 1 0 5.5 0 a2.75 2.75 0 1 0 -5.5 0zM712.25 209 a2.75 2.75 0 1 0 5.5 0 a2.75 2.75 0 1 0 -5.5 0zM514.25 187 a2.75 2.75 0 1 0 5.5 0 a2.75 2.75 0 1 0 -5.5 0z" fill="black"></path><path d="M52.25 187 a2.75 2.75 0 1 0 5.5 0 a2.75 2.75 0 1 0 -5.5 0z" fill="black"></path><path d="M734.25 165 a2.75 2.75 0 1 0 5.5 0 a2.75 2.75 0 1 0 -5.5 0zM536.25 99 a2.75 2.75 0 1 0 5.5 0 a2.75 2.75 0 1 0 -5.5 0zM536.25 165 a2.75 2.75 0 1 0 5.5 0 a2.75 2.75 0 1 0 -5.5 0zM580.25 143 a2.75 2.75 0 1 0 5.5 0 a2.75 2.75 0 1 0 -5.5 0zM712.25 165 a2.75 2.75 0 1 0 5.5 0 a2.75 2.75 0 1 0 -5.5 0zM338.25 143 a2.75 2.75 0 1 0 5.5 0 a2.75 2.75 0 1 0 -5.5 0zM822.25 143 a2.75 2.75 0 1 0 5.5 0 a2.75 2.75 0 1 0 -5.5 0zM382.25 143 a2.75 2.75 0 1 0 5.5 0 a2.75 2.75 0 1 0 -5.5 0zM668.25 165 a2.75 2.75 0 1 0 5.5 0 a2.75 2.75 0 1 0 -5.5 0z" fill="black"></path><path d="M1108.25 231 a2.75 2.75 0 1 0 5.5 0 a2.75 2.75 0 1 0 -5.5 0zM1042.25 209 a2.75 2.75 0 1 0 5.5 0 a2.75 2.75 0 1 0 -5.5 0zM1218.25 209 a2.75 2.75 0 1 0 5.5 0 a2.75 2.75 0 1 0 -5.5 0zM140.25 231 a2.75 2.75 0 1 0 5.5 0 a2.75 2.75 0 1 0 -5.5 0zM96.25 231 a2.75 2.75 0 1 0 5.5 0 a2.75 2.75 0 1 0 -5.5 0zM536.25 253 a2.75 2.75 0 1 0 5.5 0 a2.75 2.75 0 1 0 -5.5 0zM140.25 187 a2.75 2.75 0 1 0 5.5 0 a2.75 2.75 0 1 0 -5.5 0zM250.25 231 a2.75 2.75 0 1 0 5.5 0 a2.75 2.75 0 1 0 -5.5 0zM1196.25 143 a2.75 2.75 0 1 0 5.5 0 a2.75 2.75 0 1 0 -5.5 0zM228.25 231 a2.75 2.75 0 1 0 5.5 0 a2.75 2.75 0 1 0 -5.5 0zM888.25 275 a2.75 2.75 0 1 0 5.5 0 a2.75 2.75 0 1 0 -5.5 0zM1218.25 231 a2.75 2.75 0 1 0 5.5 0 a2.75 2.75 0 1 0 -5.5 0zM602.25 253 a2.75 2.75 0 1 0 5.5 0 a2.75 2.75 0 1 0 -5.5 0zM1130.25 297 a2.75 2.75 0 1 0 5.5 0 a2.75 2.75 0 1 0 -5.5 0z" fill="black"></path><path d="M492.25 99 a2.75 2.75 0 1 0 5.5 0 a2.75 2.75 0 1 0 -5.5 0zM228.25 99 a2.75 2.75 0 1 0 5.5 0 a2.75 2.75 0 1 0 -5.5 0zM294.25 99 a2.75 2.75 0 1 0 5.5 0 a2.75 2.75 0 1 0 -5.5 0zM316.25 121 a2.75 2.75 0 1 0 5.5 0 a2.75 2.75 0 1 0 -5.5 0z" fill="black"></path><path d="M998.25 253 a2.75 2.75 0 1 0 5.5 0 a2.75 2.75 0 1 0 -5.5 0zM448.25 297 a2.75 2.75 0 1 0 5.5 0 a2.75 2.75 0 1 0 -5.5 0zM778.25 297 a2.75 2.75 0 1 0 5.5 0 a2.75 2.75 0 1 0 -5.5 0zM96.25 275 a2.75 2.75 0 1 0 5.5 0 a2.75 2.75 0 1 0 -5.5 0zM1020.25 297 a2.75 2.75 0 1 0 5.5 0 a2.75 2.75 0 1 0 -5.5 0zM404.25 297 a2.75 2.75 0 1 0 5.5 0 a2.75 2.75 0 1 0 -5.5 0zM646.25 297 a2.75 2.75 0 1 0 5.5 0 a2.75 2.75 0 1 0 -5.5 0zM646.25 275 a2.75 2.75 0 1 0 5.5 0 a2.75 2.75 0 1 0 -5.5 0zM580.25 297 a2.75 2.75 0 1 0 5.5 0 a2.75 2.75 0 1 0 -5.5 0zM382.25 253 a2.75 2.75 0 1 0 5.5 0 a2.75 2.75 0 1 0 -5.5 0zM360.25 253 a2.75 2.75 0 1 0 5.5 0 a2.75 2.75 0 1 0 -5.5 0zM536.25 297 a2.75 2.75 0 1 0 5.5 0 a2.75 2.75 0 1 0 -5.5 0z" fill="black"></path><path d="M1218.25 121 a2.75 2.75 0 1 0 5.5 0 a2.75 2.75 0 1 0 -5.5 0zM1020.25 143 a2.75 2.75 0 1 0 5.5 0 a2.75 2.75 0 1 0 -5.5 0zM976.25 99 a2.75 2.75 0 1 0 5.5 0 a2.75 2.75 0 1 0 -5.5 0zM558.25 55 a2.75 2.75 0 1 0 5.5 0 a2.75 2.75 0 1 0 -5.5 0zM382.25 55 a2.75 2.75 0 1 0 5.5 0 a2.75 2.75 0 1 0 -5.5 0zM228.25 55 a2.75 2.75 0 1 0 5.5 0 a2.75 2.75 0 1 0 -5.5 0zM30.25 77 a2.75 2.75 0 1 0 5.5 0 a2.75 2.75 0 1 0 -5.5 0zM866.25 99 a2.75 2.75 0 1 0 5.5 0 a2.75 2.75 0 1 0 -5.5 0zM1218.25 99 a2.75 2.75 0 1 0 5.5 0 a2.75 2.75 0 1 0 -5.5 0zM866.25 143 a2.75 2.75 0 1 0 5.5 0 a2.75 2.75 0 1 0 -5.5 0zM1218.25 55 a2.75 2.75 0 1 0 5.5 0 a2.75 2.75 0 1 0 -5.5 0zM206.25 99 a2.75 2.75 0 1 0 5.5 0 a2.75 2.75 0 1 0 -5.5 0zM514.25 55 a2.75 2.75 0 1 0 5.5 0 a2.75 2.75 0 1 0 -5.5 0zM1372.25 99 a2.75 2.75 0 1 0 5.5 0 a2.75 2.75 0 1 0 -5.5 0zM1108.25 143 a2.75 2.75 0 1 0 5.5 0 a2.75 2.75 0 1 0 -5.5 0z" fill="black"></path></mask></defs></svg>