<svg xmlns="http://www.w3.org/2000/svg" version="1.1" xmlns:xlink="http://www.w3.org/1999/xlink" xmlns:svgjs="http://svgjs.com/svgjs" width="1440" height="442" preserveAspectRatio="none" viewBox="0 0 1440 442"><g mask="url(&quot;#SvgjsMask1023&quot;)" fill="none"><rect width="1440" height="442" x="0" y="0" fill="rgba(235, 181, 100, 1)"></rect><path d="M1488 442L0 442 L0 273.46Q57.22 210.68, 120 267.9Q192.43 220.32, 240 292.75Q241.63 222.38, 312 224.01Q377.2 169.21, 432 234.42Q485.86 216.28, 504 270.14Q569.68 215.82, 624 281.51Q659.56 197.07, 744 232.63Q785.03 201.66, 816 242.69Q861.72 216.41, 888 262.13Q937.4 239.53, 960 288.93Q988.94 197.87, 1080 226.81Q1123.99 198.8, 1152 242.78Q1198.59 217.37, 1224 263.96Q1274.39 242.36, 1296 292.75Q1328.73 205.48, 1416 238.21Q1468.35 218.56, 1488 270.91z" fill="#182f5d"></path><path d="M1488 442L0 442 L0 303.13Q68.96 252.09, 120 321.05Q163.93 292.98, 192 336.9Q207.35 280.25, 264 295.6Q336.64 248.25, 384 320.89Q429.19 294.08, 456 339.28Q467.95 279.23, 528 291.18Q597.2 240.38, 648 309.59Q725.57 267.16, 768 344.73Q800.63 257.36, 888 289.99Q957.23 239.22, 1008 308.45Q1085.7 266.15, 1128 343.85Q1181.88 277.73, 1248 331.6Q1300.07 263.67, 1368 315.74Q1444.92 272.66, 1488 349.59z" fill="#25467d"></path><path d="M1488 442L0 442 L0 395.34Q5.5 328.84, 72 334.34Q139.82 282.16, 192 349.98Q277.81 315.79, 312 401.6Q327.38 344.98, 384 360.36Q433.2 289.56, 504 338.76Q561.22 323.98, 576 381.2Q646.89 332.09, 696 402.98Q723.28 310.26, 816 337.54Q884.12 285.66, 936 353.78Q994.6 340.38, 1008 398.97Q1034.73 353.7, 1080 380.42Q1099.78 328.2, 1152 347.97Q1195.74 319.72, 1224 363.46Q1269.96 337.42, 1296 383.39Q1337.41 352.8, 1368 394.21Q1434.54 340.75, 1488 407.28z" fill="rgba(235, 181, 100, 1)"></path><path d="M1536 442L0 442 L0 428.46Q26.43 382.88, 72 409.31Q122.71 388.02, 144 438.73Q173.78 396.51, 216 426.29Q244.38 382.67, 288 411.04Q341.61 344.65, 408 398.27Q469.63 387.9, 480 449.53Q531.98 381.5, 600 433.48Q624.84 386.32, 672 411.16Q724.2 343.36, 792 395.56Q844.19 375.75, 864 427.94Q914.64 406.58, 936 457.22Q945.11 394.33, 1008 403.43Q1077.74 353.18, 1128 422.92Q1171.13 394.05, 1200 437.18Q1248.44 413.63, 1272 462.07Q1286.59 404.65, 1344 419.24Q1386.15 389.39, 1416 431.55Q1463.45 359, 1536 406.45z" fill="white"></path></g><defs><mask id="SvgjsMask1023"><rect width="1440" height="442" fill="#ffffff"></rect></mask></defs></svg>