<svg xmlns="http://www.w3.org/2000/svg" version="1.1" xmlns:xlink="http://www.w3.org/1999/xlink" xmlns:svgjs="http://svgjs.com/svgjs" width="1440" height="560" preserveAspectRatio="none" viewBox="0 0 1440 560"><g mask="url(&quot;#SvgjsMask1034&quot;)" fill="none"><rect width="1440" height="560" x="0" y="0" fill="#0e2a47"></rect><path d="M-51.3 376.38L-51.3 376.38" stroke="rgba(8, 19, 63, 1)" stroke-width="1.5"></path><path d="M-51.3 376.38L-40 491.86" stroke="rgba(8, 19, 63, 1)" stroke-width="1.5"></path><path d="M-51.3 376.38L93.11 365.19" stroke="rgba(8, 19, 63, 1)" stroke-width="1.5"></path><path d="M-51.3 376.38L232.44 344.72" stroke="rgba(8, 19, 63, 1)" stroke-width="1.5"></path><path d="M-40 491.86L-40 491.86" stroke="rgba(8, 19, 63, 1)" stroke-width="1.5"></path><path d="M-40 491.86L-42.2 668.41" stroke="rgba(8, 19, 63, 1)" stroke-width="1.5"></path><path d="M-40 491.86L93.11 365.19" stroke="rgba(8, 19, 63, 1)" stroke-width="1.5"></path><path d="M-42.2 668.41L-42.2 668.41" stroke="rgba(8, 19, 63, 1)" stroke-width="1.5"></path><path d="M-42.2 668.41L-51.3 376.38" stroke="rgba(8, 19, 63, 1)" stroke-width="1.5"></path><path d="M-42.2 668.41L258.11 663.2" stroke="rgba(8, 19, 63, 1)" stroke-width="1.5"></path><path d="M-42.2 668.41L252.73 537.96" stroke="rgba(8, 19, 63, 1)" stroke-width="1.5"></path><path d="M-42.2 668.41L93.11 365.19" stroke="rgba(8, 19, 63, 1)" stroke-width="1.5"></path><path d="M93.11 365.19L93.11 365.19" stroke="rgba(8, 19, 63, 1)" stroke-width="1.5"></path><path d="M93.11 365.19L232.44 344.72" stroke="rgba(8, 19, 63, 1)" stroke-width="1.5"></path><path d="M93.11 365.19L252.73 537.96" stroke="rgba(8, 19, 63, 1)" stroke-width="1.5"></path><path d="M93.11 365.19L359.7 345.8" stroke="rgba(8, 19, 63, 1)" stroke-width="1.5"></path><path d="M232.44 344.72L232.44 344.72" stroke="rgba(8, 19, 63, 1)" stroke-width="1.5"></path><path d="M232.44 344.72L359.7 345.8" stroke="rgba(8, 19, 63, 1)" stroke-width="1.5"></path><path d="M232.44 344.72L252.73 537.96" stroke="rgba(8, 19, 63, 1)" stroke-width="1.5"></path><path d="M232.44 344.72L390.48 560.33" stroke="rgba(8, 19, 63, 1)" stroke-width="1.5"></path><path d="M232.44 344.72L526.13 366.98" stroke="rgba(8, 19, 63, 1)" stroke-width="1.5"></path><path d="M252.73 537.96L252.73 537.96" stroke="rgba(8, 19, 63, 1)" stroke-width="1.5"></path><path d="M252.73 537.96L258.11 663.2" stroke="rgba(8, 19, 63, 1)" stroke-width="1.5"></path><path d="M252.73 537.96L390.48 560.33" stroke="rgba(8, 19, 63, 1)" stroke-width="1.5"></path><path d="M252.73 537.96L377.38 706.88" stroke="rgba(8, 19, 63, 1)" stroke-width="1.5"></path><path d="M258.11 663.2L258.11 663.2" stroke="rgba(8, 19, 63, 1)" stroke-width="1.5"></path><path d="M258.11 663.2L377.38 706.88" stroke="rgba(8, 19, 63, 1)" stroke-width="1.5"></path><path d="M359.7 345.8L359.7 345.8" stroke="rgba(8, 19, 63, 1)" stroke-width="1.5"></path><path d="M359.7 345.8L526.13 366.98" stroke="rgba(8, 19, 63, 1)" stroke-width="1.5"></path><path d="M359.7 345.8L390.48 560.33" stroke="rgba(8, 19, 63, 1)" stroke-width="1.5"></path><path d="M359.7 345.8L252.73 537.96" stroke="rgba(8, 19, 63, 1)" stroke-width="1.5"></path><path d="M390.48 560.33L390.48 560.33" stroke="rgba(8, 19, 63, 1)" stroke-width="1.5"></path><path d="M390.48 560.33L377.38 706.88" stroke="rgba(8, 19, 63, 1)" stroke-width="1.5"></path><path d="M377.38 706.88L377.38 706.88" stroke="rgba(8, 19, 63, 1)" stroke-width="1.5"></path><path d="M377.38 706.88L518.32 669.02" stroke="rgba(8, 19, 63, 1)" stroke-width="1.5"></path><path d="M377.38 706.88L556.47 506.93" stroke="rgba(8, 19, 63, 1)" stroke-width="1.5"></path><path d="M526.13 366.98L526.13 366.98" stroke="rgba(8, 19, 63, 1)" stroke-width="1.5"></path><path d="M526.13 366.98L556.47 506.93" stroke="rgba(8, 19, 63, 1)" stroke-width="1.5"></path><path d="M526.13 366.98L680.09 390.67" stroke="rgba(8, 19, 63, 1)" stroke-width="1.5"></path><path d="M526.13 366.98L640.6 253.28" stroke="rgba(8, 19, 63, 1)" stroke-width="1.5"></path><path d="M556.47 506.93L556.47 506.93" stroke="rgba(8, 19, 63, 1)" stroke-width="1.5"></path><path d="M556.47 506.93L677.8 504.18" stroke="rgba(8, 19, 63, 1)" stroke-width="1.5"></path><path d="M556.47 506.93L518.32 669.02" stroke="rgba(8, 19, 63, 1)" stroke-width="1.5"></path><path d="M556.47 506.93L680.09 390.67" stroke="rgba(8, 19, 63, 1)" stroke-width="1.5"></path><path d="M556.47 506.93L390.48 560.33" stroke="rgba(8, 19, 63, 1)" stroke-width="1.5"></path><path d="M518.32 669.02L518.32 669.02" stroke="rgba(8, 19, 63, 1)" stroke-width="1.5"></path><path d="M518.32 669.02L390.48 560.33" stroke="rgba(8, 19, 63, 1)" stroke-width="1.5"></path><path d="M518.32 669.02L702.29 645.58" stroke="rgba(8, 19, 63, 1)" stroke-width="1.5"></path><path d="M640.6 253.28L640.6 253.28" stroke="rgba(8, 19, 63, 1)" stroke-width="1.5"></path><path d="M640.6 253.28L680.09 390.67" stroke="rgba(8, 19, 63, 1)" stroke-width="1.5"></path><path d="M640.6 253.28L839.19 211.09" stroke="rgba(8, 19, 63, 1)" stroke-width="1.5"></path><path d="M640.6 253.28L823.76 404.74" stroke="rgba(8, 19, 63, 1)" stroke-width="1.5"></path><path d="M640.6 253.28L677.8 504.18" stroke="rgba(8, 19, 63, 1)" stroke-width="1.5"></path><path d="M680.09 390.67L680.09 390.67" stroke="rgba(8, 19, 63, 1)" stroke-width="1.5"></path><path d="M680.09 390.67L677.8 504.18" stroke="rgba(8, 19, 63, 1)" stroke-width="1.5"></path><path d="M680.09 390.67L823.76 404.74" stroke="rgba(8, 19, 63, 1)" stroke-width="1.5"></path><path d="M677.8 504.18L677.8 504.18" stroke="rgba(8, 19, 63, 1)" stroke-width="1.5"></path><path d="M677.8 504.18L702.29 645.58" stroke="rgba(8, 19, 63, 1)" stroke-width="1.5"></path><path d="M677.8 504.18L826.78 496.93" stroke="rgba(8, 19, 63, 1)" stroke-width="1.5"></path><path d="M677.8 504.18L823.76 404.74" stroke="rgba(8, 19, 63, 1)" stroke-width="1.5"></path><path d="M702.29 645.58L702.29 645.58" stroke="rgba(8, 19, 63, 1)" stroke-width="1.5"></path><path d="M702.29 645.58L834.16 646.77" stroke="rgba(8, 19, 63, 1)" stroke-width="1.5"></path><path d="M702.29 645.58L826.78 496.93" stroke="rgba(8, 19, 63, 1)" stroke-width="1.5"></path><path d="M702.29 645.58L556.47 506.93" stroke="rgba(8, 19, 63, 1)" stroke-width="1.5"></path><path d="M839.31 89.86L839.31 89.86" stroke="rgba(8, 19, 63, 1)" stroke-width="1.5"></path><path d="M839.31 89.86L839.19 211.09" stroke="rgba(8, 19, 63, 1)" stroke-width="1.5"></path><path d="M839.31 89.86L968.98 93.15" stroke="rgba(8, 19, 63, 1)" stroke-width="1.5"></path><path d="M839.31 89.86L1010.03 206.72" stroke="rgba(8, 19, 63, 1)" stroke-width="1.5"></path><path d="M839.31 89.86L1001.19 -83.68" stroke="rgba(8, 19, 63, 1)" stroke-width="1.5"></path><path d="M839.19 211.09L839.19 211.09" stroke="rgba(8, 19, 63, 1)" stroke-width="1.5"></path><path d="M839.19 211.09L1010.03 206.72" stroke="rgba(8, 19, 63, 1)" stroke-width="1.5"></path><path d="M839.19 211.09L954.45 338.2" stroke="rgba(8, 19, 63, 1)" stroke-width="1.5"></path><path d="M839.19 211.09L968.98 93.15" stroke="rgba(8, 19, 63, 1)" stroke-width="1.5"></path><path d="M823.76 404.74L823.76 404.74" stroke="rgba(8, 19, 63, 1)" stroke-width="1.5"></path><path d="M823.76 404.74L826.78 496.93" stroke="rgba(8, 19, 63, 1)" stroke-width="1.5"></path><path d="M823.76 404.74L954.45 338.2" stroke="rgba(8, 19, 63, 1)" stroke-width="1.5"></path><path d="M826.78 496.93L826.78 496.93" stroke="rgba(8, 19, 63, 1)" stroke-width="1.5"></path><path d="M826.78 496.93L834.16 646.77" stroke="rgba(8, 19, 63, 1)" stroke-width="1.5"></path><path d="M826.78 496.93L988.17 539.28" stroke="rgba(8, 19, 63, 1)" stroke-width="1.5"></path><path d="M834.16 646.77L834.16 646.77" stroke="rgba(8, 19, 63, 1)" stroke-width="1.5"></path><path d="M834.16 646.77L957.3 697.58" stroke="rgba(8, 19, 63, 1)" stroke-width="1.5"></path><path d="M834.16 646.77L988.17 539.28" stroke="rgba(8, 19, 63, 1)" stroke-width="1.5"></path><path d="M834.16 646.77L677.8 504.18" stroke="rgba(8, 19, 63, 1)" stroke-width="1.5"></path><path d="M834.16 646.77L823.76 404.74" stroke="rgba(8, 19, 63, 1)" stroke-width="1.5"></path><path d="M1001.19 -83.68L1001.19 -83.68" stroke="rgba(8, 19, 63, 1)" stroke-width="1.5"></path><path d="M1001.19 -83.68L1146.83 -100.19" stroke="rgba(8, 19, 63, 1)" stroke-width="1.5"></path><path d="M1001.19 -83.68L968.98 93.15" stroke="rgba(8, 19, 63, 1)" stroke-width="1.5"></path><path d="M1001.19 -83.68L1158.2 42.64" stroke="rgba(8, 19, 63, 1)" stroke-width="1.5"></path><path d="M968.98 93.15L968.98 93.15" stroke="rgba(8, 19, 63, 1)" stroke-width="1.5"></path><path d="M968.98 93.15L1010.03 206.72" stroke="rgba(8, 19, 63, 1)" stroke-width="1.5"></path><path d="M1010.03 206.72L1010.03 206.72" stroke="rgba(8, 19, 63, 1)" stroke-width="1.5"></path><path d="M1010.03 206.72L954.45 338.2" stroke="rgba(8, 19, 63, 1)" stroke-width="1.5"></path><path d="M954.45 338.2L954.45 338.2" stroke="rgba(8, 19, 63, 1)" stroke-width="1.5"></path><path d="M954.45 338.2L1145.16 385.71" stroke="rgba(8, 19, 63, 1)" stroke-width="1.5"></path><path d="M954.45 338.2L826.78 496.93" stroke="rgba(8, 19, 63, 1)" stroke-width="1.5"></path><path d="M954.45 338.2L988.17 539.28" stroke="rgba(8, 19, 63, 1)" stroke-width="1.5"></path><path d="M988.17 539.28L988.17 539.28" stroke="rgba(8, 19, 63, 1)" stroke-width="1.5"></path><path d="M988.17 539.28L1127.05 502.69" stroke="rgba(8, 19, 63, 1)" stroke-width="1.5"></path><path d="M988.17 539.28L957.3 697.58" stroke="rgba(8, 19, 63, 1)" stroke-width="1.5"></path><path d="M957.3 697.58L957.3 697.58" stroke="rgba(8, 19, 63, 1)" stroke-width="1.5"></path><path d="M1146.83 -100.19L1146.83 -100.19" stroke="rgba(8, 19, 63, 1)" stroke-width="1.5"></path><path d="M1146.83 -100.19L1238.35 -99.9" stroke="rgba(8, 19, 63, 1)" stroke-width="1.5"></path><path d="M1146.83 -100.19L1158.2 42.64" stroke="rgba(8, 19, 63, 1)" stroke-width="1.5"></path><path d="M1146.83 -100.19L1283.23 53.96" stroke="rgba(8, 19, 63, 1)" stroke-width="1.5"></path><path d="M1146.83 -100.19L968.98 93.15" stroke="rgba(8, 19, 63, 1)" stroke-width="1.5"></path><path d="M1158.2 42.64L1158.2 42.64" stroke="rgba(8, 19, 63, 1)" stroke-width="1.5"></path><path d="M1158.2 42.64L1283.23 53.96" stroke="rgba(8, 19, 63, 1)" stroke-width="1.5"></path><path d="M1158.2 42.64L1159.62 202.91" stroke="rgba(8, 19, 63, 1)" stroke-width="1.5"></path><path d="M1158.2 42.64L1238.35 -99.9" stroke="rgba(8, 19, 63, 1)" stroke-width="1.5"></path><path d="M1158.2 42.64L968.98 93.15" stroke="rgba(8, 19, 63, 1)" stroke-width="1.5"></path><path d="M1159.62 202.91L1159.62 202.91" stroke="rgba(8, 19, 63, 1)" stroke-width="1.5"></path><path d="M1159.62 202.91L1292.62 237.59" stroke="rgba(8, 19, 63, 1)" stroke-width="1.5"></path><path d="M1159.62 202.91L1010.03 206.72" stroke="rgba(8, 19, 63, 1)" stroke-width="1.5"></path><path d="M1159.62 202.91L1145.16 385.71" stroke="rgba(8, 19, 63, 1)" stroke-width="1.5"></path><path d="M1159.62 202.91L1283.23 53.96" stroke="rgba(8, 19, 63, 1)" stroke-width="1.5"></path><path d="M1159.62 202.91L968.98 93.15" stroke="rgba(8, 19, 63, 1)" stroke-width="1.5"></path><path d="M1145.16 385.71L1145.16 385.71" stroke="rgba(8, 19, 63, 1)" stroke-width="1.5"></path><path d="M1145.16 385.71L1127.05 502.69" stroke="rgba(8, 19, 63, 1)" stroke-width="1.5"></path><path d="M1145.16 385.71L1301.01 375.7" stroke="rgba(8, 19, 63, 1)" stroke-width="1.5"></path><path d="M1127.05 502.69L1127.05 502.69" stroke="rgba(8, 19, 63, 1)" stroke-width="1.5"></path><path d="M1127.05 502.69L1301.01 375.7" stroke="rgba(8, 19, 63, 1)" stroke-width="1.5"></path><path d="M1127.05 502.69L1254.92 701.07" stroke="rgba(8, 19, 63, 1)" stroke-width="1.5"></path><path d="M1127.05 502.69L954.45 338.2" stroke="rgba(8, 19, 63, 1)" stroke-width="1.5"></path><path d="M1127.05 502.69L957.3 697.58" stroke="rgba(8, 19, 63, 1)" stroke-width="1.5"></path><path d="M1238.35 -99.9L1238.35 -99.9" stroke="rgba(8, 19, 63, 1)" stroke-width="1.5"></path><path d="M1238.35 -99.9L1283.23 53.96" stroke="rgba(8, 19, 63, 1)" stroke-width="1.5"></path><path d="M1283.23 53.96L1283.23 53.96" stroke="rgba(8, 19, 63, 1)" stroke-width="1.5"></path><path d="M1292.62 237.59L1292.62 237.59" stroke="rgba(8, 19, 63, 1)" stroke-width="1.5"></path><path d="M1292.62 237.59L1301.01 375.7" stroke="rgba(8, 19, 63, 1)" stroke-width="1.5"></path><path d="M1292.62 237.59L1432.08 222.67" stroke="rgba(8, 19, 63, 1)" stroke-width="1.5"></path><path d="M1292.62 237.59L1419.27 356.53" stroke="rgba(8, 19, 63, 1)" stroke-width="1.5"></path><path d="M1301.01 375.7L1301.01 375.7" stroke="rgba(8, 19, 63, 1)" stroke-width="1.5"></path><path d="M1301.01 375.7L1419.27 356.53" stroke="rgba(8, 19, 63, 1)" stroke-width="1.5"></path><path d="M1301.01 375.7L1432.08 222.67" stroke="rgba(8, 19, 63, 1)" stroke-width="1.5"></path><path d="M1254.92 701.07L1254.92 701.07" stroke="rgba(8, 19, 63, 1)" stroke-width="1.5"></path><path d="M1254.92 701.07L1399.72 708.34" stroke="rgba(8, 19, 63, 1)" stroke-width="1.5"></path><path d="M1434.91 -44.49L1434.91 -44.49" stroke="rgba(8, 19, 63, 1)" stroke-width="1.5"></path><path d="M1434.91 -44.49L1445.51 61.32" stroke="rgba(8, 19, 63, 1)" stroke-width="1.5"></path><path d="M1434.91 -44.49L1568.15 -87.69" stroke="rgba(8, 19, 63, 1)" stroke-width="1.5"></path><path d="M1434.91 -44.49L1583.57 49.9" stroke="rgba(8, 19, 63, 1)" stroke-width="1.5"></path><path d="M1445.51 61.32L1445.51 61.32" stroke="rgba(8, 19, 63, 1)" stroke-width="1.5"></path><path d="M1445.51 61.32L1583.57 49.9" stroke="rgba(8, 19, 63, 1)" stroke-width="1.5"></path><path d="M1445.51 61.32L1432.08 222.67" stroke="rgba(8, 19, 63, 1)" stroke-width="1.5"></path><path d="M1432.08 222.67L1432.08 222.67" stroke="rgba(8, 19, 63, 1)" stroke-width="1.5"></path><path d="M1432.08 222.67L1540.9 242.55" stroke="rgba(8, 19, 63, 1)" stroke-width="1.5"></path><path d="M1432.08 222.67L1419.27 356.53" stroke="rgba(8, 19, 63, 1)" stroke-width="1.5"></path><path d="M1432.08 222.67L1545.87 372.61" stroke="rgba(8, 19, 63, 1)" stroke-width="1.5"></path><path d="M1419.27 356.53L1419.27 356.53" stroke="rgba(8, 19, 63, 1)" stroke-width="1.5"></path><path d="M1419.27 356.53L1545.87 372.61" stroke="rgba(8, 19, 63, 1)" stroke-width="1.5"></path><path d="M1419.27 356.53L1461.65 504.72" stroke="rgba(8, 19, 63, 1)" stroke-width="1.5"></path><path d="M1419.27 356.53L1540.9 242.55" stroke="rgba(8, 19, 63, 1)" stroke-width="1.5"></path><path d="M1461.65 504.72L1461.65 504.72" stroke="rgba(8, 19, 63, 1)" stroke-width="1.5"></path><path d="M1461.65 504.72L1601.47 510.52" stroke="rgba(8, 19, 63, 1)" stroke-width="1.5"></path><path d="M1461.65 504.72L1545.87 372.61" stroke="rgba(8, 19, 63, 1)" stroke-width="1.5"></path><path d="M1461.65 504.72L1301.01 375.7" stroke="rgba(8, 19, 63, 1)" stroke-width="1.5"></path><path d="M1461.65 504.72L1399.72 708.34" stroke="rgba(8, 19, 63, 1)" stroke-width="1.5"></path><path d="M1461.65 504.72L1604.68 677.35" stroke="rgba(8, 19, 63, 1)" stroke-width="1.5"></path><path d="M1399.72 708.34L1399.72 708.34" stroke="rgba(8, 19, 63, 1)" stroke-width="1.5"></path><path d="M1399.72 708.34L1604.68 677.35" stroke="rgba(8, 19, 63, 1)" stroke-width="1.5"></path><path d="M1568.15 -87.69L1568.15 -87.69" stroke="rgba(8, 19, 63, 1)" stroke-width="1.5"></path><path d="M1568.15 -87.69L1583.57 49.9" stroke="rgba(8, 19, 63, 1)" stroke-width="1.5"></path><path d="M1568.15 -87.69L1445.51 61.32" stroke="rgba(8, 19, 63, 1)" stroke-width="1.5"></path><path d="M1568.15 -87.69L1283.23 53.96" stroke="rgba(8, 19, 63, 1)" stroke-width="1.5"></path><path d="M1568.15 -87.69L1238.35 -99.9" stroke="rgba(8, 19, 63, 1)" stroke-width="1.5"></path><path d="M1583.57 49.9L1583.57 49.9" stroke="rgba(8, 19, 63, 1)" stroke-width="1.5"></path><path d="M1583.57 49.9L1540.9 242.55" stroke="rgba(8, 19, 63, 1)" stroke-width="1.5"></path><path d="M1540.9 242.55L1540.9 242.55" stroke="rgba(8, 19, 63, 1)" stroke-width="1.5"></path><path d="M1545.87 372.61L1545.87 372.61" stroke="rgba(8, 19, 63, 1)" stroke-width="1.5"></path><path d="M1545.87 372.61L1540.9 242.55" stroke="rgba(8, 19, 63, 1)" stroke-width="1.5"></path><path d="M1601.47 510.52L1601.47 510.52" stroke="rgba(8, 19, 63, 1)" stroke-width="1.5"></path><path d="M1601.47 510.52L1545.87 372.61" stroke="rgba(8, 19, 63, 1)" stroke-width="1.5"></path><path d="M1601.47 510.52L1604.68 677.35" stroke="rgba(8, 19, 63, 1)" stroke-width="1.5"></path><path d="M1601.47 510.52L1419.27 356.53" stroke="rgba(8, 19, 63, 1)" stroke-width="1.5"></path><path d="M1601.47 510.52L1540.9 242.55" stroke="rgba(8, 19, 63, 1)" stroke-width="1.5"></path><path d="M1601.47 510.52L1399.72 708.34" stroke="rgba(8, 19, 63, 1)" stroke-width="1.5"></path><path d="M1604.68 677.35L1604.68 677.35" stroke="rgba(8, 19, 63, 1)" stroke-width="1.5"></path><path d="M1604.68 677.35L1545.87 372.61" stroke="rgba(8, 19, 63, 1)" stroke-width="1.5"></path><circle r="5" cx="-51.3" cy="376.38" fill="rgba(8, 19, 63, 1)"></circle><circle r="5" cx="-40" cy="491.86" fill="rgba(8, 19, 63, 1)"></circle><circle r="5" cx="-42.2" cy="668.41" fill="rgba(8, 19, 63, 1)"></circle><circle r="5" cx="93.11" cy="365.19" fill="rgba(8, 19, 63, 1)"></circle><circle r="5" cx="232.44" cy="344.72" fill="rgba(8, 19, 63, 1)"></circle><circle r="5" cx="252.73" cy="537.96" fill="rgba(8, 19, 63, 1)"></circle><circle r="5" cx="258.11" cy="663.2" fill="rgba(8, 19, 63, 1)"></circle><circle r="5" cx="359.7" cy="345.8" fill="rgba(8, 19, 63, 1)"></circle><circle r="5" cx="390.48" cy="560.33" fill="rgba(8, 19, 63, 1)"></circle><circle r="5" cx="377.38" cy="706.88" fill="rgba(8, 19, 63, 1)"></circle><circle r="5" cx="526.13" cy="366.98" fill="rgba(8, 19, 63, 1)"></circle><circle r="5" cx="556.47" cy="506.93" fill="rgba(8, 19, 63, 1)"></circle><circle r="5" cx="518.32" cy="669.02" fill="rgba(8, 19, 63, 1)"></circle><circle r="5" cx="640.6" cy="253.28" fill="rgba(8, 19, 63, 1)"></circle><circle r="5" cx="680.09" cy="390.67" fill="rgba(8, 19, 63, 1)"></circle><circle r="5" cx="677.8" cy="504.18" fill="rgba(8, 19, 63, 1)"></circle><circle r="5" cx="702.29" cy="645.58" fill="rgba(8, 19, 63, 1)"></circle><circle r="5" cx="839.31" cy="89.86" fill="rgba(8, 19, 63, 1)"></circle><circle r="5" cx="839.19" cy="211.09" fill="rgba(8, 19, 63, 1)"></circle><circle r="5" cx="823.76" cy="404.74" fill="rgba(8, 19, 63, 1)"></circle><circle r="5" cx="826.78" cy="496.93" fill="rgba(8, 19, 63, 1)"></circle><circle r="5" cx="834.16" cy="646.77" fill="rgba(8, 19, 63, 1)"></circle><circle r="5" cx="1001.19" cy="-83.68" fill="rgba(8, 19, 63, 1)"></circle><circle r="5" cx="968.98" cy="93.15" fill="rgba(8, 19, 63, 1)"></circle><circle r="5" cx="1010.03" cy="206.72" fill="rgba(8, 19, 63, 1)"></circle><circle r="5" cx="954.45" cy="338.2" fill="rgba(8, 19, 63, 1)"></circle><circle r="5" cx="988.17" cy="539.28" fill="rgba(8, 19, 63, 1)"></circle><circle r="5" cx="957.3" cy="697.58" fill="rgba(8, 19, 63, 1)"></circle><circle r="5" cx="1146.83" cy="-100.19" fill="rgba(8, 19, 63, 1)"></circle><circle r="5" cx="1158.2" cy="42.64" fill="rgba(8, 19, 63, 1)"></circle><circle r="5" cx="1159.62" cy="202.91" fill="rgba(8, 19, 63, 1)"></circle><circle r="5" cx="1145.16" cy="385.71" fill="rgba(8, 19, 63, 1)"></circle><circle r="5" cx="1127.05" cy="502.69" fill="rgba(8, 19, 63, 1)"></circle><circle r="5" cx="1238.35" cy="-99.9" fill="rgba(8, 19, 63, 1)"></circle><circle r="5" cx="1283.23" cy="53.96" fill="rgba(8, 19, 63, 1)"></circle><circle r="5" cx="1292.62" cy="237.59" fill="rgba(8, 19, 63, 1)"></circle><circle r="5" cx="1301.01" cy="375.7" fill="rgba(8, 19, 63, 1)"></circle><circle r="5" cx="1254.92" cy="701.07" fill="rgba(8, 19, 63, 1)"></circle><circle r="5" cx="1434.91" cy="-44.49" fill="rgba(8, 19, 63, 1)"></circle><circle r="5" cx="1445.51" cy="61.32" fill="rgba(8, 19, 63, 1)"></circle><circle r="5" cx="1432.08" cy="222.67" fill="rgba(8, 19, 63, 1)"></circle><circle r="5" cx="1419.27" cy="356.53" fill="rgba(8, 19, 63, 1)"></circle><circle r="5" cx="1461.65" cy="504.72" fill="rgba(8, 19, 63, 1)"></circle><circle r="5" cx="1399.72" cy="708.34" fill="rgba(8, 19, 63, 1)"></circle><circle r="5" cx="1568.15" cy="-87.69" fill="rgba(8, 19, 63, 1)"></circle><circle r="5" cx="1583.57" cy="49.9" fill="rgba(8, 19, 63, 1)"></circle><circle r="5" cx="1540.9" cy="242.55" fill="rgba(8, 19, 63, 1)"></circle><circle r="5" cx="1545.87" cy="372.61" fill="rgba(8, 19, 63, 1)"></circle><circle r="5" cx="1601.47" cy="510.52" fill="rgba(8, 19, 63, 1)"></circle><circle r="5" cx="1604.68" cy="677.35" fill="rgba(8, 19, 63, 1)"></circle><path d="M-58.83 536.85L-58.83 536.85" stroke="hsl(36, 77.1%, 85.4%)" stroke-width="1.5"></path><path d="M-58.83 536.85L65.81 512.53" stroke="hsl(36, 77.1%, 85.4%)" stroke-width="1.5"></path><path d="M-58.83 536.85L-89.28 674.4" stroke="hsl(36, 77.1%, 85.4%)" stroke-width="1.5"></path><path d="M-58.83 536.85L107.12 678.76" stroke="hsl(36, 77.1%, 85.4%)" stroke-width="1.5"></path><path d="M-58.83 536.85L204.63 523.88" stroke="hsl(36, 77.1%, 85.4%)" stroke-width="1.5"></path><path d="M-58.83 536.85L196.89 640.57" stroke="hsl(36, 77.1%, 85.4%)" stroke-width="1.5"></path><path d="M204.63 523.88L204.63 523.88" stroke="hsl(36, 77.1%, 85.4%)" stroke-width="1.5"></path><path d="M204.63 523.88L196.89 640.57" stroke="hsl(36, 77.1%, 85.4%)" stroke-width="1.5"></path><path d="M204.63 523.88L65.81 512.53" stroke="hsl(36, 77.1%, 85.4%)" stroke-width="1.5"></path><path d="M204.63 523.88L349.37 500.43" stroke="hsl(36, 77.1%, 85.4%)" stroke-width="1.5"></path><path d="M196.89 640.57L196.89 640.57" stroke="hsl(36, 77.1%, 85.4%)" stroke-width="1.5"></path><path d="M196.89 640.57L107.12 678.76" stroke="hsl(36, 77.1%, 85.4%)" stroke-width="1.5"></path><path d="M196.89 640.57L65.81 512.53" stroke="hsl(36, 77.1%, 85.4%)" stroke-width="1.5"></path><path d="M196.89 640.57L349.37 500.43" stroke="hsl(36, 77.1%, 85.4%)" stroke-width="1.5"></path><path d="M196.89 640.57L411.82 659.81" stroke="hsl(36, 77.1%, 85.4%)" stroke-width="1.5"></path><path d="M652.69 519.59L652.69 519.59" stroke="hsl(36, 77.1%, 85.4%)" stroke-width="1.5"></path><path d="M652.69 519.59L530.47 522.83" stroke="hsl(36, 77.1%, 85.4%)" stroke-width="1.5"></path><path d="M652.69 519.59L662.68 655.73" stroke="hsl(36, 77.1%, 85.4%)" stroke-width="1.5"></path><path d="M978.21 529.4L978.21 529.4" stroke="hsl(36, 77.1%, 85.4%)" stroke-width="1.5"></path><path d="M978.21 529.4L1146.38 506.59" stroke="hsl(36, 77.1%, 85.4%)" stroke-width="1.5"></path><path d="M978.21 529.4L969.31 702.18" stroke="hsl(36, 77.1%, 85.4%)" stroke-width="1.5"></path><path d="M1612.05 57.85L1612.05 57.85" stroke="hsl(36, 77.1%, 85.4%)" stroke-width="1.5"></path><path d="M1612.05 57.85L1595.66 -89.05" stroke="hsl(36, 77.1%, 85.4%)" stroke-width="1.5"></path><path d="M1612.05 57.85L1598.08 210.75" stroke="hsl(36, 77.1%, 85.4%)" stroke-width="1.5"></path><path d="M1612.05 57.85L1410.94 43.31" stroke="hsl(36, 77.1%, 85.4%)" stroke-width="1.5"></path><path d="M1612.05 57.85L1429.78 -106.36" stroke="hsl(36, 77.1%, 85.4%)" stroke-width="1.5"></path><path d="M1598.08 210.75L1598.08 210.75" stroke="hsl(36, 77.1%, 85.4%)" stroke-width="1.5"></path><path d="M1598.08 210.75L1586.84 340.46" stroke="hsl(36, 77.1%, 85.4%)" stroke-width="1.5"></path><path d="M1598.08 210.75L1411.77 223.64" stroke="hsl(36, 77.1%, 85.4%)" stroke-width="1.5"></path><path d="M1598.08 210.75L1410.94 43.31" stroke="hsl(36, 77.1%, 85.4%)" stroke-width="1.5"></path><path d="M1598.08 210.75L1398.13 399.1" stroke="hsl(36, 77.1%, 85.4%)" stroke-width="1.5"></path><path d="M1598.08 210.75L1304.34 224.39" stroke="hsl(36, 77.1%, 85.4%)" stroke-width="1.5"></path><path d="M-89.28 674.4L-89.28 674.4" stroke="hsl(36, 77.1%, 85.4%)" stroke-width="1.5"></path><path d="M-89.28 674.4L107.12 678.76" stroke="hsl(36, 77.1%, 85.4%)" stroke-width="1.5"></path><path d="M-89.28 674.4L65.81 512.53" stroke="hsl(36, 77.1%, 85.4%)" stroke-width="1.5"></path><path d="M-89.28 674.4L196.89 640.57" stroke="hsl(36, 77.1%, 85.4%)" stroke-width="1.5"></path><path d="M-89.28 674.4L204.63 523.88" stroke="hsl(36, 77.1%, 85.4%)" stroke-width="1.5"></path><path d="M-89.28 674.4L349.37 500.43" stroke="hsl(36, 77.1%, 85.4%)" stroke-width="1.5"></path><path d="M65.81 512.53L65.81 512.53" stroke="hsl(36, 77.1%, 85.4%)" stroke-width="1.5"></path><path d="M65.81 512.53L107.12 678.76" stroke="hsl(36, 77.1%, 85.4%)" stroke-width="1.5"></path><path d="M107.12 678.76L107.12 678.76" stroke="hsl(36, 77.1%, 85.4%)" stroke-width="1.5"></path><path d="M107.12 678.76L204.63 523.88" stroke="hsl(36, 77.1%, 85.4%)" stroke-width="1.5"></path><path d="M349.37 500.43L349.37 500.43" stroke="hsl(36, 77.1%, 85.4%)" stroke-width="1.5"></path><path d="M349.37 500.43L411.82 659.81" stroke="hsl(36, 77.1%, 85.4%)" stroke-width="1.5"></path><path d="M349.37 500.43L530.47 522.83" stroke="hsl(36, 77.1%, 85.4%)" stroke-width="1.5"></path><path d="M349.37 500.43L503.51 691.87" stroke="hsl(36, 77.1%, 85.4%)" stroke-width="1.5"></path><path d="M411.82 659.81L411.82 659.81" stroke="hsl(36, 77.1%, 85.4%)" stroke-width="1.5"></path><path d="M411.82 659.81L503.51 691.87" stroke="hsl(36, 77.1%, 85.4%)" stroke-width="1.5"></path><path d="M411.82 659.81L530.47 522.83" stroke="hsl(36, 77.1%, 85.4%)" stroke-width="1.5"></path><path d="M530.47 522.83L530.47 522.83" stroke="hsl(36, 77.1%, 85.4%)" stroke-width="1.5"></path><path d="M530.47 522.83L503.51 691.87" stroke="hsl(36, 77.1%, 85.4%)" stroke-width="1.5"></path><path d="M503.51 691.87L503.51 691.87" stroke="hsl(36, 77.1%, 85.4%)" stroke-width="1.5"></path><path d="M503.51 691.87L662.68 655.73" stroke="hsl(36, 77.1%, 85.4%)" stroke-width="1.5"></path><path d="M503.51 691.87L652.69 519.59" stroke="hsl(36, 77.1%, 85.4%)" stroke-width="1.5"></path><path d="M503.51 691.87L792.3 685" stroke="hsl(36, 77.1%, 85.4%)" stroke-width="1.5"></path><path d="M662.68 655.73L662.68 655.73" stroke="hsl(36, 77.1%, 85.4%)" stroke-width="1.5"></path><path d="M662.68 655.73L792.3 685" stroke="hsl(36, 77.1%, 85.4%)" stroke-width="1.5"></path><path d="M842.93 401.56L842.93 401.56" stroke="hsl(36, 77.1%, 85.4%)" stroke-width="1.5"></path><path d="M842.93 401.56L1006.64 341.88" stroke="hsl(36, 77.1%, 85.4%)" stroke-width="1.5"></path><path d="M842.93 401.56L978.21 529.4" stroke="hsl(36, 77.1%, 85.4%)" stroke-width="1.5"></path><path d="M842.93 401.56L652.69 519.59" stroke="hsl(36, 77.1%, 85.4%)" stroke-width="1.5"></path><path d="M842.93 401.56L792.3 685" stroke="hsl(36, 77.1%, 85.4%)" stroke-width="1.5"></path><path d="M792.3 685L792.3 685" stroke="hsl(36, 77.1%, 85.4%)" stroke-width="1.5"></path><path d="M792.3 685L969.31 702.18" stroke="hsl(36, 77.1%, 85.4%)" stroke-width="1.5"></path><path d="M1006.64 341.88L1006.64 341.88" stroke="hsl(36, 77.1%, 85.4%)" stroke-width="1.5"></path><path d="M1006.64 341.88L1113.65 225.97" stroke="hsl(36, 77.1%, 85.4%)" stroke-width="1.5"></path><path d="M1006.64 341.88L978.21 529.4" stroke="hsl(36, 77.1%, 85.4%)" stroke-width="1.5"></path><path d="M1006.64 341.88L1146.38 506.59" stroke="hsl(36, 77.1%, 85.4%)" stroke-width="1.5"></path><path d="M1006.64 341.88L1251.59 369.19" stroke="hsl(36, 77.1%, 85.4%)" stroke-width="1.5"></path><path d="M1006.64 341.88L1304.34 224.39" stroke="hsl(36, 77.1%, 85.4%)" stroke-width="1.5"></path><path d="M969.31 702.18L969.31 702.18" stroke="hsl(36, 77.1%, 85.4%)" stroke-width="1.5"></path><path d="M969.31 702.18L1146.38 506.59" stroke="hsl(36, 77.1%, 85.4%)" stroke-width="1.5"></path><path d="M969.31 702.18L662.68 655.73" stroke="hsl(36, 77.1%, 85.4%)" stroke-width="1.5"></path><path d="M969.31 702.18L1290.23 665.03" stroke="hsl(36, 77.1%, 85.4%)" stroke-width="1.5"></path><path d="M969.31 702.18L842.93 401.56" stroke="hsl(36, 77.1%, 85.4%)" stroke-width="1.5"></path><path d="M1113.65 225.97L1113.65 225.97" stroke="hsl(36, 77.1%, 85.4%)" stroke-width="1.5"></path><path d="M1113.65 225.97L1304.34 224.39" stroke="hsl(36, 77.1%, 85.4%)" stroke-width="1.5"></path><path d="M1113.65 225.97L1251.59 369.19" stroke="hsl(36, 77.1%, 85.4%)" stroke-width="1.5"></path><path d="M1113.65 225.97L1266.61 43.57" stroke="hsl(36, 77.1%, 85.4%)" stroke-width="1.5"></path><path d="M1113.65 225.97L1146.38 506.59" stroke="hsl(36, 77.1%, 85.4%)" stroke-width="1.5"></path><path d="M1113.65 225.97L1411.77 223.64" stroke="hsl(36, 77.1%, 85.4%)" stroke-width="1.5"></path><path d="M1146.38 506.59L1146.38 506.59" stroke="hsl(36, 77.1%, 85.4%)" stroke-width="1.5"></path><path d="M1146.38 506.59L1298.98 512.7" stroke="hsl(36, 77.1%, 85.4%)" stroke-width="1.5"></path><path d="M1146.38 506.59L1251.59 369.19" stroke="hsl(36, 77.1%, 85.4%)" stroke-width="1.5"></path><path d="M1146.38 506.59L1290.23 665.03" stroke="hsl(36, 77.1%, 85.4%)" stroke-width="1.5"></path><path d="M1273.18 -40.11L1273.18 -40.11" stroke="hsl(36, 77.1%, 85.4%)" stroke-width="1.5"></path><path d="M1273.18 -40.11L1266.61 43.57" stroke="hsl(36, 77.1%, 85.4%)" stroke-width="1.5"></path><path d="M1266.61 43.57L1266.61 43.57" stroke="hsl(36, 77.1%, 85.4%)" stroke-width="1.5"></path><path d="M1266.61 43.57L1410.94 43.31" stroke="hsl(36, 77.1%, 85.4%)" stroke-width="1.5"></path><path d="M1266.61 43.57L1304.34 224.39" stroke="hsl(36, 77.1%, 85.4%)" stroke-width="1.5"></path><path d="M1304.34 224.39L1304.34 224.39" stroke="hsl(36, 77.1%, 85.4%)" stroke-width="1.5"></path><path d="M1304.34 224.39L1411.77 223.64" stroke="hsl(36, 77.1%, 85.4%)" stroke-width="1.5"></path><path d="M1304.34 224.39L1251.59 369.19" stroke="hsl(36, 77.1%, 85.4%)" stroke-width="1.5"></path><path d="M1304.34 224.39L1398.13 399.1" stroke="hsl(36, 77.1%, 85.4%)" stroke-width="1.5"></path><path d="M1304.34 224.39L1410.94 43.31" stroke="hsl(36, 77.1%, 85.4%)" stroke-width="1.5"></path><path d="M1251.59 369.19L1251.59 369.19" stroke="hsl(36, 77.1%, 85.4%)" stroke-width="1.5"></path><path d="M1251.59 369.19L1398.13 399.1" stroke="hsl(36, 77.1%, 85.4%)" stroke-width="1.5"></path><path d="M1251.59 369.19L1298.98 512.7" stroke="hsl(36, 77.1%, 85.4%)" stroke-width="1.5"></path><path d="M1298.98 512.7L1298.98 512.7" stroke="hsl(36, 77.1%, 85.4%)" stroke-width="1.5"></path><path d="M1298.98 512.7L1398.13 399.1" stroke="hsl(36, 77.1%, 85.4%)" stroke-width="1.5"></path><path d="M1290.23 665.03L1290.23 665.03" stroke="hsl(36, 77.1%, 85.4%)" stroke-width="1.5"></path><path d="M1290.23 665.03L1395.29 651.82" stroke="hsl(36, 77.1%, 85.4%)" stroke-width="1.5"></path><path d="M1290.23 665.03L1298.98 512.7" stroke="hsl(36, 77.1%, 85.4%)" stroke-width="1.5"></path><path d="M1290.23 665.03L1398.13 399.1" stroke="hsl(36, 77.1%, 85.4%)" stroke-width="1.5"></path><path d="M1429.78 -106.36L1429.78 -106.36" stroke="hsl(36, 77.1%, 85.4%)" stroke-width="1.5"></path><path d="M1429.78 -106.36L1410.94 43.31" stroke="hsl(36, 77.1%, 85.4%)" stroke-width="1.5"></path><path d="M1429.78 -106.36L1595.66 -89.05" stroke="hsl(36, 77.1%, 85.4%)" stroke-width="1.5"></path><path d="M1410.94 43.31L1410.94 43.31" stroke="hsl(36, 77.1%, 85.4%)" stroke-width="1.5"></path><path d="M1411.77 223.64L1411.77 223.64" stroke="hsl(36, 77.1%, 85.4%)" stroke-width="1.5"></path><path d="M1411.77 223.64L1398.13 399.1" stroke="hsl(36, 77.1%, 85.4%)" stroke-width="1.5"></path><path d="M1411.77 223.64L1410.94 43.31" stroke="hsl(36, 77.1%, 85.4%)" stroke-width="1.5"></path><path d="M1398.13 399.1L1398.13 399.1" stroke="hsl(36, 77.1%, 85.4%)" stroke-width="1.5"></path><path d="M1395.29 651.82L1395.29 651.82" stroke="hsl(36, 77.1%, 85.4%)" stroke-width="1.5"></path><path d="M1595.66 -89.05L1595.66 -89.05" stroke="hsl(36, 77.1%, 85.4%)" stroke-width="1.5"></path><path d="M1595.66 -89.05L1410.94 43.31" stroke="hsl(36, 77.1%, 85.4%)" stroke-width="1.5"></path><path d="M1595.66 -89.05L1598.08 210.75" stroke="hsl(36, 77.1%, 85.4%)" stroke-width="1.5"></path><path d="M1586.84 340.46L1586.84 340.46" stroke="hsl(36, 77.1%, 85.4%)" stroke-width="1.5"></path><path d="M1586.84 340.46L1601.01 527.92" stroke="hsl(36, 77.1%, 85.4%)" stroke-width="1.5"></path><path d="M1601.01 527.92L1601.01 527.92" stroke="hsl(36, 77.1%, 85.4%)" stroke-width="1.5"></path><path d="M1601.01 527.92L1593.8 709.01" stroke="hsl(36, 77.1%, 85.4%)" stroke-width="1.5"></path><path d="M1593.8 709.01L1593.8 709.01" stroke="hsl(36, 77.1%, 85.4%)" stroke-width="1.5"></path><circle r="25" cx="-58.83" cy="536.85" fill="url(#SvgjsRadialGradient1035)"></circle><circle r="25" cx="204.63" cy="523.88" fill="url(#SvgjsRadialGradient1035)"></circle><circle r="25" cx="196.89" cy="640.57" fill="url(#SvgjsRadialGradient1035)"></circle><circle r="25" cx="652.69" cy="519.59" fill="url(#SvgjsRadialGradient1035)"></circle><circle r="25" cx="978.21" cy="529.4" fill="url(#SvgjsRadialGradient1035)"></circle><circle r="25" cx="1612.05" cy="57.85" fill="url(#SvgjsRadialGradient1035)"></circle><circle r="25" cx="1598.08" cy="210.75" fill="url(#SvgjsRadialGradient1035)"></circle><circle r="5" cx="-89.28" cy="674.4" fill="#f5dab2"></circle><circle r="5" cx="65.81" cy="512.53" fill="#f5dab2"></circle><circle r="5" cx="107.12" cy="678.76" fill="#f5dab2"></circle><circle r="5" cx="349.37" cy="500.43" fill="#f5dab2"></circle><circle r="5" cx="411.82" cy="659.81" fill="#f5dab2"></circle><circle r="5" cx="530.47" cy="522.83" fill="#f5dab2"></circle><circle r="5" cx="503.51" cy="691.87" fill="#f5dab2"></circle><circle r="5" cx="662.68" cy="655.73" fill="#f5dab2"></circle><circle r="5" cx="842.93" cy="401.56" fill="#f5dab2"></circle><circle r="5" cx="792.3" cy="685" fill="#f5dab2"></circle><circle r="5" cx="1006.64" cy="341.88" fill="#f5dab2"></circle><circle r="5" cx="969.31" cy="702.18" fill="#f5dab2"></circle><circle r="5" cx="1113.65" cy="225.97" fill="#f5dab2"></circle><circle r="5" cx="1146.38" cy="506.59" fill="#f5dab2"></circle><circle r="5" cx="1273.18" cy="-40.11" fill="#f5dab2"></circle><circle r="5" cx="1266.61" cy="43.57" fill="#f5dab2"></circle><circle r="5" cx="1304.34" cy="224.39" fill="#f5dab2"></circle><circle r="5" cx="1251.59" cy="369.19" fill="#f5dab2"></circle><circle r="5" cx="1298.98" cy="512.7" fill="#f5dab2"></circle><circle r="5" cx="1290.23" cy="665.03" fill="#f5dab2"></circle><circle r="5" cx="1429.78" cy="-106.36" fill="#f5dab2"></circle><circle r="5" cx="1410.94" cy="43.31" fill="#f5dab2"></circle><circle r="5" cx="1411.77" cy="223.64" fill="#f5dab2"></circle><circle r="5" cx="1398.13" cy="399.1" fill="#f5dab2"></circle><circle r="5" cx="1395.29" cy="651.82" fill="#f5dab2"></circle><circle r="5" cx="1595.66" cy="-89.05" fill="#f5dab2"></circle><circle r="5" cx="1586.84" cy="340.46" fill="#f5dab2"></circle><circle r="5" cx="1601.01" cy="527.92" fill="#f5dab2"></circle><circle r="5" cx="1593.8" cy="709.01" fill="#f5dab2"></circle></g><defs><mask id="SvgjsMask1034"><rect width="1440" height="560" fill="#ffffff"></rect></mask><radialGradient id="SvgjsRadialGradient1035"><stop stop-color="#ffffff" offset="0.1"></stop><stop stop-color="rgba(235, 181, 100, 1)" offset="0.2"></stop><stop stop-color="rgba(235, 181, 100, 0)" offset="1"></stop></radialGradient></defs></svg>